<mxfile host="app.diagrams.net" modified="2023-06-06T13:53:44.256Z" agent="Mozilla/5.0 (X11; Ubuntu; Linux x86_64; rv:109.0) Gecko/20100101 Firefox/113.0" etag="b2bF7IzskEcceVf0GI_F" version="21.3.5" type="device">
  <diagram name="Page-1" id="Whthcb1DO3mA12IJGDZ7">
    <mxGraphModel dx="2284" dy="754" grid="1" gridSize="10" guides="1" tooltips="1" connect="1" arrows="1" fold="1" page="1" pageScale="1" pageWidth="850" pageHeight="1100" math="0" shadow="0">
      <root>
        <mxCell id="0" />
        <mxCell id="1" parent="0" />
        <mxCell id="5HN7T7UEc5agFK8pBkJ4-1" value="&lt;div&gt;Consumer&lt;/div&gt;&lt;div&gt;&lt;br&gt;&lt;/div&gt;&lt;div&gt;&lt;br&gt;&lt;/div&gt;&lt;div&gt;&lt;br&gt;&lt;/div&gt;&lt;div&gt;&lt;br&gt;&lt;/div&gt;&lt;div&gt;&lt;br&gt;&lt;/div&gt;&lt;div&gt;&lt;br&gt;&lt;/div&gt;&lt;div&gt;&lt;br&gt;&lt;/div&gt;&lt;div&gt;&lt;br&gt;&lt;/div&gt;&lt;div&gt;&lt;br&gt;&lt;/div&gt;&lt;div&gt;&lt;br&gt;&lt;/div&gt;&lt;div&gt;&lt;br&gt;&lt;/div&gt;&lt;div&gt;&lt;br&gt;&lt;/div&gt;&lt;div&gt;&lt;br&gt;&lt;/div&gt;&lt;div&gt;&lt;br&gt;&lt;/div&gt;&lt;div&gt;&lt;br&gt;&lt;/div&gt;&lt;div&gt;&lt;br&gt;&lt;/div&gt;&lt;div&gt;&lt;br&gt;&lt;/div&gt;&lt;div&gt;&lt;br&gt;&lt;/div&gt;" style="rounded=0;whiteSpace=wrap;html=1;" vertex="1" parent="1">
          <mxGeometry x="210" y="260" width="380" height="330" as="geometry" />
        </mxCell>
        <mxCell id="5HN7T7UEc5agFK8pBkJ4-10" value="" style="group" vertex="1" connectable="0" parent="1">
          <mxGeometry x="150" y="300" width="230" height="100" as="geometry" />
        </mxCell>
        <mxCell id="5HN7T7UEc5agFK8pBkJ4-6" value="Keycloak" style="rounded=1;whiteSpace=wrap;html=1;" vertex="1" parent="5HN7T7UEc5agFK8pBkJ4-10">
          <mxGeometry y="30" width="120" height="60" as="geometry" />
        </mxCell>
        <mxCell id="5HN7T7UEc5agFK8pBkJ4-7" value="Postgres" style="shape=cylinder3;whiteSpace=wrap;html=1;boundedLbl=1;backgroundOutline=1;size=15;" vertex="1" parent="5HN7T7UEc5agFK8pBkJ4-10">
          <mxGeometry x="170" y="20" width="60" height="80" as="geometry" />
        </mxCell>
        <mxCell id="5HN7T7UEc5agFK8pBkJ4-8" value="" style="endArrow=classic;startArrow=classic;html=1;rounded=0;entryX=0;entryY=0.5;entryDx=0;entryDy=0;entryPerimeter=0;exitX=1;exitY=0.5;exitDx=0;exitDy=0;" edge="1" parent="5HN7T7UEc5agFK8pBkJ4-10" source="5HN7T7UEc5agFK8pBkJ4-6" target="5HN7T7UEc5agFK8pBkJ4-7">
          <mxGeometry width="50" height="50" relative="1" as="geometry">
            <mxPoint x="-140" y="230" as="sourcePoint" />
            <mxPoint x="-90" y="180" as="targetPoint" />
          </mxGeometry>
        </mxCell>
        <mxCell id="5HN7T7UEc5agFK8pBkJ4-9" value="" style="shape=image;verticalLabelPosition=bottom;labelBackgroundColor=default;verticalAlign=top;aspect=fixed;imageAspect=0;image=data:image/png,iVBORw0KGgoAAAANSUhEUgAABAAAAAQACAYAAAB/HSuDAACAAElEQVR42uz9eZxlR3kneP8izj3n7luuVaXSvlVp33cJgUBYIFUJjBAgMI3bxmAbgWQzpj/Tb4+mP3bbYCFjgWjjpXFP97xtvz093W3avZjFAiMJGTAgsPattlwq9+1uJ5b3j5uZlVWqysrMu8W59/ed0XgZrLoVJ06ceJ6IeAIgIiIiIiIiIiIiIiIiIiIiIiIiIiIiIiIiIiIiIiIiIiIiIiIiIiIiIiIiIiIiIiIiIiIiIiIiIiIiIiIiIiIiIiIiIiIiIiIiIiIiIiIiIiIiIiIiIiIiIiIiIiIiIiIiIiIiIiIiIiIiIiIiIiIiIiIiIiIiIiIiIiIiIiIiIiIiIiIiIiIiIiIiIiIiIiIiIiIiIiIiIiIiIiIiIiIiIiIiIiIiIiIiIiIiIiIiIiIiIiIiIiIiIiIiIiIiIiIiIiIiIiIiIiIiIiIiIiIiIiIiIiIiIiIiIiIiIiIiIiIiIiIiIiIiIiIiIiIiIiIiIiIiIiIiIiIiIiIiIiIiIiIiIiIiIiIiIiIiIiIiIiIiIiIiIiIiIiIiIiIiIiIiIiIiIiIiIiIiIiIiIiIiIiIiIiIiIiIiIiIiIiIiIiIiIiIiIiIiIiIiIiIiIiIiIiIiIiIiIiIiIiIiIiIiIiIiIiIiIiIiIiIiIiIiIiIiIiIiIiIiIiIiIiIiIiIiIiIiIiIiIiIiIiIiIiIiIiIiIiIiIiIiIiIiIiIiIiIiIiIiIiIiIiIiIiIiIiIiIiIiIiIiIiIiIiIiIiIiIiIiIiIiIiIiIiIiIiIiIiIiIiIiIiIiIiIiIiIiIiIiIiIiIiIiIiIiIiIiIiIiIiIiIiIiIiIiIiIiIiIiIiIiIiIiIiIiIiIiIiIiIiIiIiIiIiIiIiIiIiIiIiIiIiIiIiIiIiIiIiIiIiIiIiIiIiIiIiIiIiIiIiIiIiIiIiIiIiIiIiIiIiIiIiIiIiIiIiIiIiIiIiIiIiIiIiIiIiIiIiIiIiIiIiIiIiIiIiIiIiIiIiIiIiIiIiIiIiIiIiIiIiIiIiIiIiIiIiIiIiIiIiIiIiIiIiIiIiIiIiIiIiIiIiIiIiIiIiIiIiIiIiIiIiIiIiIiIiIiIiIiIiIiIiIiIiIiIiIiIiIiIiIiIiIiIiIiIiIiIiIiIiIiIiIiIiIiIiIiIiIiIiIiIiIiIiIiIiIiIiIiIiIiIiIiIiIiIiIiIiIiIiIiIiIiIiIiIiIiIiIiIiIiIiIiIiIiIiIiIiIiIiIiIiIiIiIiIiIiIiIiIiIiIiIiIiIiIiIiIiIiIiIiIiIiIiIiIiIiIiIiIiIiIiIiIiIiIiIiIiIiIiIiIiIiIiIiIiIiIiIiIiIiIiIiIiIiIiIiIiIiIiIiIiIiIiIiIiIiIiIiIiIiIiIiIiIiIiIiIiIiIiIiIiIiIiIiIiIiIiIiIiIiIiIiIiIiIiIiIiIiIiIiIiIiIiIiIiIiIiIiIiIiIiIiIiIiIiIiIiIiIiIiIiIiIiIiIiIiIiIiIiIiIiIiIiIiIiIiIiIiIiIiIiIiIiIiIiIiIiIiIiIiIiIiIiIiIiIiIiIiIiIiIiIiIiIiIiIiIiIiIiIiIiIiIiIiIiIiIiIiIiIiIiIiIiIiIiIiIiIiIiIiIiIiIiIiIiIiIiIiIiIiIiIiIiIiIiIiIiIiIiIiIiIiIiIiIiIiIiIiIiIiIiIiIiIiIiIiIiIiIiIiIiIiIiIiIiIiIiIiIiIiIiIiIiIiIiIiIiIiIiIiIiIiIiIiIiIiIiIiIiIiIiIiIiIiIiIiIiIiIiIiIiIiIiIiIiIiIiIiIiIiIiIiIiIiIiIiIiIiIiIiIiIiIiIiIiIiIiIiIiIiIiIiIiIiIiIiIiIiIiIiIiIiIiIiIiIiIiIiIiIiIiIiIiIiIiIiIiIiIiIiIiIiIiIiIiIiIiIiIiIiIiIiIiIiIiIiIiIiIiIiIiIiIiIiIiIiIiIiIiIiIiIiIiIiIiIiIiIiIiIiIiIiIiIiIiIiIiIiIiIiIiIiIiIiIiIiIiIiIiIiIiIiIiIiIiIiIiIiIiIiIiIiIiIiIiIiIiIiIiIiIiIiIiIiIiIiIiIiIiIiIiIiIiIiIiIiIiIiIiIiIiIiIiIiIiIiIiIiIiIiIiIiIiIiIiIiIiIiIiIiIiIiIiIiIiIiIiIiIiIiIiIiIiIiIiIiIiIiIiIiIiIiIiIiIiIiIiIiIiIiIiIiIiIiIiIiIiIiIiIiIiIiIiIiIiIiIiIiIiIiIiIiIiIiIiIiIiIiIiIiIiIiIiIiIiIiIiIiIiIiIiIiIiIiIiIiIiIiIiIiIiIihwk2ATXTXXfdJay1WSnk2wBcDSDBViHqSksAvm9hvwlg4Wtf+xpbhIiIiMhxMTYBNcvd77gbxppThBD/EsCdAPoBSLYMUVdSAKYFxH+0sP8KwAibhIiIiMhtHpuAmmXnaTulH/i/AeB+AGlwhwlRN5PL7/llAmJ++47t33399dfZKkRERERMAFC3u+eee4SEvB4C/wJAH1uEqKe+I9vjQfzvLznzktFnX3mWLUJERETkKG7PpqaoVqsFCHwcwBlsDaKecz4EfrkWq+XYFERERERMAFAX27Nnj4TFbQDuAneVEPXqt+Q9Vtqb2RRERERETABQdxsG8DEAeTYFUc8qAPj4nj17imwKIiIiIiYAqAvdeeedPgw+AOBatgZRTxMAboLFvXv37uUNM0RERERMAFA3eec73ymkkLsh8AuoVwMnot6WBfDL1tqz9+zZw9YgIiIiYgKAukVMxNIAPgTgIvDKPyKqjwOXweKDwoiAzUFERETEBAB1z1T/GgDvZT8iomO+K++3sJezKYiIiIhcC+GINumee+5BpVIZEBBfBvBusPI/ER1NAfi/LeyDAKa/9rWvsUWIiIiIHMCVW9q0arUaExC3A3gbg38iOo4YgD0C4hYhBL8zREREREwAUITtRP3avwKbgohOoAjgV621Q2wKIiIiIiYAKILuvPNOHxb3AbiCrUFEJ3EtgHvvvPNOXgtIRERExAQARckN190AIcRFAD4IXvtHRCeXExC/KKU8/yMf+Qhbg4iIiIgJAIqKwcHBvID4CIBz2BpEtEEXwOJDk5OTTBoSERERMQFAEXIDgHtRL/BFRLQRMQAfEBBXsymIiIiIOosV3GlD9r5z74AV9rcBXAZeH0lEm5MGkDnv/PO+9eKLL5bZHERERESdwR0AdPLgf+/emJX2bgBvYp8hoi2IAbhdQLx97zv3cgcRERERERMA5CyLswF8FECOjUFEW1QA8FEr7E42BRERERETAOSgO+64w7PW3gfgUrYGETXoagi8/13vehePnxERERExAUAu2bNnj/A9/xoA7wMQsEWIqEFpAPdppS/bu3cva4kQERERMQFAzrDIQ+CXAJzFxiCiJtkF4EPW2gybgoiIiIgJAHLArbfeCgC3Avh58LYIImoeD8B7YXHTHXfcwdYgIiIiYgKAOi2bzfYB+BUAebYGETXZEICP+r7fx6YgIiIiYgKAOuhd73yXLyDeD+BGtgYRtYAH4M0A7r777rt5LSAREREREwDUCXfddRe01OcC+KcAsmwRImqRPCx+yWp7JpuCiIiIiAkA6gBhhQ/ggwAuY2sQUYtdDeADb33LW/ktIiIiImICgNrpjjvuAASuBXAvAF7RRUStFrOw70ulUlfefvvtbA0iIiIiJgCoHd7xjncgFosVUS/8dzpbhIja5FwIfDQej+fYFERERERMAFAbeNLzBMRbAdwFXvtHRG0cfgDcI4S4hU1BRERExAQAtYGQYhjAr4LX/hFR++Vh8et79uwpsCmIiIiImACgFnrHO97hw+KDAK5iaxBRh1wPi/e9++5381pAIiIiIiYAqBXuuusuxLzYBQB+AUCGLUJEHZID8Cva6HPuuecetgYREREREwDUdBZZAB8GsIuNQUQddrG19kPVajXOpiAiIiJiAoCaTeA6APeAhf+IqPM8AO+z1l7BpiAiIiJqzWSLetBDDz2EXC43KCAeQv3sP5NBROSCrIBInH/++d9+061vKv/whz9kixARERE1CYO+HvXjf/hxDBZvB/AWMBFERO6IAbgTAreOj49zbCIiIiJiAoAaZWFPB/AxAAW2BhE5pgiLj2utt7EpiIiIiJgAoAa86x3villrPwDgMrYGETnqGinke/fs2cNrAYmIiIiYAKCt2LNnj9CevgzAfQDSbBEiclQOwEdgsXvvnXvZGkRERERMANBmWWvrk2rgHLYGETluN4APGmsybAoiIiIiJgBoE+666y4AuAm89o+IoiEG4P1CimvuvPNOtgYREREREwC0UUKIAQHxcQD9bA0iiojtAD4mhexjUxARERExAUAbsGfPnhgs3gXgZj53IoqQGIDbAbz9rrvuYkFAIiIiIiYA6GSstWcD+BXUC2sREUVJHsDHYHEqm4KIiIiICQBax6233ioFxIfBa/+IKLquFkLcd8899/C7RURERLRFLATX5fbs2SPiQfx6AP87gAG2CBFFVAzANq300+edf97oiy++yBYhIiIi2iSupHQ5YUUewEcBnMnWIKIoD2cAzgfwYQGRZXMQERERMQFAa9z2lttgYd8C4N3gbg8iij4P9WtMb77nnnvYGkRERERMANCKZCo5gHrhP66WEVG3GATw0Wq1ymsBiYiIiDaJq8Jd6l13v8uHxS8C+DCAOFuEiLqEALANwMHzzjvvmRdffNGwSYiIiIg2hjsAutBdd90FrfX5AD4CIMMWIaIukwPwSxKStU2IiIiImADo9YcqEwA+BOBS1FfLiIi6iQBwpRX2g3v27OFONiIiIiImAHrTcmGsa1AvlMXgn4i6lQfgfQCuYEFAIiIioo1PoKhL3H333VA11Q+BfwHgBjDBQ0TdrQDA11p/54ILLqg8//zzbBEiIiKidTBA7CJGGw8CtwF4B5jcIaLu5wF4Nyxu1lpzxxMREREREwA9ZTuAjwPIsymIqEcUAPza8n8lIiIiIiYAut+ePXt8APcBuIqtQUQ95noA7997594Ym4KIiIiICYCutlwA60IAHwav/SOi3pODxa9A4BwWBCQiIiJiAqCr1Sq1HCw+DOA8tgYR9agLAfxCWA4TbAoiIiIiJgC6lhX2egDvBQv/EVHv8izsBywsj0ERERERnWjCxCaItr137h0E8H8CuAJM6BBRb8tAILlr965vv//97y8//vjjbBEiIiKiNRgwRthdd93lW2HfAeDNYDKHiCgG4J3W2Df/wz/8A8dEIiIiIiYAuujhCXkGgF8Br/0jIlpRAPBxWOxgUxARERExAdAV3n3Hu2PW2g8AuJStQUR0lKsB3Hv33XfzWkAiIiIiJgCibe/evULF1JUAPgAgxRYhIjpKFsAvGG0u2rt3r2BzEBERETEBEFkCIg/gIwDOZmsQER3XBQDus8am2RRERERETABE0p49e2CMuQXAz4OF/4iITsQDcC8sbrjn7fewNYiIiIiYAIgeYcUA6oX/+tgaRETr2gGBX67FahwviYiIiADwbGSE3PnOO2NSyl8G8FnUz7hSw2+AgBXC0VfBQlgA1vA5NZv0AOHw8GcNYPjcm2QWwCcs7F987WtfU2wOIiIi6mWskBylWFWKcwD8MoP/5qhmipgeOB0L6SK0dO80hWc0cpV5DMyOIDY7AWjGLo03agwY3AGz60qE/TvqiQC3In/IsIrY+D6Il54BpsYAa/ncGlMA8FEB8RSAV9gcRERE1NMxJZsgGm699VaRy+Z+G8BnwKMbDQvTBfzjuddhf2bA6ZezPyZRGBzCWd//ayRef44PrqEGFSifvhv7rt+DoUIRSOfd/a3WIjX6CpJ/83/DTo7y2TWuAuB34on47/zH//gfmVEhIiKinsUichFwz9vvEbFk7HoI/H8A9LNFGmNiAV49/RK8Vjhlefu/mwJYZAeGMT58BmrZPgwfeA6oVfkAt/rcc0W8csO7cXDwDCRVDWnfg5WODoFCQKXz8DwPsYMvc/dHc75125RSf79r167RF154gS1CREREPYkryREQ+mEBAh8HcCZbo/HAarEwhIP9p8E4HPxLWPTH41js2wYAmBo4DZO7rqlvYactNKiHqfOvwfjgabAARmSAsLQI4fD2eis9lM+/CnbnWXx+TXjzAewSEL9oreURKiIiImICgNy05649wgjzFgB7+Lwap/0E9m87H4ue7/TvTAsBO7ANoR8HANRiPg7sug61/u18iFuI/cLBU3Dw3KtQiwUAgIrnY0JZoFZx+pereBKVy2+FSKb4GJvzvft5YcUtbAoiIiJiAoBcjV0GAXwcQI6N0WhbCkwNno6R7IDTP9MDkMtksNA3fNQRhcncICZ3XwfEfD7LTbBBgIld12CyMHzkfwfgUDyDSqXk/ABQ3XEOzPlXApLDdRP0Q+Bjd955J68FJCIiIiYAyC179+71YXEfgGvZGo2rpvLYN3w2Ko6v/hckUB7cAS2Ofj0tBA6ccQkqO891+wo7x1ROOQcHzrgU9piapxYCIyKAV5p3+vfrIInypTcDxUE+zOZ8826SUt6zZ88eZtKIiIiICQByw549e2Ct3QXgnwDIsEUaY6WHw0NnYjxZcPp3BtYgKA6gmjr+ho/5VB4HLrwRNskusSGpDA5dcCMWTtSeXoC5UEPo0Om/RnXgVOgLruEugObIw+KjsKypQkREREwAkCsMUrD4BQAXsTEaV84N4vWB0x0v/Afk43FU+4ehT1Cd3gqB0VN2Yf6MCx28w94xnoeZMy/GoR3nwYjjD3WhkDgkA6hKBfWDAW6yQqC862qI7afzuTbHZRb2Q3feeSdfIiIiImICgJxwLYB7+IyaEDz5AQ5sOwfzQdrp35mAhVfsRzmx/u+sxAKM7L4eJlvgw12HzvVhdPf1qC4XUjyRRS/AbBhChjWn/z5hdgDVS26GSLAgYDO+fQLifVLIyx966CG2BhEREfUMrn445q677sL5558/KIT4FwCuYwKgQUJguv9UPL99F2oOX6EnAAymkljYcSaMPPnvrCTSyJgQ6dHXAGv4nN8wsnmYvPRWvHrmpTAb2ClRER6KqgIZxN2tryAETL4fwdRBiOlxPuPG5QDEx0bH/u6ss88qv/zyy2wRIiIi6noMLp2b44uYgLgNwNvBBE3DVDyFQ8PnoLx8/ZuzkYiwCPu3Q2+wwn8tFuDA2VegOriTBQGPEyjXhk7FgbMug9pgwceqjOGwBkSt7Hx/rl5yM0SaV9k3QQzAuyzsTb7n8yUiIiIiJgCo/ay1p6B+7V+erdF4IDg1eKbz1/75sEhncijn+t5QqX49k/khTOy+DjaI81mvfYfiSYzvvh4zuaGN/98AmPCTqFTKEEY7/ferbD8betdVLAjYHAUAv2ZhB9gURERExAQAtdWdd97pA/gAgCvYGo2rpot4ffAMhDLm9O/MxzxUh06B2sIRhf2nX4TyznP5sNconXIO9p1xyaYLPtYLAiaASsnpv58JEqhceB1E/3Y+7Oa4FgL37n3nXl4LSEREREwAUHt85MMfgRTyIgHxIfDav4ZZz8fY8FmYTOYdru0OJK2GVxhAObm1Ld2lZA4HL7gRllvC61IZHLzwJpTjWyv4OCdjmKmFkMrtgoCVwVOhLrga8AM+88blBcQvGWHOefvtb2drEBERERMA1HpTU1M5AP8EwHlsjcYt5gfxSv/p0I5f+5dJJFDtG4LZ4nZuIwTGtp+D2TMvAbweLxnheZg95wocHj4LdovPXQuJw14cqlYFrMupI4HS+VcDO3iVfZNcJIT4hUQikWRTEBERERMA1I75/A0A3gsW/mtY/dq/81DyE07/zoQAgr4hVBKNXU9YicVx4IIboXL9Pf3cw/wg9l14I8p+YzUR5r0AU9UQwvFdACpbRPXSmyGSvBawCTwAH7DWXsWmICIiIiYAqKXuuuuuQdQL/w2yNRokJGb6T8VIfmjTZ8Db++JZFJIJzBeHm/Lvmyxux9Tu63p3F4D0ML37OkwWtjXlXzfuJ1EtLUI4fMWiFRKV0y+APvNCFgRsjh0APr5nz54+NgURERExAUAtsfede30BcReAW8HV/4bVEmm8tu1clDy3z0YXYFEdPg1hrDl1x5QXw/6zr0Bt+PSefO7h9jPw2tmXQ4vmDGkVGcOICCCqbl8LqOMp1C69BSJb4MvfuBiAd8DirXvv3MuxmIiIiJgAoOYzwpwJ4KMAcmyNBgmByaEzMZ52ewEvgEWi0IdKkwv3zWf6MHbB9bDJdE89dptM49BFN2Mp3dwgeNYLsFCtQGjl9N+/Mnw61IXXApIxaxPkAXzMCruTTUFERERMAFBTvetd7/KEEB8EcClbo3HVTB9eGTwDSrjdrTMxD7XB7dBNvp5QC4H9p1+C0im9dS1gaed5OHj6xU1b/V+hhMSYjMNWHb8WMBagsutqiKEdHASa42oA73v3u9/NjAoRERExAUDNsXfvXqGVvgbAvQASbJHGg6CD28/FfNzt6/CS1iDRN4TFZGt+ZzlIYt+FN8FmemNDiU3n8PrFt6AUa82RjzkZYCo0zl8LWCtuQ3jR9RAsYt8MGQAfVKG69O477xZsDiIiImICgBoPXKzNA/hFAGezNRq3lB/Evr7THL/2zyKfiGOpOAigNb/TCoHJoTMwd/bl3V8Q0PMwe96VmBw4tWV/hBECh6WPsFxyviBg6dwrYXktYLPsBvBBbXWaTUFERERMAFBD7rjjDsDizQDeDRb+azz48eN4bfv5WIy5XfgvKQTEwDbU4q29tq3ix7HvghsRNumGAVeFfduxb/cNqMbiLf1zlrwAk9oCKnS6PXQqi8plb4JIZTgoNM4D8F4hxE233347W4OIiIiYAKCt831/APXCf0W2RoOExPTAaRjPDrj9MwEUUinMFYdh2/DnTeaHMbXrmu4tDBfzMbnrakzm25PkOHItoHW2SayQqJ5yLsw5l7AgYHNsg8Avx+NxXgtIRERETADQ1uzZs8eHxfsB3IhW7QPvIbVkFq9uPw9l56/9M6gOnQLTpsBMS4l9Z12OcPuZXdnNqjvOwr6zroBp05GPUHgYFQFkecHpdtHxFCqX3gIU+jk4NM4DcJsQYs/evXtjbA4iIiJiAoA2z+IcAP8UQJaN0SAhcXjoDBxOFpz+mXFYpPoGUE7n2/rnLqQLOHjRjbDJVHe9QqkM9l94ExZS+Ta+tsCMF2A21O5fCziwE/qCayAkh/cmyMPin1pjz2BTEBERERMAtClvfctbJYAPg9f+NSfQyfbhtcEznS78JwBk/RiW+rdDt3lbthESh06/BKWd56FrdgFIicXTdmPs1N2wbX7uSkiMCB+msuR0E1kvhtLua4Btp3GQaI6rAdz3/ve9n99LIiIiYgKANub2228XqVTqWgD3sDWaENz6AV7bfh7mAreLdMdhERQHUEl2pjBbKRbgwEU3w6a7ozCczhZx8IIbUW5x4b8TWYjFMaMMpHa7IKDKDqB26c0QiRQHi2a8xsC9paXSlffccw+PbRERERETALS+u+++G/F4vACBjwM4gy3SICGwkB/GSN+pbTsDvqWfCaCYSGChb3tHf8fY4OmYPv/q6BeGkxJT51+NsRZe+7eh9vTi0K4XBJQS5XOvgN15FseL5jjPwv5itVrl0S0iIiJiAoBOMhm3VgohbgOwl23eOB0ksH/7eVjyfKd/Z1ZYmP5hKL+zBQprsQAHd12PsH9bdB+6EKgNnYqD516FsMPXPZaljzFlgVrF6SZTQRKVy98MkeRV9k3gAbgHFrewKYiIiIgJAFqXMWYIFr8GIMfWaDwQnBw8EyOZQeejhWw6g8W+4bafVT+e8cI2TO2+DohFs5i59eM4vPu6tl37t+5vAXAonkWlUlr+n9xV2XE29O6rABYEbIY+AL9211138fpWIiIiYgKAju/uPXf7AuI+AFexNRpXTRewb+hM1Dy3A9mCFFgc2gkt3HnF9p9xCao7zkYUCwKWd56LA6df7NRvOiQCeCW3rwU0fgKVS24C+oY5eDROALheQNx7991381pAIiIiYgKAjgn+774b1trdAD4CIMMWaYz1YhgbOgvjqaLT665xa+AX+6FSbh0Xnk8XcejCm4CobQlPZXHowhuxlHRrA828F2Am1JDK7YKAlYGd0BdeG/0aEG7IA/iYVvqsO+64g61BRERETADQEUabjIX9MIDdbI3GlXKD2Nd/mtPBvwSQTSRQ7d/W9mv/TtofhcCBnbsxd9qu6GwJlx5mzrwII9vOca7goxISozJAWC0D1uVeKVA+7yqIU87kINIcF0PgF3zf5y4AIiIiYgKAjrJy7R/buUHWj+PAtnOwELh9rVlSWPiFflQcvX6t6scxc87lMB0upLdRJp7E3FmXoOrHnfx9i16A6VBBqprT7Rjm+lC99GaIJK8FbMZ3U0DcB4sb77jjDo7tREREFClcwWiBj370oxgbGxv0pPy458V2SMGroxsK/oXAWHEnDhS2QzvclhJAPpnEQt82WIfP2U8WtuPsZAoxYZ1/9mEyhVLO3YKPFsBYLIVipQzfD5x97lZIlM+6BMFrP0P8lZ8C1nBgaYg4TQjxB/3p/t/9V7/zO0/Hg7he79Fv9U0zWsEa29oODMAu/zfiJP/Rdm10cXpkshbGmNU229z/qeWr48jDjvqTsMbAGHOSv2PjXyQhBIQj8y5r+Q5tvH93tp2EEDDGwi7PNYw20Fpt4ttnVBjq+T/80h+W+TSZAIgMY4x/xulnvCOXy761v7/fi8fjEJErvObOIDsVAv9YTqMs3V61LvoxmG2nIfTdvp7w3GQMt9xwPQJ97Kq1aLw+4Ak+zlprmC0EMhU/jpl4DAcdbs+a9DBhfZyqFZTDV1PqIAnvup/DZdv7kdJuX2EYARLAZbFY7I99P5jxPFlt/mTXQinV2qh7NQFQ/3/XGwHamQBwfWJttN7aF9LCWliuCDgy1YhydzZGnzQ5uJHE3kaaSNS5kACwywkAvkNu924LIYRdTgAYY6G1tsbojT47C4sZz4v9zUP/x//xF/MLCy898sgjXLVgAsB9V15x5QXFYuGThXwhL736DlHBXQBbC1os8MxoGa/Wqk5/reNSIF8cwGQ67/S3KQWLm+NV7DrrDMg2NajWesuBjIbArFfGszBYcPQkjQUwIQJsNxbSszAOP/+5wnaUE1dhd3mkbc+/iwkAheV/mk6FIZTWbZ1d0wbGJGNgzdbnosawnamxL47ZwOr/kVe6Gf1NQIjO7wawzEJGhrEW1hgopTbcX984Vprra2H4FmvtJwH8mK3aXCwL3WSPPPxwdtu27b+dz+dvk97RldaYBNi8/UsK/368isPK7UF/WzKJcPg0LDl8tl4CuBplvENMIYn2BBbWmHoQs8WPtgRQgMJBkcKoiDsbsmoAIYAhCaeufnzD7xQCZeljp15EyoQcYFx9TlpDtzP4X81n0PoBiIVhAEId7X8bT0CJFvz5WM0p1JMC7U5+UIf74PJ+sRONjStHU5TWCMOwflxqi2OmEEJIKU8RQPGyyy//xpNPPlnlE2ACwElf/tKXxMDg4Nuy2eynY7FY5jidmY20CWVl8VfjVTyxqODy3p+sFEgP78B0ugDr8DPuh8Z9YhJnoD1Hqla2MDeyWgYAcWhkhMVPZAYVh+tp1qxACgZpKZ27sWCtkvQRwGKHWoDHCZV7EyxjobTiWVcHGWObsALJeQBtMfg3enPjQou6mq2fZWn/3JZDYtv6Wv0Z26MC+yMJqJWt/Uf+WfnPWmtXE9jWGsA21j/qOQB5qvTkM1deeeWLTz75JHtBk7CCcRPFE4nt8SD4ZCwW6z/RS0Ub9/yiwjfmQyiHf6MHoJjJYilbdDroA4AbxSJ2YbFtf97K1q9mOMcs4GYz73TGUgEY1QLGGKen+BbA834Ro7EsBxkHJ16hCpv23jAubfKkmMUzqSN9z2w++G/Dl2QlCNR6JQBsZRuwH2zxKR0VnK8G9cZAGw2tFZQ6+h+tNbTSq4G80fpIoG/sus96dbu/tRAQ9Zop1jTUd71YrBDE/E+m4skdfKLNjV+oCR7+vd8Txb6+X8zn8x+W8sTV6rgLYGMWQ4t/P1rG8xXjdNI3HYshu20nppJuB1M7hcL7MYFBtOe6umZvYfZhkIfG8zKLOeHusFWBQAYGKc/tXQChkFDSw2lqHjEGNc7ozNZ/2ohmJWWEYDBDm+h31sBEYEw4EhTa1sx1+dKcsN2PtP/yav3KVvzlwNsae9Rq/dEr9i3+fomjkxErg+BmeocA4HnekFJ66vLLLn3qqe99jw++CbgDoElyhcJ52Wz2w9Lz0uu+rNzDdPJBxALfn63hR0va6a3/HoBt+fxy4T93JWFxO+ZwGtpT+d0YA92C6uU7TQm3mlkk4XbAekALWBU6XWTPQOD1WA6v+QUYLv0y+D/ebI2OCW747aY2j9NGRyL4P2qGa+1RQSZj/62NNUet1q/utNCrRZXXrtYrfcxq/fKKvTV2dcW+U9+vY0N9u7JzxG4uGpJSplKpxIeSqdSFHBmaF8NQgx555JF0X3//A+l0+t1SypPOoLgLYH0TVY2vjlSwP3Q70NsW+NDbT8dSkHD6d16AKt4vDiPdhsJ/q+f+W/DBkbAYsDW8KjMYF+5etxdCwAAYlIByuCCgEhJl6eN0NY+4VaAOTvqMQagcOPfPT9MJArHmfouYS6CTBdJG11dwox/MrgkFxdbbozue6pECeuufrz96xf7Itns3E5FbT15vbkeAEHLIArUrr7zyiSeefLLGcaLROTU1bHBg8NJsJnOf53liw4MAHX8gscDjkzU8X3U7652UAvG+IcwkUk4/zQQsbscs8mh9xXdrLXQTiv6tp2BreKueQsrxXQCTBlhUxvkie+NeCs/FB7gLoMOTZKU1V5idDmKa+2y4CEDrfkebGvx3uq/Z1RoGq7sCbPeNDydcrV+zYr9yrl5pdZLz9dFpoI0E/+uNd0fvCFj/7y2lFMlE4v3ZTPZKjhSN4w6ABv3u7/5ufGho8JFUKnWV2MRXnROA49u3pPBnY1XMaLcHwOFkCuH201D23F2JFgBuFCXcKaYQb0PA3I4tzAJAESGmRBIHHL4W0EBAW2BAWmjp7jBrhMCiDHCKWkTGMKHu6gSKOviOtCChyToAdKJg0r1if60ImI980U86FbboWMJg7XM4toDeUf915Z/jrdZ38bPc1Ldrk4f+T7QnQEqZ0sYMXXLBpf/lqb9/incZMwHQGQ8//LC3Y9u2e3P5/Mc9z0ttNpIRXHU7ypKy+MvRCn5Ucvvsf0oKFLftxETK7bP/26HwATGJU1BpeU9rZxATwCAnDJ6VGSw6PIRVsXwtoOMFAavCgweBHWoBMbAgYFuDy+UVInL0+Sxvz21NcMH2pTV9zRhYa5q/28TdVMCGigbapv6Jb3zxLOwbg/ljCuUde80da4KsXPVnNtkTN99mx/YLUb8XcFh4OHjlFVf89MmnnuJIukU8AtCAgf7+belM5ld83y9ubSSitV5YCPGdeeX0tX8xANuzOcxkCs6/2NdjCedjseUTANuion/rOcss4EYz7/Qz0AAOGQGjldMDrYHA80ERI36Og1A7p1DG1a3/TEyvHdta1srcBUhrgv+Wrfw73c3WnHfX5viB9QbbxGLtKv3RFe/1miJ5J9qWf2QbvmGg3/Tgv94NN7PoaZf/H2PNG44GxGKxfDKR/JVMJstrARvAHQBb9MADD4idp5zya7lc7kNSyq3N77kLYNViaPDVQ2W8VHN7BTIf+Ehs24mZRMbp33kWQrxfHEaxxWf/W1n0b/2By6KAEK/ILKZFzNnnUINA3FpkpIBxvCBgVcRwhpqDz2sBWz+FWn5vjHGwrflJWn1GTj4f6rLgX7OfrXnnjp5LiKNW7VeCwuOt2NuNrNgzmO9I8H/kcW5tF8DKs6//K+ofKM/ztodhuHj+7l3f/sEPfsBHswXcAbBF55133vm5XO4+z/NiDbxLhHrhvyena3imbJx/WQZyeRxOF5x+dElYvFnMYQeqrX92HQxitpkKbjXTzhcEPGAktNZOx1UWwKFYBq8EfSwI2I5Jvzac9DsfmPEDTa0NdrVWHAdO0DarK/dKra7Ya6W5Yh/V4B/LuwAa2Pm0dkeAkNJLpVL3FvOFi/hstoY7ALbgscceSw8ODHwmlUq9Q4jGl/V6fSvgaFnjz0crOKTcHbgFgO2JOGrbTkPJjzv9Oy9CBfeKSaRafJhi5ePcKRIWw7aG12UGIyJwOrg2AIakdf5awEUZ4FQ1jySvBWxhYGnqu2acTiP29jeplWf/j2pixio9GuAeOWNO67STMcc9t0/t7q92NenizsBnIaQoCin8q664+ttPPPkEqxhveg5Nm/LI7z+CTDpzXSKR+AUpJRMojQYdxuLb0zW8UHU7C56QAsniIBbjKad/Zw4GbxezyKO1Y6FZOfffYRlbw1v0FDIO7wKwACaNwJwy8ByfyEx4STwfH+QugJZNaDtzZIY2977aNqzK1lfD2N4M/ulEQSe37Xdb8N/4LoCj/l1CeEEQvC+RStz44IMPcjRlAqC10plUKpNOfyIejxeaN+Ho3QHulUWFb87WoB1/SfpTacwVBhA6vIIrAVyLJVzc4sJ/dmUF05EP8wVmDlebBacHsxDAPm0hjdsr6xoCzwV9OOxnOdi3YCKlorLlV/T2c2JwRq2wsq29/f1LRPI9pO4K/lvRHwPfzyUS8U8k4vEknxgTAC3z0EMPiUQi8d5EMvmm5r5lvdmeS8riv0/WMBK63QBpz0PQN4hFh7f+A8AwFG4Ts0i3cOt/PYjRbVkh26ikVXibnsR26/aVsHNWYlYZ54vszckAP4kPoepwccVITv7beFUmbf1T3NaxjVsAeij41zCG7/9GX0TLGhxdGvxv/kaAk4nH4zf5vn/fr//6rzOm3QRuYd+gz33ucxgeHj672Ff83Xgifo5owRvRSzcCGAv8w2yIv5ysoezwOC8A7CgUMT2wA1q6O7YEsLhdLOAWzLT0pdZawzgWxAgABVvDkozjBZF0evt6GcCwsLAOnx6yEJiTcQzrMvp0mYN/Uyb/9V0z0dJ7waltx9n/Y1qYC51d36nqBes6mPiN2pu8Uumfui/4P9Ipm1cERUoZFxA7pJDfuuqKy6efevppPsSNtBubYGOKhYKfSad/PplIXNWSwbTHxrrZmsH/mqphzrhd+K8/8KH7BlHz3F4NPQMhbsUMYi3sSNrhFUwJixv1FM6ybteBKVmBcWXgW7dXgqrCw48TQyhLn4N/EyZTPPcfhaADTu1soi4JpIzuaPAfxQzACVf/uWOmO4J/NLcWAADE48HliUT83lQqzUkLEwDNpbS+KJVKfayVhf96pRaAscB3p2v4cdntICgmBIr5ImZTeaefTAoWb8cMtrXw2r/Von8OBzFDpozbzBTSjhcE3G8klNLOz8kOeRm8EAywIGBjs6mOXpXZS0FDMya+nUjSCAY1XdufjNFM/G3hI3nCuTDbsiuC/5YEs1LKRCL+S8aay++55x4+TCYAmuOLj34xPTgw8CtBEJza8uig+8d2HCgpfH2mhpLjZ7wGEwlM9w2j5vAETQK4EGVcYefhteh8oV0OYlyfyHiwuErP4Dxbcjp2UQBeVUDC8YKANSHx0/ggZmKsrbNVWhtoripH4rvE1X9qFmMMNIP/Lc43DK/H7JHgXyz/P83i+/4p2Wz2o2edcUaGT5QJgIb99m//tigWCzfG4/H3SSlZFavRoEJb/O1U/do/l8f4tBSI9w2iGiScbs8MNO7ADAqo1SexTZ5wrGxfjkpGOGtreKeeRAFu7y6ZswKzSjtfEHDcS+LZYBCan4otBQFKc+t/JCa/vJaNmvbeLxf7Y3/awovI6v+9EvyvJgGauMAmhIgFQXBvKp2+5YEHHuDWKiYAGrNtaHgokUg8GI/H8+16EbvZ8wsK35oLnQ7+JYB8OoulfB+U49f+3YJFnG8XWtZ/jINF/07mHLOAG8y80xVOQwAHtYA17h8FeCHowyivBdz0OM5z/5GJOTr6nHgCoNuCf+4k2fq7aDeeN+GLE/ngf/VRNncXQCYIggdSyeQ2Pl0mABqSTCbfnU6nr2dLNG4xNPhfk1VMKLcnxdmYh0T/IOZjbl/7dwpCvNnOIHnManezJrNRvbYsZRXepKecvxZwxgpMhAaxSFwLOIwKCwJumFbdEgh0/yTbhdV/xjIMomiTcxcmV7un3zZ5/EvE49cGQfAePuH18RrAE3jooYfwgQ98YHexWPidIAjOaHehnm4rDKQt8PR0Df95OnT62j8PwI5CH6b6tjl97V8CFndiFtdg9oQvcSN9aOXasqiuYGatQk3E8JJMQTkcxFQsMCQM4Emng615GUe/qaBPl1kS8GRjndbQqkvu++7yh22Xr2gjaqwP8bx/M9px023IzNnW53jWQmt14hsX2vqZEU391ixfC3jK1Vdf83dXXX3VxPe+9z0+8OO1E5vg+IYHh5P5XO69iUTiUlbpbdxkVeN/OH7tH1C/9m+xbwhVx6/9OxtV3GhnT3jtXyOTkagU/VuPB4PrzDTOshWnf2cFAoe0he94ELJSEHBJBhzM1ptUrSTOWMUqMkGHGzjHiGb/MQz+m9aY2HzxP7b71oN/5Ubwf1QSoImCwL8ok069LxlPpPjEmQDYlHQmdUkqmfqIlJ1ZBu6mD4q2Fn83VcPPKm6viiWkRKbYj1LS7QKiSVjcbmcwcJJr/7ZU1bqLtjIOmApu11PIOn4t4GEjUdUKnuNB44iXxnPxQV4LuM6Y3Z3n/kXXPi9XnhXXGCIYRBkDrRn8c84bvXZ2dYGnmUkAKaUMgviHA9+/gk+dCYAN+/znPp9JJZOf9AN/J1ujcfuXNL4xF6Lm+Pjel0igVBxC6HDhPw/AVSjhUixAniRg3EpxK708qekGHiwuNnO4xCw5fdapBmC/Eohpt68FDIXEc0E/JmNpDmpvnFVF6rYMcisBQNF611cr/ZMb7yIzaBtuZ6eT1E1+jL4f2xGPx+9/8JMP5vj0jx9P0BqPPvqoHBocfGc2l30gFuv8TDfqxw+WlMV/Gavie4sKLk+Ns1IgO3wKptN5WIfbfBAK92ECO7Hxs9gbPV9ljIFWqqu21cWhkREWP5MZlBzOd1YhEIdBxpMwDve/sozBB7BDLTi/Y6Gduilx1upJmSsTYSZraEuBqtEwTBw1vV35OWl1Gxso5faOlWYfAxBCSCnlDunJZ6+56urnn3jySfayNbgD4NhAMJsdTiQTvxaLxfrYGo17YSHE386HcHlt0wPQl8liMVtwOvgCgBuxhHPt4qaGyY0M+N1w7v9EzjHzuNHMOz3YaQCHjYDVbl8LaAG84Bcx4jOhviLqBTN78pk5+ay4iul6kGoiHfw73L84dLa2eY37wf+aoL2p/75YLFYMAv8TiXh8O3sCEwAn9PDvPizifnBfKpW63pWV9yhPKhdCg69N1jCt3f47pHwf3sAwFh2/9u90hLjFTiPY5F6K+t26dt0+1s3blxNW42Y9hdNszenfOWsFJpWB5/i1gEsyhmfiQyizIGAXn/vv7mdmDZ8XbabPsNhf64JTHsVpJWMMVMRqVTR7J0Aikbja8/0PfepTn2LMywTA8RX68udns9n7PM9LsjUaoy3w9zMhflrSTm/99wAM5/KYSBWcbs8kLG7DLHZia1Xt1xv8tdYwurvPM55iSniTmUESbgfXh4yE0eqk9R06OqGAwP5YFq8FhZ4vCMi7vyM4IbZbKTfehkkvNwA4G0BpbSIfpLravXhjSquD/wgmqJvcWaWUyVQq+f50KrWbveLo+IcAPProo+m+vr7fTKVSe4V071MctVoA4xWNfzNSxgHl9sCzLfChtp+OpcDt1f+LUMX77DiS0E3tR0br7j27vPYDAItBW8NrMoMx4bsbUKJegmFAAsrhYpRKSJRkgNPUAhJWoRfpHnl33A4fNhlsWAvD1X/acADVRQk+4eb72PTdOMykHRX8RzG/IlrQWYUQg9ZafcUVV3z3yaeeqrGHcAfAqr5i8cpUOvUB6Um2SaMTYwt8e6qGF2tufziTUiDZN4h5x68JTcLibZhBDmHjH9s1meAobg1rRN7W8GY9hZTz1wIKzGvjfJG9cS+J5+MDPbkLwC4XzOTW1YhNih1d/Sf3RmLu7mlHAiAq/1IG/21PAjQ5kSOllMlE4n3ZTPYqvnlMAKx66KGH/Hg88akgCIbcHSij8ybvX1L4+myI0PVr/5JJLPUNOb3SCgBXYgmX2Pnm9aPlRIBWCraHJjgSFpeYOVxtFp0e+BSAQwrOXwuoIPGPQT8meuxaQGstlO6xSuCiO56b+2f/uXrpQj/RWsNaBv+c10Y0+FeqK/Kczd4JEIvFBn3ff/ATn/hEnD2FRwDw+7//+/LUnTs/mM/nPu762f8oHANYUhb/YbSCfyhpp8efpBQobtuJiVTe6fbcDoUP2sPYgUrThkKL+tb/Xlzd8GFQEAbPygwWHR7+qhBIwSDt+LWANeFBQGKHWkAMvdGfemvrf/cEp2Y5+en2N54LmJ0NSA2MMQxM2xT8sxhni4J/fnJOFEMJKeU2T8rRyy+94pnvPf29nu6APb8DYLB/4JRsNvsx3/cLzg+YEUjpPTsf4jtzCi5Pjz0AO7I5TGeLTrelB+AGLOA8LDYv+LcWWumerVwuAJyt53GTmXf6dxoAB7WIREHA54MiDvn5nug/pmeDfwYb1P3Bk9Gs9N/Od7L1H3zRQ/1Xd1fwj/oOgBbsAsgnk6mPZ3PZU3r9HezpBMBDDz0EP/A/lEwkr47GiOn2z5uvGfy3yRrmHf+A5gMfun8YFc93+neehRputTNNOwter2asYayBsbb+z/JqRy9NeTxY3KAncbatOv07FyEwoQw8x3dqVIWHHye6/1pA22M1M44zG4vu5DhCZ/8Fi5h1Jvg3uge+g470rXa9jj0yVq/M7dhlNyYeD66IxeQ/ueeee5gA6FXbhoYvyGZzH5aejMxRCFcnn9oCfzddwzNltwchKQSKuQLG0wWnP/YpWLwFs9i2xWv/ju0zK9uWj+0/dnlybEw9KdAryYBtpoJbzbTz1wLuM57zH3YLYMTL4MWgr2sLAq6e+2dRsEg+O8vnRicIELXRMIa7etr+TrZrLtvlCTVt9PJVf90a/zd/F4CUUqZSqQ+edeaZF/Xye9izNQAee+zL6aHBwc8kU8nbhRCRSoS4uEJwqKzwb0crGHH82r8diTiq205DxXd3tVIAuBhlvMdOINXIYYpjVvnX/u9P9PG1WJtkEl377ZSw2GZreF1mMCrc7QsW9eTasGeghLvDtRYCizKOU9UCUjbsuv5itIbi1v9oPjsG/3SCINSY3trR48rnnMdxmhf8a627/2KTFnRcIUTB8zxx9VVXf+e7TzzRk9cC9uQOgIc/+1mRTadviMfjvyCljEXuw+XY2x4ai29PhXix6vZEKyUFEn2DWIo7XesReRj8HGaRw9bHpJUVS73FLcvW2tWjAt26KyBja3ibnkTW8V0AU1ZgThnEHJ+oTnoJPBsf7LpdAAz+ox3kRS3A4wkABv9dnQGI4DvpZPCvNbTSPXGraYt2AXiBH3wokUjc9OAnH+zJUbcnEwDZfCGbTqc/EU/Eo1m5yrr1U15cUPjWXM3pMEoCKKbSmC8MIHR4w4cEcD0WcYFd2NpwZ+1qobL1Vvk3lwiob6GtJwO6ayzYZeZxrVlweiAMAbymBGDcLvBjIPBC0IcxP9s9gYKxUIqFwdyKIDbRJyO6+s8kQAv7hDW9Gfw70/5s96YE/72WlG7BmBgEfjaeiH8ingxyTAD0gEcffVSkUsn3JFPJmyM9MXVkEF0KDf7nVA2joduDesbz4PcNYjHm9vWf26HwZswghc0He9Ysr/qf5BqjLe0IwJFdAbqLCgcmrcJtehLbHN+2vgCBGWXgO3439ZwM8JP4MCoiFvm+Ud9Fo2B4H3gk43/LlUY6Nvg0mpX+O/pOAmDTM/jf0qen+bsAACARj98Uj8ff+5u/+Zs9l3btqQTA7//O7yOdSp2bzWY/7nlegUNJgx9TC/xoXuGJBQXleCcfyOUxne1z+tsTh8XNmMeZtrSpYW6lyF+9EIxt07M/unBglOOZM8wCbrZz8B2fmRzQAkZrp2MwC+Blv4D9QSHy8zzNK/8iHuxFOXHDLQAtCf5ZD6LjXwgmX7bccvwmtWBY9Dwvl0omPxYP4ufff//9TAB0q+JAMchmsu9OJBKX86qdxk3XNL4+WcWC4wVd+oIAYd8gQs/tVckzUcPNdgaxTRymWL3ar0MTm5UjAnolGRDBfly/FnAKZ1m368CUITCuDGKOV6yuColn4tG+FrCrr1XqgeDUmIgnJjk9aWropHmDhxtPgsX/tj6maX6TWrULIAiCS5PJxM9n0+mgl9qzpxIAVphLE8nER6WUXXH7QScnONoCfzcV4icVtz+qgRAo5AuYS+WcDk4zsPg5zGAY1Q0/e91Akb+WJQOMieTke8iU8VYziYzDlSwsgINGItQK0vFUy4iXxnPxQZgIRjLGGCiluFIV6W8jgz068p1kf3DjA8YxdSvNxpX/Y7IAzQ+EpfQS8fgvQ8grmADoQl989IvZYrH4sSAITu22D1wnApH9SwrfmK2h7HhGdzCRwELfMGqOF/67CCVcZhfgnSyws1gt8ufqioaFjdwRAQ8WV+hZ7LIlpwdFBeBVJRA4vgugJiT+Md6PaS8VuTGVq4Xtn4A1U9RX/1ebmbsAGpwbsdifSy8wn8MWxzOu/B/Te1vTf2O+f0o6nfrob336t7K90pY9kQD4/c99TvT19d2QSCTeHcVr/1xT1RaPT9XwctW4vaouBYL+QSwGCafbMweNt9sZ5E9y7d/qqv9Jivy5kwg4ckQgComArK3h7XoSObj9sV2wArOhdr4g4GGZxD/GB6FEdD4zWnGlpRsCPwZqPR40GcNif869l3wWm/4eceX/+CNjC7KjUohYPAjenc6kb/70pz/dE4NvTyQAisXicDwe/EYQBAW+Oo17bl7hm/Oh89f+5dNZLOX6oB1f/b/FLuB8LK735Vy+8zW6FcnfUCvA0cnAuWYBN5p5uHxGKARw0AgYY5wPEV70ixjxo3HDjlkupElRDvxYZIx9YHnln01xoq9xR77/fC83114M/tdJAECgFQlS3/fzfsx7MOEH25gA6BLJROI9mXT6um4eLNplMTT4n1NVTCrHr/2LxZDsH8S849f+nYIQb8IMEidYdbbGQC1vSbbN6SzLd/F0PhmwMll3qSelrMKtegrbHb8WcNYKzCiNmOMJoXkZ4CfxIVSk7/wYqrhi2AXfwu45usEjAJv/ttWP7zBocvHZEIP/KIyPyWTyWj/w72ECoAv86Vf+ZFcmm/1FIWVXn+tox8RVW+D7syF+uKSd3iTtARjK5TGZLjj9zJKwuA1zOA3lN+QyW1Xkz6VreF2tFbDTLOJWM4O442tIB7WAVm4XBLQAXovl8ZpfgKv7Fay1UErx3P/mpl/O/SITkaNRTAK0KGgyLPbn6kfAuFwryqGXzFreWLHxL1BrdgFIKTPJZPIX//d/9s8uYAIgwr782GOpbD77oXg8fhmv/Wvc4YrGf5usYc7xwn8DQYBS/zCqjl/7dw6quMnOInZMALf2ar9eyZsf2RXQ+WSAB4vrzRTOthWn26wEgYPaIub4ZKG2fC3goufmbhzD1ZbIx/8r9UaoN4N/nvd39+U1rj8Xh25RYvC/yZ7coq7s+/4lqVTqQ7/16U+nurn9ujoBkMvlLk2nUh+UUjL6b5C2Ft+ZquGFqtsT5YQUyBT7MZ9IOx08J2DxNsyguKbwn4tX+3VqIr+SDOhUO/SZKm7XU8jC7Y/xhJGoKAXP8f4y5qXwbDAI7VjkaJaP2FDEx40uXP3vRLAWNcbWk+WWJ/4ZYLsYSTL4b/Ho2JrnJqUU8Xj8g6lk+nImACLo4d/7vUw8nnjAD4JTemecbd1A+/qSxjfmQlQdH8v7EkmUikNOVx73AFyHJVxmF1a3b69d9acjyYBOFQ70YHGJmcNldsn5goD7tUDMuF28LhQSz8X7MBnLODVeKqW4chjx4NTaCKwyRjMucTv4NxpGa4DBv7N9KjLF/zr4Gxn8N9qfW9Ohfd/fEQT+Aw/c/0DXHh/3uvEv9YVHHvGGt227O5vLfsLzvDRfiMYsKYv/NFbFD5aU0+uhWSmQGz4FU+k8rMMzp2EofACHsQNlYHn7YjsH/6gGPPaY4KPVjziARgYG/ygyWBLuDpUVCPiwyHkCxuF+XxExeAB2qAXEHBhJtFLQnHRFPf5fDjK69zkyP/XGL0G90j/f3Sh8tJlgPVnwr9yukeD8Z0i0ZAeQEEJIKbd7nnzpyiuueO7Jp57quofUlTsA8oXCUCKZ/Jjv+318PRr33HyI78yHcHmN0QPQl8lhPlt0OggCgBuxiHPMIqwxy1f7tXFcifjHePV4gG3ProBzzAJusPNOt4kBMGEAq90vCPhCUMQhB64F1Foz+O+O+KLrC79xF8DRT5yrpQz+uyX4Vwz+mxWst+TfG4vFikEQfDydTg93Y7t1XQLgc5/7nAyC+IdTqdR1fC0aN18z+K+TNUxrtweptO9DDAxjKRY4/TvPRA03mykIHS6fXWz/hLmbPqBHFQ5swZ8Rtxo36imcaWtOn8adtwKTykI6PuEqiRieiQ+hJDv3nhpjuPW/W8aArj37f9T0lg8aR7ZK872NSvxv+axOEvxbBv9NGiFbN0bGE4lrPd//J7/+67/edfFy1/2F+orF83O57Ps9z0v08uDSDNpafG+mhmfL2unAUWLl2r+8088lCYNbzQyG9BI/jE2daCwnA5a3hdomJwN2mjLeZGaQcLwg4EEjYSJwLeCBWBavBsWOXAtorYVWDCK65TtneuA5cgdAPdFjDN/baD0zPqsTBv+KwX/zx8nWDJSelPFkIvG+XCa7q9varKtqAHz5S1/KFIt9/1sqlbpL8N6/hl+I0bLBV0crOKTcHagEgO1BgHD7aVjy407/zotsGe/Ro0jazh2m6IWtk0dfCdZ4rQAJi0Fbwz6Zwajwnf17awAGFoMSThfB1EJgSQY4Vc23/V1QSkEbVv3vlol0rwSEvRz3GmNgjWapv4h9hLv9aE5DwT8TWS2YY4uW3QYihRgEhL3qqqu++8STT9S6pc26agdANpe7OpVKfkBKKfk6NDhJt8DjU1W8VHV7EE9IgWTfAOYTbl/XmYbBW8wUsrbGztXGj62xzdkVkLM13KqnkHZ4F4AFcNhIzCnt/LWAE14Cz8cH21qvw/DscEumXQz+29DKPbmcsbKri8F/1N7b+vvJVmbw3+5xsmXXAsp4PP7+VDJ5TTe1V9cEyl/8wz8MUqnU/UE8PsDXoHGvLSp8Y045XfhPAOhLpjDf5/a1fwLAVWYRF5k5dqwOBcZH1QrYwgdYwuJiM4er7aLTg6YGcEgDnuPXAipIPBv0Ydxrzw071lgobv3vlvi/5xIAvRgsaV0P/il6DN9NBv8d+Ry17oMUBH5/PB6//5Of/GTXHC/viiMAn/udz8nBocEPZnPZj3mel+RrsOaF2EJGbDE0+A+jFfy45HbmPSUlCtt2YCrl9tn/7QjxPj2Gbbbc8XJO/AAtF0JcaQex8U+GD4MiDJ6VGSw6PHRWIZCERcbxawFrwoMVEjvVAmIt3C5an3yFMNyS2jWT6d4LMERvPV+e92/xvLC1z4/n2xn8d+FQKaQU24SQI5dddtkzTz/9dOQfaOR3ADz88MMY2j64M5vNfsz3/QJ7f+PB0bMLCk/Mh9COd9zt2SxmMm7f9BiDxXVmHmebBdZydqyfb3ZXgABwlp7HDdr9awEPReBaQAOBl/wCDsZaey0gr/zrvgl1r+0v7pUjANZaGFb6j/YzZPDP4L+j8X/rBstYLJZPJRMfy2ayO3/jgQci31aRTwDkslkRBMF9iWTianb9E0yWNmGuZvDXk1XMOT5eFQIfun8YlZjv9O88y9bwJjMFz4VAjB+hE086rYXewHWCHixuNpM42/FaDktWYFwZeI6veleFhx8nhlt2LaDWGlpzG3Grp1ztfFc5me5OxhhorVpWyIuIwT+TAI2Kx+NXxgP/g4lEIvJp2cgnAHSoLspmM7/Ewn9NaEsLfGeqhp+U3Q4aPCHQnytgMl1w+4gCDG4zUxg2ZTc+SOziG0sGGANjThxoDJsybjNTSDleEPA140Ept4NfC2DES+P5+EDTrwW0xnAC1l3xf08nALr5YqN6gU4m6iL//TRM0PHb091jpZRSJpPJf6q1vjjq7RTpGgB/9Ed/lB4aHPqtRDJ5mxCCCYAGX4gDJY1/N1bBqHJ70NqeSKCy7TSU/cDd9gZwkV3CXj2OpCOHKfgx2nxwijU7AlbeIQlgyNbwqsxgTARO/x2UBbZ7BqFwd6jXQmDBi+PUcAEpGzatrytW/e+u93E5OUfdNMba5Vta+Fy7JQHQ6+o7WXiMxYlJeOviqZznefaaa675zne/+93IXu0V2aD5kc99TmRSqRuDePBhKWWMvb0xNWPxt1M1vOj4tX9JKRDvG0Qp7natxwI07tBTyPHav8gnAVaOCKzUCrAAMraGt+tJZOH2+zJjBWaVaWmRvWaYlAk8mxhs2i4Abv3vzol1T89nu24DwPJ5fyZ1uuNpWi4yMPh3Kf5v6S4Az/f9D8eD4Kb7778/siNzZBMAmXyhmEylPhmPx7Ps6hsZnO26Qc4L8wqPz4dObxOXAPpTGSzl+xE6vOHDA3C9mcd5doEdr8veobWFA8/V87jWzDu9jSoE8JoSQAS2177gFzHq5xoegxj8d+e7x0l1dz1PBkrd9lB7O5HD4L+3kgBBEGTiicT9mVS6yARAm6VTqXcnk6kb2cUbtxQa/M+pKsZDtwfwjOfB7x/Egh93+nduR4hbzDSSVrFzdfEENmlqeLOawJDjuzwWIDCtDALHJ2jzMsCPE8Ooyq0X9rSGgUWnplqtnlxTd9QBsMaw0n9XfhMZ/LNP99Z4mYjHb4jH4+956KGHmABoh0d++7fxZ3/6p7vSmfTHPU/m2cU3F7QcS1vgB3MhnlzUcDlc9QAM5POYzrhd+C8Oi1vMLE4zS7z2rwecphdws55F4HiJxYNGQGvtdJ+0AF6J5fG6X4Ddwi9dqbrMYLH7vlucWHdLoKShjWalfzfCI76jDP6ZBGgkLvG8fDKZ+HhYre5+8Fd/lQmAVssNDcWzmczPJxKJS4VgiNWoqarG30zVsOh48ZZi4KNWHELNc/vav9NtFdfpacTAIKQXeLC4Xk/hTFt1+neWrcCYMog5fhSgJiSeiQ9haQvXAmpdDy4o0rHEcSfYFG31Yn8sytm1z9cw+CdXP02tjRODILg4lUr9fDKXi0etbSKXAPA877JkKvVLUkqPXXsLA/WagUpbi7+bquFnZbcnzXEpkCv0YT6VdXrdIAODO8wkBm3F1YfPF6AFBk0Zb1UTThcEtABGjERVKUjHV9/GZQI/9YrYzH6FlYkYdVcWgKv/x7RwBNc8rLXL1/wx+Hfvq8B3dKu01rzqLzLjZmsLAsbj8X8qYrHLmQBooUe/8IVcNpf7Vd/3d7JLNz7071vS+OZsiIrj41d/IoGl4hBqjhf+u8Qu4WIzD8/FAIsfqRY+e4tL9Sx2mSWnB9QQwKtawNfuHvaRsKhpjf8l+zAmN3bThzUWKuRErBsxaIz4PMPWV/75blK3zJyNMQhViDAM68dZ2LfdTwC0eBdALObvTCWTv/rggw/mojV3jYgvP/aY6B8YeGsmnf5MLBZLs0s3pqyBvxqv4olF5fRm9YwUSA/twFymAOvw8kcfFN6nx3GqXXL0s8UrelopDo20sPiJzKHqcKJKQSANg5QnYRx8nxJG4ZUQ2AcfOVicYxbXTahZa6E0z/07MstqbvBvLa+Ii3Twb2C04Xn/Ln9he2X7vzEGavmGmZW5lNEGxpgj6yui9cEmufF9OupfLYQUQp7uSfkPV199zctPPPlEJF6KyOwASCSTw0EQfCrm+0X25MY9txDim/MhtOOds5DOoJwtQjsc/EsAN5p5nGN47V8vO0fP42Yz63RWVQEYMQLauFcQMGYNpkKDKVv/Zd+VBbzmrX/LK6/86+IAksH/iSabkQiWtGaxv65/R3tg+//Kiv+xBWbXBvrW1vu7VhpaGy62OBn/t3oXQKzgB/6ngiAYjkqbRCIB8PnPf14k4vF7U6nUdSz817iF0OB/TNYwo9wepNKxGBL9w85f+3eqreFmM4UEGIj0spRVuFlN4hTHrwWctQJTyiDm2LWAUisc0lh9iyaEj7/1BlASxy/8aTTP/XftpJtn/6P77LSGYTFO9wOiJkylu/kdNcZAqRBKhfVV/g0ks1aOvCiloJfrXnAYc6nPi5a+T8lE4trAj9374Kc+FYlANRIJgHwutyuTTn/Y87wMu3BjtAW+PxviRyXtdLjqARjO5zGRcfumxyQM3mxncYops3MRdpol3KxnkHD8FogRI6AdKggYWIMJDcyt+SRpAP8gs/hHmYM5Jnu/svWfQWJ34up/BJ+ZtfWgx/LZ9cgDRzdu8DB2OfDXCtqYE/8VxckTCPUdagqGNwW4kQBo8S4AKWUmmUx+OJlM7opCezhfA+CLj34xXSwW7k+nMz8vJJf/GzVeMfjzkQoOOL76Pxz4UNtPw1KQdPp3XmAr+Hk9ihSU88+eH6DWkwD6bA2vyiwmhLtXVioIaAD9UkB3uGaBhAW0wssKCI/5QFchsCQDXGQWkFxJWVr7hu2Y5M4Uq/EJOM/+t6Odm/1tYbG/Hov/0V3n/1cC9g0nlu3Gi5TW3481xwcYynTt0CmlHLbWlq688sqnnnzyydD1+arTin3FSzOZzH3Sk3xjGqQt8O2pKl6quT25SkiBZHEAc4m00wnmJCzeaiaRd3zL90rQRO3RZ6u4TU8i7fgugEkjUFYKXof7hmcMRpVF+QRf5pdEAk97/avXAmpjYLj1v4uDCgb/kXpm1jD478Xn3iXB/9Er/hv/rljYTQeTq0kGpXiDQMfi/5bvAhCJRPIDqVT6MtfbwukdAA//7sOpgaH+h5PJ5NWCKbOGvbao8OeHa5jRbg86Q8kU1PbTUPLcXUGVAG6yC7hdTyCIwNl/fmja+YEB+myIwzKFQyLubBLLAAgtMCQttPQ61lYqDPGcPnEuWkFgVgTYbZeQ1dX63cvsZu52/gbHKSYAohQEmk0FTdQlz93ayCcA7GZX/I8d6oQA7NbnVtwVEN3v1AaSABljTf9FF1/8355++mlndwE4mwD4g89/3hvePvyebDb7q57npdhjG7OoLP6f8Sp+VNLOX/uXH96JyXQOcPg6lW0I8T49hmFbjsSlL0wAtFcAgwwMnpNZLAl386w1CMRhkfVER27aSOgQryiL0kneoiXhIWGBM2qz8BhwdGdQAa7+bzz46PymLmM0j+H0cAIgqlnYlVoV2jRer8Ki8WKlKzcp1P+pv9tMBrQ6/hctvaFECCGklNs8KV+96oornn3ye99z8m1x9ghA/8DAcCqV+pjPa/+a4rn5EN+ZD50+qR4DMJjJYjZbgHU8rL7BzONssxCZ4J8JgPY7W8/jBjPn9G/UAEZ1/Tq9dhcE9K3BjDKYtSf/DCkA3/UKeFVm2bEiML3a0jhleH3WZpMAHfmewDL47/F3NYrBv7EGSiuEYdi07ffN3E6+eoOAPnKDALVy/Gz9tYCJeOJj6Ux2m6tt4GQC4OGHHxYxz/tIMpm8ht20cfM1g/86VcOc4+NJxvchBrahHAuc/p1n2Rpu0lPOVFAnNwUwuEFN4ixbdTpRtACBSWUg2xh8CQDaaOzTYsNJyRkRwzfjw1iSATtXl8UUFtylFAXW2uVr/hicdEcQtLU+EKV31S4XjV25ms+6Pm+zR9cKYH2NVn2mWj8riyfi18Q87yO/8Ru/4eQU0MkEQCFX2J3N5d7neV6c3bQx2gJPzoR4rmycD1cHc3mMpQtO/84EDG4x0xi2FXYuOqntpoxb9LTz1wIeMBJahW37IMSsxnSosbiJj7AB8LyXxT/6/W+4FpAiHlhy9X9LU9i2B/8MRviuRuTsv7UGWiuEKoxswb36cQUDpXU9ecHEW3NHUNHygoBBMpW6N+4HF7j493fucOq//tf/OtPXV/ytZDL5DiGEZBdtzEhZ46ujFYw4fO2fALA9HiDcdhpKftzp33mpLeE9egzJCFz7d+yHhNpPwmIQNRzwMhgV7q5cG9SThYOehWrxsCsAaKXwshZQmwxiakJiUQbYpeeRtiE7WBcEpzz7v9XJa/vqAFhrYLRxf/WUWtwR4PzuD2sttNFt2Ubfzt0Q1loYa4966VkroNGvlGj5mCaE6IcQuOqqq/7uiSeecOrKMOcC7HQqdV0ikfiglNJj92yMtsC3p2t4OQLX/qX7BrGQcLvWYxYGt+lpZKNw7R85I2dqeJOaRMbhXQAWwIQVmFO65dcC+kZhVFts9WDEq14KPwiGuAugW2IKrv47bWU7MoN/stbhb5i1R1b8dXtW/EUHvkFmpYjhyq4Ajp2NBuitDbKl9OJBcF8ynrjOtb+7UwmALz/2WCKTTn8iHo8X2C0bn9C/sqDwzbnQ6UvqBIC+ZApzhUGEDm/4kACusQvYbefYuWiTfdziQj2HK/U8XN7SpAEc0IBnWre7xbMWJaUxbrZeQaMKgSf8fhyK5di5XB7YN/id4gS2kclrSyOq5fP+vHWDVruEk4G/Wg78VZsDYiFEx1bhV64RVFot1wpgInVrn6rWP78gCArJROITn37wN5Mu/d2dWWX/vd/7PTkwMPDBXDb7K9LzEuyWjVkKDf6/41X8pKSdzttnpERh2w5MpvNOt+d2hLg3Qtf+He9jQZ0Tg0EfNJ6VOSw6fC1gFQKpFl4L6BuFFxTQ6Fu0JDxIIXGumocPbh+PbEDBSWvD09dWBhcur/hS++cQLp3/XxsAd+xYgnCnJsLqVYKwEBA8HtD5YfSoP0FIsc0Yc+jSyy595umnn3ai0zgxE/385z6PwcHBM/P5/GfjicRZ7I2NMRb44WyI/zhZQ8XhuZUEsCOfx/TADiiHT3wEsHibmcENEa38zwm2G9+Xgq1hUcTxvEw7/VsrAIaEAaRs6nWcgTWYDBtb/V/t0xCYknGcZUoY0iV2sCgGFODZf1e/Fyz2R8d7YV3oE+0847+h3+NYUcSVxMjayYfgcbmTzM9aXwtASpkQAjskxDeuuuKKmaeeftqJGKzj8oW8TCYS9yYSiSvZFRs3VzP4n1M1zBu3C/8VAx+mbwhVz3e6Pc+yVdxkpuBxpZEaGmwtbtCTONNWnf6dJSswpgy8Jk6uBOrnFseMaNqRpHnh4dvBNpR4LWA04wmu/jf+XjV5Xm+tYfBPxw3+Ox1s2+Wz7+084x9lK7U7tNLQHGs3lARotXg8fmUQj9+bTKWciL07/iMeffRR1MLqJal06peklKz63yBtge9M1/BMxe1ze54Q6MsVMO34tX9pWNxmpjFkeO0fNW7YlHGbmkLK8YKArxsPoWpeLYCYNTisDOataOrv/JmXwQ+CARYEdHRKtd5knhNSt5IAdqXYH58L39M3jLWd6xNrA3+lFfvnFtrPaA2llDO7JiL6GjQecEspE4nEL4VaX/KJT3yCCYB4EM8MDw9/NAiC09gDG58QHyhpfH0mRMnxd3w4HsdM3zBCh88pSQC77RIuN7PwWAGZmsCDxdV6CmebkvMh6+taIKnDJrxHFqHSGDHN/9yUhMR3gmFMeil2rohNSjmRd4cxGprF/uhE72sHdpNGJvAXUXrP60k+Fg083mMUbdkF4Pv+aYV8/qPpVCrT0wmA3//93xeZdPqGIAg+JKWMsQs2JjQWfztVw4uOX/uXkgLx/kFU4kmnf2cOGj+np5DjtX/URFlbwzvVBLKOHymZtQKz2sBvsBCYbzT2KaBVBx9elkn8Pa8FjMzE+A1nVKnBdt56v7eon/fn8+Brul4g3s5AMWor/lEstrfSxtwVsMmXoRlBtxSxwPc/lEwmb3jggQc62nk6mgDI5/IDiWTiwXg8nmHPa/CFBvDcvMLj86HTv1MCKKQyWMr3Qzl87Z8H4CYzj3PsAjsXNd25Zh7X6zl4Dv9GBWCfFrBGb/m76FmDBaUxY1v7nXvS78MBP8+OFZHJJ3V+zmpXr/nj5L+354725JNLBv5dlQBYi7sC1o6lol3XAmYC338wEcT7ezYBkEjEfz4Rj19fz0BrbklpwGJYL/x3WLndftmYh2T/IOZicad/5w4b4hYzhZRV0e8cfKeck7IKt+oJDDu+u2TeCkyGBr7d2vZgz2js1wKtfovGZRyPB8MoC5+dy+Hw1FoLw/HIgU8Ci/3RhrIDLb8KcqWqf1TP+HdLhf037Aro1StA2/Q4E4nE9fF44j2d/Kt2ZAHqs5/9LN773vfuzuWyv+vH/NOxcn+lNYC19erAxsCa+n9/ogCG91zWaQs8NR3iP0+7fe2fB2BHoYjp/m1OX/uXgME7zTSuNDORvPbv2OCfE243ZW2IqgjwkkxBOzyJKFtgQFgIT27q6xhYg/HQYNyIlr9FFsCEjOM0U8E2XeJhAEcnU8ZaJiQ7PGs1xiyv+vM50Pp9x8K27Pz/ylEgpVXkd6F02y6alWMfa599r8Rb7bgSsN6eMi4ldl59zTXfOffccyd/9KMftf3v2pEdAIV8PpFNp9+biMcvObZPrXa85YTASqZaawWtwjX/KGillrew6dWPWi9eLTRZNfhf0zUsOD4GFQMf1b4hVCJw7d+1ZhqxLrj2j1M8d3mwuC4C1wJWIDCmLWKbKBImYaFUiDGNtr1FS8LD38WHsMhrAd2dVHK7eScfAFZ2W/LLQBvqMi0I/i0Q6RX/NwZy3frw1+wK0L21K6AdyQ4hgCAILkklk/cMDQ0lOvH37EgCwPf9yxPJxEcau/bPriYHjNYwWsGsdNKjkgUKWtcTBfWEgj3qn6hTxuI7U1U86/i1fwkpkC/0YS6ZdXrqkYHB280UBhwPyjYz6SZ3DZgK3up4QUALYMxI1JSGt8H+JIzBuLJYavNa/PMygx8GQ9DgjbKu4U6kzn4Hjqz8E20ggG3y67oS+KswhFLdc51fTwxrdrlWgOqNWgHtOtYhpZSJePwjfsy/rBN/z7bvw/785z+f6+/r+5fJROIGIdpRBa6+5dAedbRgzfECLG9zsrY+Qq3Zouj6lhcL4PUljX9/uIZJ7fbLOJRMIhw+FUsxd1fnPADX2EXcrg8jge64EokJALdJAEUb4qBMY1TEnU2OGQA1CwxJC32S4zsSFjoM8ZLx2p7WUEJgQQY4Ty0gY2rgKTGXAlCORa0M4k401NvllX9+C2iz72wz+ky97oeBUvXdJ7brdp/03pWmRxZRAQjbnccD2vRXEkJmrbXpyy6+7BtPPf1UW1ce25oAeOyLj8n+/r63p1Op34zF3Li4+XhHDurJgCNJgpX//fE+um3tKccoKYv/Ml7F00va6c3qWSmQGdqB6UwB1uGBYhAh7tXj2GlLXTVQk9vi0EjD4Kcyi4rDN2PUIJCAQcaTMOu8x3Gt8IoCFjs0Ls4JHxkYnFmbgzzOrq+2/9PUOYhYnXSu++1xbJjl2f9OJl4Y/NMW+k6DCTsLwGgNrTV0Nx87EWJ1u3wvji/W2KOSOt2SDGhfLQAhpZA7PU/85Oqrr37piSefbFtHirWzQRPxYDjw/ft9P1Z0vFsvz1XsUXMtC3NkZrWmj0shV7MB4pjsQCtfhucWQjw+r5xeq/YAFNIZLGWL6wYNLrjBzONsw2v/qP3OMQu40czhv3v9zibzNIAxLZDXGiJ2/PKYMWswqQymbecSGQbAE34/LvCncXZt2oVZEqJW1/qYz1jDgYTW9ZU/sc5k6+SJC/GG/5EbPNZ5D8yaBQ2izQ1ZW+43Kyv+WpuW3yDgTg6gt0ciayw0NIQQkFJACNkVbSKEaMv46fuxou8H9/tB+PcARtsZn7XF5z/3OZnPFz6WyWbuk1J0VZWmo3cPLP9j1uwisKb+3x9nIlh/Rzb/oszVDP79WBUvVY3Tk8uUH0Nu205MJbNOP8PTbQ33mDH0d8nZ/7V9k9znwyBvFV70cpgT7t6QUYVAwhpkPQFznN0Kng7xiqr/5zr6O4WEETGcr+a2fIUhNWf8UeFyDR5jT/jPyvl0YwzM8nGBo/4zq99Ye1SF6hP+84adGMv3na+t/2Nx9D9v+DDbiF3xJdYE/5rn/amBgG4rfcdCL98pr3ut0KTlXGvtmG/W3iAgontRYrt2AQCA53lDKlTTl1526feefvrptvyhbdsBkMvnd6XSqQ94nkz3yoiwuovAHjsUijdsJBDH7iJY/v8cL4umLfD92RDPlNze+u8B2JbNYyJdcPpJpWBwm5nBDlPm6E0ds9Ms4WY9g/HYICoOF7EbMQJFpSB9CbPm0+5bjcPKYsGB364h8Iyfx2V+Hy6tjkf/Os9ozgShla4HE+sdUj/O/x2ODR/sG/6b4/xPm42VxUnC6I3/O47+TIs35hIgVn/tUdPhzf1hx04f3vDnWMvgn9of8K1Ui+/Zu+PpDWO4hYXW9YLAQkpIISK5K6BduwA8T6ZTqeQHqrXqXwN4rl0xWst96QuPZvKF/IOpVPJuIViW6cSD6NodBGb1bM1qDYLlFZDRssafj1VxULk9qd0W+NDbT8NSkHD6d15ky3i3HkUKqiv7FUWDBNCPGl73shgX7l6VqSCgrcWgB+jlXQASFlqFeFULKEfy/VUhUfIC7ArnkLSKHazN6jfydPHuizVFg9etAbFSS+h4ux2O98+xOyCO3f1g1vz/P+bPUiqsH7ewRybhKzsP7QmSCpyR0dqU0kq/2ghj6qv9K0d8enoOzyKn685D1yYloxQGtnMXgJRym7W2cuUVVzz15FNP1Vr957VlB0C2kLs8lUq9T0rJT80mZxhrBxWL+ur/41MhXq65nWlNSIF4cRATibTbRxRg8BYzhZytdV/vsZYJgIgpmirepCbxkr8TZYd3AUxZiW2hQiKQ0EJCao0RZZ3bufCKTONH8WG8ubwPku9C2xhjYDRXA7c4cK9+70/w3xznf6oXWlTqyHXHYlNFEsTqToWj/+uRSfDx/13ixAmECG/97fFZ50n/E2alroc13Ft1vJeRTvhdWPmvUtbrBEQhGdCuXQBSSpFIJt+vtP6vAL7b6j+v5TsAPve5zyUG+vsfTibiV3H1v3H7Sgb/16TCrOMLK0PJJGrbT0PZ853+ndfaBfycPowA3TlZZQIgWgSAPhtiXKZwyPFrAUMLDEsLIyVCFeJF417tAiUE5rw4dofzyJgaO1ibAlgVHueeb37+W0obvXzVothCRGLfcCPSSXcqGLN63KD+z7H/d/WdD+a4/64114hhbZ2GE0/AqZUBzuqru+75f2M0lOaK//ESAJxrbX5uaqxZfeldfsfbvAsgY40p7tq9+79+//vfb2mk1/IdAMODQ+9IxOO3CuHw/VYRoSzw9KLGWOj2QJOUAoWBYRz243B5/T8Dg+vNHFLcHkwOSdkQ1+hZvChSWOpQQcB6GLH+u1sDMKMMhkwFz2iHaxbIOJ71ixjUS/B4RrXlkzqtFCfDHWr7lTe3XStWR/7clUB+K1NrbHinwpEgQRxVQHl118KRf+0Gkwc8BnHMwzzu/85YrvifrF+2853rnv6G1boRxhgIKSAdvUGgXc9XCCGDILi1v9j3DgD/OdIJgGJfYYcnZZE9vXHaWMyF1ulr/2JC4Px8HsViEQO+21/VtAUGjeI2RXLrQwOgWJ5DvmIA28nA+uQfu1rMw3ihH3Ne0tn2VBBY8AIYCHjsXi1ltD7x1n9rOUluVbsfdd3fSjtv7B3udASwmZ/ZSN85KnlwVJJAHLew4tog5OiA5I1JC9Eld1KaY9rXGLO8s4SJ05N+tKmxkcBaWG1hhIVcc52gO4+4rbsA+lKp5Cktj9da/hfpkvsgnQiupcBAIOCL+vZbF2UTcVSGToGK+bAxt7f/V+FhXiVg1fxJVzuJ2hl2H1io4LXpEpYc7paeEPD6+jEnA7eTkrAo6Ao8vuMtDv7rV4CdvHdT8yfPRwfHlsmWdZIHm0s6HBUCiM39Z964Y2H1/8e6CYet//kNts/yLhJjLLSp3+DBHkTtHszq1wgCkGY1hnQhjmzHmLqyi64df9uWJwAWlxZrqVRKxTwvxp7d6IQbuC7r4TtzGi/X3DuBJYTAYHEA++IZCG2w3dOoSXfX3GqQeNEv4OxwBmmeDyZHzIUWTyxZp4N/AMgHAWz/EMrC7XX1U3UZF4YzkNz+37pJizHQSp00qGI82hrHW6Fd2RbPJEDTevkG+q9tuI+vTRoceY7H+5+PlzQQ6//nV/6/4njvsF2t66C54r+FBwfmN5v6tgEwFhp6NQGwUjiwc4+4tbsArLUIwxChUqpULkf/FoDpmdmvB37wo5jnXQVulGnY9oTE2/IeDk4qlB0abASAU9JpLOT7YQGMGoGi0ogFR98V7pr9sSxe8Yu4uHqYuwCo45QFvr9g8WzV7b7oCYF8/yCm4mmnf2faatxSPYw+VWLnauGkRSvNQLNzYWn9muDjPBdGJdF8n9aEQFurqyCOP0d7Q0ZgTeS6cm0newu5+E6sFA0UEB29QaBVuwBWgn9jjFVa/2hhYfHrrf67tPyAxfT09OsLC4v/XmtdZjduwgMTwHX5GC5KuFV0KxnzEO8fwqIfBwBUIDCmLYTj90ArCPwkGMC8F2fnoo47XLX42wWDisOzMAFgIJVGLd+HmuO1XXfpRVxam4DktLZljN7cGWEeCWzyxNGst+pswfrLPdcjjrnRYSV4Wv7nODc5KKWWK/tTA81ObWhju1yQcuWfdieeW3G5qbUWSql6zQ2ty5Vy+d8tLi2+HvkEwD//5//chmHtL0rl8uNcIWiOvkDgjqKHfs+NiZQUQH82h/lsEeGal2PMSpSUcv7+7QkviWeCIagumyjxfYuWmgH+ds7gldDt35mIxZDtH8Ssn3T6d/ZZhTdVRpHTVXauFgb/Wm0uyctxqcnPwJiTRh9MutCJ38d6H7KWW3QbCgz5jrV9fmuMWU1eGWPaVqSvmc96JfhfSWZUq9XHldZ/+ad/+qct/8u0JeJZWFiYrFSqf6SUOsxu25yA+5Ksh8tS0omq1pmYD79/CIvy6BMlBsA+LeFptyMaBYHn/CIOe2kmcakzHzMAr5YtnlyyqDneCQczWUxmi84X/rsknMHZ4SyP9rQw8Nxs8M/JcvPHjZNPei3bm9YJQMzqFZLMzTEBENlv0XIyup7Mam1HbtYugLXBPwAorSeqtdofLZVKk22JJdvxhzzwG79hRsfGvlEqlf+HMYaXrjdBKibwzmIMO2KdHXSkEOgv9mE6kT3uNGQJAhPKIGbcPgowKwM8Ex9CTbBWJbXfkgK+NWcw4vZrgrzvQ/QPoeZ4TdchU8ObKmNImJCdqyVBQ2Pn/rkLoEnPYXkb90bamwEKvaFf4OgCkpbJUiYAov5d0hpKKyjd2mRAo8977VGG5f9ZVavV/z43P/+NL33pS22pwtm2Pc+f+cxnypVK5dFaLdzHbtocZ6QE3pTzEHRqwAPQl0hAFwdRPUG1fw1gzEiEWju/EvdqLId9fp6fQGr7JOyniwbfL7tf+C9XKGIxlXW6sKcPi5uqE9iuFti5Whb8K9hGK4VzwtyEscNuorkFgxQ6uv8Y+4YAicm5BibE5Mykyq7sCtC6fqVlk/t1o7sAtK7X3lgRhuG+MFSPfvnLX25bvby2HnpeXFx8tlwu/xutuQugGRKewK0FD2fGRUfGHl9KFPsGMBNff+v8IgTGlYXn+C6AJRHDT4JBLEoWBKT2malZfGPeYt7xm5cKiQRk3xCWHL72TwA4S5dwZXUcvtXsXC1gtIHRvCas43Nca6E38RyO3ApAtPwu87o/JgF6YJw02kAtJwPqtQKa9Li3mFBVSh0V/BtjVLVa/TflUvnZdrZNWxMAn/jkJysLCwt/Wa1Wf2iZZmyKbQmJt+djSHegft1QOo2ZXD82ssl2wgpUQ7cLAloAB2IZvBwUoaM+klvLS7cjILTA0wsWz9UsXJ6KBUKg2DeA6cDtwn9pq/Gmylj92j9rWZm5BQGDadLNLpwrN+urtbn/PG8FoPq7fPzrI1eCJqIuywSsqRWgmnI8YCtLr/WVf732XbNhGP6wXKn85Rce/UKlaxMAAPCxX/3VV5aWlv7YGDPHHtmEByiAawseLm7ztYCZWAxB/zAq/sYOIFQhcNAIwLh/LeAz/gBmvWTk+wY/4e4bqVj8zYKB47v/MZDOYD7Xj9Dx4OECNY+Lq2uv/WMirGnjibHQoWpacMAgo9EAbusTWB4FoBMF/5w/bD3ApKg8qqOvEjR268svmxlLj2z7t2u+q2auVCr98cOf//wrbY8fO9H4lWr1r5ZKpe9wAtAc+ZjAHcUY+tu0M1cKgVwuj8VMAWoTGbBpK1EKFTzr9razKS+Bn8YHI30tIN8s94UG+M6cwUHHD0SlYzGkBgax5AdO/86Va/+Sxyv8x90ATZgwqeYH7QxEt54A2PJ3dKUgINu+Z99nY0++/Z/z802PZUysRe+7trIrQG1xV8BGdwGsXFm49t9vrUW5Uv1OLVR/1Ym/f0cinPmFhclqtfZIrRZOsQs2IyAHLsxKXJ/24Lfhz8v5PpL9Q5iXm8s4aAAHjIRUbkc8CgLP+0WMxrKRjRmYXHP8+QB4qWTw3ZKFcvxRDWVzmM30OX0sJgaLa2tTOKu23rV/TAJsOdhs2bl/PpCtju+NjPH1WwHYjj37Pm8wecR5xGZzAHypojohO3ZXwGb6/smeuzEGYRi+4d+plJpSYfhIuVLuSCzckQTApz/9aczOzHy/Uq3+hTG8p6kZkp7A24oetvmtHYBiQmCgrx9TifSW/u8XIHBQW/iOHwVYED5+GgyiIn12Lmr65H2upvE3swaTjtep6wt86P5hLEnP6d+5Q1dwU2UUgT1ZcpFHAjYf/B+5qqgl8T/nzFsK4BoPzrhi2avfH2s4BrYkAcDBrCveD2NM/SrBDe4KWO+5nyj4N8aGtVr4F0tLpe9/+ctf7sgL2bE9zp984IHS9PT0l6vV2uvscs1xRsrD7TkPrZyq9yWTWCoMorLFSuAGwLQRCJVac07XwUEAwEuxHF73C+xY1JSPitYaKgwR1mr48bzG0xU4XfjPFwKFYj/mk2nn12lvrk5gOFzYzAPh4vNGmskYaKWZNHFuPGnWV44BS6+pV0G3m+hrfPc3kQGgrhlk18zbNlAr4HjJ1BMF/wAQhuHri4tLX/7CF/+w1Km/YkcPOXvSe7FSrX6J1wI2Z0IgrcG1WYELWnQtYMLzkOsfxEKQaOjfswSBMQ3A8StoasLDT4IBzHsJdjDaUtBvjKkH/WEIFYbQWmOqBnx9UaDq+Lwqm0xC9w1tOdnXrvnWhWoRl1UPr7P1f90vPDvqOh8VrXQbAgDOmjc/rjRrRwZvBei1vrOV95lJAOr1b+HJagUcG3WtzP2O9+4YY1QtrH1RCLzYyb9WR0f+6dkZtTC/+FeVSuV7HGC2+vmuX+eycmZlKBB4W04i04InO5DJYDHXv6nCfycybiUqYej8LoBRL40X/T5oTpJog4wx0EqtrvZrrWGXk13KAt9bEnhNCacXoH0hMNA/iAnf7dswslbh1sooCrrc0MeduwHeSCndnnvCreVW9E1+l5o9X2L7MwGwoY5HbKMef77r1QpYGUdXCv6Z47xr1lrUarXvlcvlry2VSx1d/O7o0s43v/lNXHX1VbOJRKKcSCbe7EmZYg/bTKBRP8t1dAcEBnyB0Qrweti80SgXiyG9/VRMJ1KwTUgAGAAKwKCwMA6fLzYQmJdx7NQLyESoXAUTam1t7HoibuV+Wa1PeG5sf03gL+Y9TDu8+UUA2JnLYWnwFFSk26v/14SzeEvpAHzo5vwbGQfVxz2t61v/2/Us2e4bpo1uSQKAn4yu/0w1vHOEiaINtDPrK/TQO2WPqqlRH0ft6i6B48dtZmppaen/nJ2b++5XvvKVjv7+ji9rPvTQQ6hUKn9VLpW/ye608U6ntTlhkJGOCbylIFFo0tP1hECxUMBiKgvTxBnyjJWYURrS8WsBZ2WAnwXRvhaQWvUeaoRKIazVTlowRlngO4sCI44X/kvFYvD6hrAQc/vav6JVuLEyirhtVmKORwLqE1jT1uB/JThhFmDj404r/p0M7rq93zReOJILC+sTLKzZk+OxsUeOB6hQrbtzrlKtfjMMw7/64z/+447/dicimsWlpdJSqfylSqU6ye60/iRJGwtt1t/GJQDsSkm8JSObci1gJh6H1z+MRRlr6t/HADhoBITj1wJqCLzoF3AwlovEDq9Gr4iikwz2a4r5qTCE2cCVMRbAi2WBpyvS6T4kAQzk85jNFpwuUBiDxfXVCZwezrVmoLW9279VqDo0fnDMOuk3s8VjO4OXLu47jtdc6pIMAPUwrTS0PnE8U6vVJmu12mPlarXkwu91IgHwW7/1WygvLPygWq3+G14LeKLBu16EwhqzoVWqhAe8pSBxaoPXAnoCGO7rx0SQbsnfawkS4xG4FnBR+HgmPogyrwXszaB/5Vx/rYZwuZjfZibiCwr4+qLEjONzsFwQQPQNoeR44b/TdBk3Vsc2cO1fA8FoDybR2lP0j7PnrY9FpoXPh7cCdHPw36x+w8WFk4xiTKL1ZvB/nJoAx7yDYRiqr1ar1e8/9thjTvxmZ/Y0//oDnypPTU39ca0WPseutHawxbrb/ddzalLiLVm55UIPAsBwOo2l/ABUiwY1C2DMCFQicC3gq7EcXvWL7JQ98uLZ5UIuq6v9JyjqctLJlwWeKQv8uCbcvvZPCvT1DWAmkXH60cStwU3VCQyFi+0ZgHtkvquVhtG6o+8cnaSJWn6+mLcCdF+nacHqv12ZIRKRNvXgX4jlBNlxvmVKqecWFha+8sgf/EHZld/t1Ej/6/ff/8rCwsJX9Xp7KHoo8F9b3X+rAfx1eYkL4lsbqBOeh1TfEOb8eEvnwBUIjGsLod3eBVCDxE+CASxIXgvYvRPs+lmucPnqPq1Uw5OnGSXwrSWJssPxjQBQTKZQKw6g5ngAsEsv4pItXfvXwGy3y4NTY0xng/+VfsjVs3XmBBa6TTvl+By6q980e9W+XvaWCTui+rfTrAycq+/cMf8ZVS6Xv/rIF/7gFZd+u3MzvTAM/7JcqT7ey4sBZnnLcTOytgO+wM/lPeS38KQHs1nM5/qacu3fyYxYDxWlnM8pj3tJ/Cw+wIKAXTZBWj3XH4b1c/1N2jIZWuDxRYFXlNs9OyYl8n2DmPSTTk/rClbhlsoo8rrSiY7SvYGlUk5s7eX24pMFXe35k+oJACYBuiVAad27yj5CvRyrmeMs0oo3fMdqtdrjWum/dO33OxfFTExNjS8uLv6JUmHPFQRc3e6vm3deSwrgqpzE5Um5qaE6GfMQ6x/GfJML/63ngBbwVc3pZ6Qg8bOgH5Meb6yMfNBvzFHF/BrZbXP8aTRwoCrwVFmi6vjq/45sFjNZt4+3eLC4OJzD+bXpzh0X6rYjASvBv0tXV3H1+fiTzTbu0OCtAF30nWvhLUvWsrAg9e67tV7NHLuceFNKTZZK5T9ZXCiNuzencsw3v/lNu2v37uf7+vovjceDC0UPfIUs6mf7WpWp9SWQl8BPlgxKG5jneULg1P4BzBSG2rrSXYNAyhokPQnr8GOvCA+AxJnhLFzdB8CVtBNMopevOKvfc97aVc+qAf56zsM/1NwewnK+j8y2nZhNZJyObbeZEO8uvY4BtcRAtUnqCWfNgSECcwTdgefEJED0v3etnguwjxzbIHAroUotGY/VceaPQojVpNjye2Eq1epfjY2P/6uv/MlXnPvQOhm/fPazn9W1Wu0L1VrtUPcP0BZGm5Zf0XJWSuKWrMRG1vPziQRM3xAqsr35IQ3gNSOhlfslIF7xc9jvF3gKLgIj9cq95kdW+lXL3zcL4NmywPerbk+OPCFQzBcwm87B5TDQh8UN1QnsCOcd6lvR3g1gXA3+GVC8sasZ06ETKDwKENk+Y21brv7jYsOxb4xgUqTLnXDxaM3/zlqLsFY7pMLwC3/2Z3/mZFDj7EHmicnJn5aWSn+udXcuTzRS3X8rEhJ4W8HD6Se5FlAKgYFiP0bj6Y7MbasQmFAGQQSuBfxhfAglGTj54efkp749S6kQYS2EUmHb3jUAmFfANxclph3fIVmIB7D9bl/7BwCn6jKuqY4hsK6NC9EsEGiNO+f+15tEUV19G7ftSP9mMBPRPtP2VWj2EzZDl88rUV/5P1Fibe331BijK9Xqn88tLPzU1b+PswmAT3/60+WFxcWv1kL1g246ddmM6v5btS0u8NacRGqdAWp7JoO5fH9H22jcSpSVbmOV763ZH8viFb8I49iI36sJgJVifmGttnxt3/K5/jb3I2WBH5Qkfha63YN9KVDoG8RM4HY9i4zVeFNlHH2q5PbAbqPznihXg//VSTRn0Ucmnbbjz4pJgOjNM9t5Pr/eP5m4o+5mtF53V83aDQBK6x+Wy5WvfulLXyq7+vdxupT57Nzc64sLC39utC51ReexFtqYtmzLOu7DFsB1uRNfC5iMxRDvH8KSH+9oO1UgMKotpOObPxRE/VpAj9cCdvS9MgZKqXrgH7Z3pf94JkKBby8J5wv/9afSKOf7ETp+o8VuvYBLq4c7V/hvE6FaFObARunVAkVORzC02q1MR5/XSrV3JgGi801s/wITdx5St79TJ92QLlbnpKVyufznS+XS6y7/nZye+f2zf/bPbLVa/X+XlkqPR3lwsdauVvfv9MSm6Av8XMFDnzw2OSAwkM1hMVOAC5fxTViJklKQjj/3CS+JZwJeC9ju98muCfpVGDqznTk0wN8tCryu3Z4sJ2MxZPoHMee7nbzqtwq3lEeRMbWo9E6ng1ejddvukqcmPTMnKq3zKECkvo+dGoOYA6CuDP7NSYN/IQQE6p//aq32uDHmP/3RH/2R02+E81FLqVSaqNaqXwqVOhy5gRgr2/2NM9lRKYCLMgKXp+RRV0Bk/Rhi/UNYaOO1f+vRAF7TElKFTj9jBYHn/D4cjmX47Wv1+2QMtFJQYYharQa9fBbLlXfLAnitKvBURaLmeGcYymYxnSk6XfgvBovLa9M4O5xx/jjQcWbhbk5ilOYkPWqTT+3Obg0mAZgAWP8byMGl/qKwCbpm/LUrR7Y39uC1VodrtfCxarU64frfzfkEwKcefNAeHhv/TqlU/m/GmDAynaZN1f23IuUJvL0gsS1WH6U8IdBf7Me0Y9eAlSEwoQ1ijq9YzcoAzwQDqAkHkiddtg3PLg++K9v71yvA0mlLGvj2ksSY4wushSCA7htGxfOd/p2DpoqbKqOIGxXVzuvM+2itrW/95zbd6AVzznyVeRQgGnNP0/E+2+t9RDJR1j3zz03sLrXWhNVa7b/NLy58+wuPPur8xzYS+5Y//ZnPlKrl8qO1WrgvGgGLcWpl8njOTErcmpUIAPQlklCFQdSkW5XANYBxI6G0+wUBX4nlsc/Pc8RsVrCi9VFb/F1/n4Aj1/65/CtjQiBXKGIplYHLp8B9WLypOoHtaqEbOnRnV91t/dy/cf3c/3H0+jzaWNfGPR4FcD34d6O/9Hqike9IN8xDld7c0VKl9P5QqS8+9thjkahbF5mDy0tL5ecr5cpXtHZzF4BdLtSjIxCoAEBcAjfnJM5PxlDsH8BMPOnkkL0IgTFl4Tk+eS2JGH4SH8SC7GwBxah+dlfuLFZhCBWGCB06178R06HAt5YkFl2/9i+RAPrcvvZPADhXLeGK6jhi1qA7dC4JsKHiReTsuOjkO8okgIsjjDNJvp7facTXI/LjrtYadhNXaWqjVS0M/6hWDZ+Lyt8zMgmAyZmp6uzc7H+uVis/dG1wqVf31/V7VyM07m2LC7xtIIlyrojQ4RFrwgqUQ7cLAloAB7wMXvaL0B1sy0h9eFeSZmuL+enorVQqC/ywJPBiKJxeVY8LgXz/IGb8pNPtmbYat1THUVRldJf2HwlYPfcf2YlY7+4CWEmKuvm141EA556KsU59/3v5KADfjGgzZnPzUAuLsBb+sFRa+i8HDh2oRuXvGYvKD33ooYcA4JV/+9WvfjkI4ufFYl6fGx9oG9lspxTA5WmLH8kQk0g4m7uoQuCQtjjbaMBzt8sqCDwTDOBUNY+B7ri5snXvjdbL746J/GrBSE3g60sCJcev/RvIZDCf7UPoeER1iZrHRZG49q+BqBai5bNEay10WK+ZUa1WMD0zi1Kp5Nz7JgSQTKbQVywikUg4v7psrEGpVMbMzAwqlUqTQ2t7VD/RW0gASCGRSqVQKOTh+0GLEij1owDN6EvGGJRKJczOzSGshSdJPKz5e0oP2WwGuVwOsZj7U1mlNBYWFrCwMN+SHTkr31PXXm5PSqTT6cg8J601FhYWsbC4sKnkqe/HkM1mkUlnIKT7KYAwDLGwsIBSqQRjO3xG7bjtGSCbzSKVTEJK2dbnrzdZeNUaO12pVr788COPvBylqUgMEVMpl/97KR5/VzabeVenJgrW1lf9rYn+9tSsDfEWM4UXZArTcHdb8AwkFpVCRkpoh6/cm/IS+Knfj5tUCTGelzwqGLErR2SM6ZotgqEFnlgUGHH82r9ELIZE/xBm/MDp31mwCjeWR5GITr3XrU96LFq3vL0c/FtrcXhiAs+/8AIWFxedrKUhRD2Yy6TT2LXrfAwNDh01brr0c621OHRoBC++9CIq5cqWAvSWtycA6XnI5/M479xzkM/nW/jsGksCaK1x8OAhvL5vH8KwVt9FuYk/OxbzMNA/gHPOORvJpLs7m6rVKl597TWMjY5B6d4qxikAeJ6HgYEBnHnG6UimUg4/pxr27duH8fHxTT8nIQR8P4YdO3Zg5ymnQDo8T11aWsK+/fsxMzvrwPEwe4L2lAgCH6fsOAXbt22D57U+PtEbuO7vuHFptfqdMFR/HbV3M3IJgNHDh6eDROIPg3hwcyIeH2j3n7+y4t8tA7iExS6zgOvNPP5GFpw9CqABHNQSu5UCHA5iFAReCPpwVm0GO8N5CFFPAvRqIsAsb+k3XRT0r/1svVIReLIi4Xqd+sFcHnOZIozDmxN9WNxYncRZ4WzvbKFs0R73lUK0i0tLePa55zA7O+t4Q2hM12p49rnnkUmnkU5nnPyVU9PTePa551AqOb7DS2tMTExAALj00kvg+6248WNlF8CJJ/Enc3hiAi+/8gpqtdrWvrdK4eChQ5CexO5du9q6UriZd3H/gQM4cODAplcWu4XSGqNjYxBS4Lxzz21LMLf5odji4KGDOHDw4JaP3iil8Prr+xDzYtixY7uTR4KVUti3fz8OT0w4Piczq781HgQYHBxscWynt3RcLgzDqVCFf1iuVqaj9l56UfvBjz/+OG677bbDiXh80Pf9K4VoTzUrE/Ht/uuJwaAAjWdlFvMOFwcLISBhUZACxuHsak14sMLDKWoeMXt0FrnViYBO98+V5NhKFf+V4L8bLWrgv8x5eCF0u/J/MfAR33YqZgO3z/6fqit4V+l15E0Fvad5RwKMNtBaQWuNl19+CWNj45H5btVqNQgh0N/f71wwV61V8cILL2B6ZiYyvapaqyIIAuTz+ZZ9e+r/3s33r3K5jJdefhmLi4sN/4ZKpYpsNoN0Ou3cM5idncVLL72EMIzodaZNnBtUKjLiYRkAAIAASURBVFVkM2kkUynnFkXm5+bx6muvbzkZtfbvGdZqKOTzLUq8NfbbJiYncfDQocjMy7TWCJVCsVBo2RESY82WknPG2rBarf3Z/OLCv/3iF78YuW2LMooDyf3331+enJz8k2q19nrrXxhAGwujTVdv2zrVLOJW4/bExgCYMAI1pZw+H2wBvOznsT8oHDXwrgbDXdiPVu5LVWFYL+inVFdt9T+eZ8sSP6y6XfjPFwLF4gDmkhnnT9TfXJ3AcDdc+7fVUaMJ74pdLqoJC8zOzeLAgYORSsAZY3Dg4CHMOLZjwVqLiYkJjI6NRWpMU0rjwIEDWFpaatmfIcTmE9vGWIyPH8b0dHPmHNVqFfv270e1WnWv/Q8eQKUSmbpgLVWr1XDg0AjCMHTsOSkcHDnUtJ09C4uLGD982LkjQtVqFSMjI1AqWsmoubk5TExOwrSgxkV97rq1YzkqDF9fWlr4k0cffTSSFYtlVAcSIb0XSuXyo1rrlvTk+rV+dvXMcrfzYHGtnsFFtuz09tsSBMa1+/UXasLDT+JDWPASbxxsuiQRsHJVSlirrQb9xvTGFscZJfA/Ft0u/AcA2WQSqm8IVYd3zAgAF6lFXFYd5wzZbv0mmdWri6yFUgqvvvoqKtXoBR6VSgWvvfbaG4OEDq4YlisVvPrqa5G8TnFhYbGlK35Hqr1v/PksLi7iwMGDTU2mTE1N4/Bhd7Y1WwtMTExgcnKK49oas7OzODx+2KlE2vT0NCYmJpv6ToyNjWFhwZ2EtrUWY4fHsdCEHTftZozByOgoSkulpreJ3mJNDmOMroW1L0kpn4/quxjZBMDM7IxeXFz8r+VK5bvNHki6fbX2RAZtBW/VU8jA7SBu1Hqohu7vAhiNZfBi0H/cooUriYBmJjLaUZtiZcBUYYhatX51n+nylf5jKQs8uSjwunL7pHpMCAz0D+Gwn3A7SWEV3lQZRUH34tb/E4weW5mQKA2zvI1xbGwMh5s4oW23w4cPY2xs7I0RVScmn9biwIEDmJ2bi2x7joyMYnZ2rqV9dqO7ALSur4qXSs3dlWCMwf4D+1EuuzGOVKsV7N+/v+Et5V33/VxebS+X3Vg0rdVqOHDgYNN3JVRrNRwaGXEmabi4uIixsfHILtKUSiWMjI019fdv9dppW+83362UK/+5VKlE9p5dL6o//Fvf+hYuuuiihXQ6XUomEm/xPK/h0qJ2+V7yzVSi7SYCQD9qGJNp7BNxp4NrZS0GhYGV7nZhA4EFL46d4QLSpnbCv8tK5xNAw6tcrQjEVxILWtXPFZseq2J8rAM1gb+cl5g27iYAJICd+RwWB3ag6vA7IgFcHc7iLaX9iMGAjjMqb6CbmeX3EgCWSiU89/xzWFhYjOzfWhuDWq2GgYF+BCtFXzt09fzs3Cyee/4F57aXb3qiqzX6+vpaWIBNnPTzZa3F1PQ0Xn31tZZsQw5DBSkF+orFjp4xN8bg0KERHBoZ6elv5XpJAG/5popO1vowxmBkZKRlR3tqtRqSySTSHa55oJTC/oMHIlAM9uTtmclkmnLjRyM7Vo3W04tLS/9yanbmqa985SuRbU8Z5c7w2c9+1tYq1f+3VC5/vdGA0pitbwXpJkmr8GY9iSLcTmpNQ2JSGQjrdtAwI+P4WWJ43asLrbX1IpMrV0s60geN1tBKIVw+16+17onjMOtOMC3w7UWJQ45f+5fyY4j1DWMx5va1f/02xM2VEcRtbxfIWvfrdJLhwJqVM4wrWyVHMDU1Hfm/+dT0NEZGRo5M0izaXlVbKYX9+w80pVBdR3uRtTh8+DCmpqZbOMdZ2QUg1gnQQxw4cLBlyRRjDEZHxzA3N9/R9l5aKjVUTb7b1Z/TaMe3yJdKZRw81LpV+jAMMTI6imqHd4HMzc87dTxmq6rVKkZGR1FrcLeG1o0dV63Val9XofpPf/ZnfxbpBpVRH0hKS0uqXCo/VqlUJ7Y0ENl6gT8O1HUCwNlmATebOcQc32I/YiTgeDETA4GX/QIO+vmTtmbHEwHWLgcTavVM/0oxP6r3uRdKAn9fcbvqvxQC/bkCpjMFp9fUY7C4rjqBU8N5dq6TJgHsCccMpdTqxG5hcQH79+/vikS2tRb79u/H/MKa/tHmVbTJqUmMjI52RS9SWmPfvn0tLUhn7YmPAlhrMX74MKamWnsmvlwu48DBAx0rNKe1xoED+92/KrLjwVwNBw4e7NgWeWstRkZGWlogEwDm5+cxMdG5mgehUjh06FDkCv+dyMzMNKanpxp6Pxu5jjMMw8lqrfZYTYdh1Nsy8gmAT3/mM5ifnf1BuVL5N1obtfGXf/muZG24ResYCavxFj2Jndbt/l2CwGFt4Ru3dyssSh/PJIZRlv4G++baREDr++ZqMT+lEIZHivnxvTjagga+viQx5Xg+JB8EQN8Qyo4X/jtdl3FDZQwBV/83/tE6djKzJkGntcbrr+/D4uJS1/yVl5ZKeP31fVArtX7bOCZVq1W89trrkd76f6y5+XmMjLZ2W/qJbgUol8s4eLA9gcjExGTLEw0nekVnZ2cxfniCi0obmHdMT89gcnKyI3ON2blZjB8+3PI/xxiD0bHxjiSEVm4vmZvvniS7Uhojo6NbKnDb6LXUxhhVC8OvVku1H3zxi1+MfFvKbugQn/rN36zMzcx9JQzDZzYyQK9W92eAc0LbTQlvNtPO7wIYMwKVCFwL+Fosh9eDvk39ynoiwLQkGLfWwmi9ur1fhWHPn+1fd+C3wE9KEs/U3F79D4RAX98AZhNpp9szYQ1uqh7GoFpi59pshLH8jtbP/ZvV93lyauroLfPd8N4tV3+enJxaHZvacZa2Pmkfw+TUVFeNiVprHDp4CPMtDAiOdyuA1hojo2Mt/XPXWinsVqm0tyBgrVbD/v0H2v7nRlWtVt8F0O4kW61Ww8EDh9r255ZKJYyMjrZ9t0OpXMahke5Z/V+xsLCIsU0WBDTGNHzMW2n901K59EePfPGRcje0o+yWDqFe1K8tLCz8W6117cST+N6s7r8VAhZXmxnstm5/yKoQGFMWwvHrmUIh8UxiEEve5osrrr2VopHBa+Xfo5a3+IcM+jdsWgk8viRQti6/s0AxlUK10I+acHto360XcUl1Am6nUxwOjLWGVkfGvDAMsW//vkhe+3fSMb5axb59+1arqbdjvCqVSti3b1/XTZyBepHI1t8FfvRRgIXFRRxq4VWExx2zZ2YwPn64rX/mxOQEpqanQRs3NzePw21YiT+qb0zPYKKNOw9Wjr8cdZypDX/m4cOHsbTUfUdRjDEYGx/f8PGNRq77W/NnhuVK+d9pY17tlnbsmgTA/V+8H2EY/v/K5cq37DFPmdv9t6bPVHG7nkTB4YKAFsAoPJRC5XwwMS5T+Fl8CGqLwdlJEwHH/d8BdjnoVyvF/NacGaaTCy3wnUWBlx2/9i/wPOT6BzHtJ51+E4pW4U3lEeR57d8WxgBAKw0VLr/Dov6Sj46O4vDhia79ex+emMDI6Ghbxi1jDPYd2N9V22aP/Y6MjI5hZma25X+WgIDWGvv372/7tW/GGBw4eLDlZ7xXlEplHDx4sGO1B6IczB0aGW3bc6pWqx2pPRCGIQ4eOtS2P3dhYQHj4+NdO9crl8s4NDp60gSfxdF1crY6bNbC2t8aY/7DH/zBH3RNG8pu6hDTU1OHFxeX/lQpNbkSHLK6fyOdw+ISM4uLzZLzHeWAEfCV2x9eJSSejQ9gymtse/aJEgH2mI+q1hphWF/p10rxTOJW2hrAgarAk2WBquNDyHA2i+lM0enCfx4sLghncU44zdX/Lbz3K1dxru2gS6US9u3f39WBR70a/34sLd8d38pTALNzsxgZGXXm/u5WqG9Vb/Ud9RZWAFNTU0cd4WinpaUlHDzY+p0H9SMjox2/fSCqSqUlHBppfXBsbWdvH5ibnWvLzgOlFA6NjnTljrCjYr7pacysc7WhhW3KgpfWeqpaqf7JUql0uJvaz+umv8zXv/lNe/kVV7ySzWYvDPzgQmutZODfGB8GBWHwjzILl9MAIQSS1iAtBYzD258rIgYhJE4LZ5tSt2C1fy+v9K/c97zyX9n/G3xeBvjrOYkf1dxOgeUCH6nhnZhPpGHh7k6FHTbEe8qvo1+xQvbmAozjT2S01nh93z4cPHSw60+1VWtVBL6PYrHYsrvDwzDEiy+9hImJia7vU9VqBal0GtlstmV1FaqVCl566WXMdyjgstaiUq0in8shlUq17M+Zn5/HSy+/3OKESveyFiiXKygU8k254/1EFhYX8fIrr3bsORljUKvVUCwU4Pt+y/r89MwM9h/Y3/WLPivFq/uKRXied0zwX98tZxospG2t1eVK5a/mpv7/7N13nB3Vefj/zzNz926VtKogmnEl7ja44Y4bCTYOjkHGOMk3iRM7P5vmOBg7duJNYmODOx2BW2yKJWxAEhhMkxsYkMD0ri5t77u3zZzz/P6YuyCEypa7d2d3n/frpRCwpL33zMyZc55zzvMMnnPeRefNqDNhwUy7IVpaWkrFYvH7hUJxq01+KuMFfoi3uz5qUrxi54CtPiB2Dkl5e27IzmNbtrliremdIyqVKBZLRFFsO14q9SIFHs0HrCumu5vMiLBg7nwGG+eS5ru/BuVtpS4OiIfs5hrT8+33uIoxMDDAli1bJjzImS5BkC1bttLf34/q5CQD7Ozqoq2tbVbcV3Hs2LJlK7ncJG3NV2hv76Cnt3dKv2ehUGDbtu2TNulLyv5tm7x2nCVGEgI6F0/adWrd0Trl5RkHBwfp6OzET9IYLYqicuI/Nyvum76+vt1W/PDOVSQAEsfx9iiOvn/e8vNmXHQvmIk3RFdn9yO5XO6nbibv4auiOnW8y3dzoKb7/s8htMeejE93kG5Qavhz7X7kg+zExlflGuBRFBG7GO/dMzVOk+MBdu9OxEAs3D4s9KY8iN5cW0u8cAnDku4NXS9wed5Y7Eh92c40cbHb4/nFkdX/2VRvPJfPs3HTpknZKlwsFdm4aeOsWsUdGBhg+47tkxIwHs7l2LptayqOUnR0dtLV1TUpf3d3Tw8dnZ0WdK+Anp5eOju7mIy1pr6+Ptrb26f8O6oqrW1tk5LzQFVp7+xgYGBw1twz3nu2t7Y+p/KGK++CrcDf7Qql4v8NDQ8/NBPbbkYGAL7wxS/kB4YGfxpF0TpVO2haCUt8nvf7HhpI92yoQwMKkUt1WUCAzTVzeDq7AD+OFdtnJv7PS+gn5Yl/EgBw5YCAqlowYIxihfU54cGSpPqOrwmEeQsX05+tT3V7NqnjqFIHC10OrEse9TO+p0HMSH3ntra2SVtJSmu7tHd00N7RjmrlnkzvPdu2baenp3dW9ZXee1pb2+jv76/o3+ucY+u2bQwNpaPMZxzHbN26jXy+solHi8UiW7durXoZu5lqJFFevlDZ3RSlUinZBZKSPCmFQoEdk1CeL5fL0dbWzmxb+xweHmZHW+szubEq9P01dvG9hXzhJ+edd96M3N4TzNQb4pRTTtk4ODR0mffe9ptW5EZR3uB6eYWm+zkoIuxwQMo7wJiAB+uWMBjWjWnw63Y78S9P/8sZwZPtwAKqz5Q/cd5NuIzgbNIZJav/hZSX/VvY0Ehu7kKilJf9e4Ub4jWlztQH5tIxKVPi2OHdnie4yWr1phmf5GlPk64NGzeRr2Ct9eHcMJs2b5qRZf9GM3jesnUbUVS57z4wMFD1sn/70tffT+sosoaPRUdHB11d3dZpVVBvbx/tHR0VG6uoKl1d3XR3d6dm/KOqdHZ10d8/ULGA40hpvKGh2Tfl8d7T1tbOwOBAxfpw7/1wPl/44be/+52nZ+68bkYPFEqrhnPDa23SUxnztMT7XRcLSPfkuouAXBQTaLp3K3SGdTxUt++ygDtP/PdWzuTZ/67PH+SUKweMbI2yIwJ7Fin8YUjY7NKdTaI+k6Fp4RIGampT/TkXasxRxVaafDRyK5q9DGRcHKN7maQkZdxa6eqevROPnp4eduxorVibb968hcHB2btW0NHRQU9PZe6nkaMpaVsVT3Z5bKvYBCmXy7F123arrjMJduxordh1yueT8owuZdcpimK279hOFFXmyFF/fz8dsyB56Z7ne0W279hRkdV/BQql4u9i566dyW02owMApVKpo1QsfT+K43ZMBW4W5eV+gMP9IJmUJwTc4AOClK/mxAQ8ml1IR6ZpQhP/ESKyU2KsnXYC7ObvTYIBMc57vLcjAjt3/BsLwh8LQintZf/mzqV3zvxUh+NqUN4Y9fLiqH+nsn92s+1+4uRH9ZwP53Js2rR5Vq5WP3eSuakik4Se3h6279gxq3dHlUolNlegLKBqEkzoTumqeC6fZ+vWbROetHvv2b59+5SVk5vpcrkc27dPvCygqrJjRyuDKV0VH5m0T7TviaKI7a07Zv1RlN7ePvr6+yrwfok7ozj+fnd394yeO87oAMDpnzud7q7OP+Vz+eu89xFmwuo05j2+m4Wa7sFnAaHdeTIpTzjWH2R5qG4JxSCzy8TfJcn9xlDDNAkABM+Zzu5roKPe470rJxC0XQHDDn47HNCR8tX/Bdks0YIl5Ha6b1IZpPBF3l5qI6sxZs+TpjiOcXG8z9iIc44tW7bYxAMYGhpm4+ZNuAn08aVSiY2bNpHPWwb33t4+dkxwi3yhkE8CCVGU0mctySHRPcHdM/0DA2zbbqv/k3udOunt7Z3Q5Li/v5/29vbUXqfYOdra28lNoP9RVXp6eujt6Z31RzyjKKKtvYNiqTiR9oxKpdKqwcHBO374ox/O6PYKZvoNccYXv5gbHh4+v1iKNlm3WhmHuGHe53upSfFn9ECHD4ic22nlMZ2ermlmS03zM+f14ygijqO9bgPecxDged3ZHncC7PoSUS3vCnAOX84fMNs8kg/4UyHdif8yIsxtXsBwfVOq7+wM8O5SF0ut7N9enzsXx3s977+zvv7+WVHfeVR9vPds3bqVvr6+cf8dnV2dtLa2WW4Udi5nlxv3vdzW1k5vb1+qv2exWGTL1q0Ui6UJ3HfbKBQs8d9kKpVKbNu+g2icwaQ4jtnR2jqhyXU1DA0N0TGBIEWxWGRHWyuxFT0DkqDPRAJHURxvKRSL55133nnDM72tgtnRkUSPFwuFC5xztgugArI43uJ7eKnmSfM66TBCR6yEKR8s5yXDA7WL6dOQOIomYXCvY/o7VRXvHM778q6A2TE47o2EW4eFXMq/7rz6evyCxeRTXPZPgJe7IV5f6iRUm6zuaSIRR/Gon03nYjZu3GATj+cMfks8/fSGcQ1+C8UiGzZsxKoFP3cysm3btnEFn4eGhpM/Ow3eF11d3XSO47z0SPWNzll81rqq7+Te3nFvke/u6ZkW10lVaevoYGBwYHx/tr1tVpX9G12btI+rkoT3Poqi6EIX+8dmQ1vNigDAlm1bSn0D/auLxeI9FumvjMW+wFG+N/VlAdtVGI4ighRfdwW2Z+awoXYhftKyuY/sBBhTT1reFbBz4sCZ+fzECutywpNRuveL1Iowf8EiemrSX/bvXcUO5jvbWr37ybzDxW7Uz5Oq0t7eQUdnl61W76Kzq4u2trGt4icJ4Sa2e2DGDp7b2unt6x/z/bx121aGc9Nj0Wxk98hYK0kkuwe2TThXghnlezmOad3RSmGMq/ilYont27ZTKk2PNb9isciO1lZiN7ajckPDQ3R0dtqOsF3k8wXaOzrG1i6qRFF0by6fWzUwNDArouzhbPiSd9xxB7/+9a97/+ov/7JQW1v37iAIGuwRmRgBFmhEW9DAVklvFnKH4BQWBYoP0nu7exGGwjoOKPXT4MY/uBCRvQ6EVXWnRIFjHxzqzkcDRJAZcj9vKwm/6A/o8pLqZ27p3LnkFh9APkz32f83x/28r7iVmt2s/s/2CWxS4m9sq86FQoGHH33Ezv7vYfJZLBZYvHgx2ZrRHUzrHxjg4UcenZVlFPd5f5YDvgsXLCAMR/fO7Onp4amnniaOp89uilIUEYYZ5jc3j+qdqKq0trayZctWu0mqOTkulchma5g7dy5BsO8FEu89rW2t7GhtnVbvmmKxSENDA40NDaO6H+M4Ztu2bfT09NhNsptntVQs0dTURF3d6Epte/U9uXz+a2d/65zb169fPyvaKZhVHUmx+OtcPn+7LaBURpNGvMt1Mz/lZQF7CRiIXerLAvaGdTzRsD9uArsARvPimGi0+JkqAnH8zK6A6fxIxeWyf9unQdm/7MIlDGWyqf6c8zTmbaU26rwl/tv1uYmjeMyTf4DWtlYb6O11AtrLjlFm8h9Z/R0ettwUe7pPOzo66O4e3f0WRRFbtm6jOM1WxceayT+Xy7Fl6zbbgTMF9+OO1tGXBczncxUrB1fVcUgc09raOupM/kkFgS6r4LSn+V6pRHtnB9Eoq+UUS9FvYxevnk1tNKsCAH1dXX2FfP68YqloB7gqcvMkZQHf7geoSfEU0APbfIDE6d4O5iTgybrFtNU2T3prVmrLWFJOMFnRnI5HBBR4Ki/cWQhI83RVgCXzmulrasaneN9FDcq7om5eFA1gnvucjOW8/86GhofYuGnz2I/wzLJJwuYtm0d1jra7u5tt27fbwHlv7yLn2Lxlyz4nIyPnbSeaVX+q5PN5tmzdus/J4kiCxOHhYbs5puQ6Fdi2bd9lAdUr27fvYGhoel6n/v4B2js69jmOiqKIHa2t406QOFv09vbS29u7z98XRVFXFJXOyxcKfRYAmKH+o6VFc4X83aVS6adWFrAyatXxTtfFAZru6P8QQquDmpSXBRwMszzauJRiOPmrvJU8N/bMroByQECnSRWBIQe3DAd0p/wI3fxsDX7BEoYl3ae2DvIF3lZst7J/Oz9nzhOP4bz/rhOPTZs2V6Te/Uw3PJxj06bNxHtZ8SkWi2zctGnW18se3WSkn+07duz1PZHP59m+bfu0noh0dnbtM4DR399Pa1ubnbWeIqpKV3c3PT09e+1H+/r7pnWeFO89HR0de82loap0dnXR199nu1H2IY4dHR0de+3vVTWK4/jnpVL0p/POO29WNWgw226IU089tdDT2X1ZsVR6yh6PSg36hznK96X6ZkrKAgqFOE59QsCNtQvYVrdw/A91MPorUfEBTXni78pVBNK+K+DhXMD6YrrL/mUDYe6CxfTVNaa6HwhR3lnqYkls59TLjwIudsmEdJzPQG9fH1u3bbOJxyj7su07dtC9h0mCqtLR2UFbe7sNnEdhZNV7T8En7z2tra30TvNEisVikc1btlLYQ0LA5IjDnv93Ux2lUolt27ZT2kP5xlIpYtu27eTz0zvx7HAuR2tb+x4rm+QLeXa07phW+Tam0uDQEF3d3Xt8h0ZR9PTg0OCl3/rOt2ddxuJgNt4QEsqT+VzuIue8PUEVGvi/0ffwypSXBSwgdMaKpPyylyTkwYalDGXGl+ldxphDYNImFyO7AlJaRaAvFm4eFvIpnwvMravHzV9ESdLbXQvwKjfM60qdMyYx5MRufcXF8YTOocZxxMaNG23iMcbJ3JNPPsnAwMBz+hrvPT09PTz51NNW9m8sk5HhYTZs3Egul2fnc2nJSmXnjDkT39PTw9Zt25+X3T+KIrZu3UZXV7fdDCkwEhDddcfJyPn5zq6uGfHuaG9vp7Oz83l9VbFYLAfl7CjKWMa3bW1t9Pb1Pmesq6oUi8Whodzwd73qY7OxbcLZ+KV/feON+oEPfGB7tqbmiJqamhfaIzJxDerIivBQ0EQpxVOAIQIW4slkwvK0JaXBiqCGRh+zOBokGHNGAMGPMcgxkeoAY/kZOx8NmOyft9fJlcLtgwF/SPnZ/0CEA/c/kNbG5lQ///PU8deFbbww6t/nUzXTV19Hkv1N9HvuaG1lw0arUz9W+Xye3t7ecjb7mKHhIbZv38HjTzxhVRTGFQTIMTAwgPMOF8cMDg2xfds2NmzcNGOCU6pKf38/uXwO5z1xFNHX18fmLVvYum3bXo+VmOpep8HBQXLDuSSvShzT39/P1q1b2bZ9x4zpK7339A8MUCqV8N4TRRE9vT1s2bqNru5u28E01vGecwwMDhJFEc7FFIpFenp7XHtH+8rOzs7v/fBHP8rNxnbJzNYboqOzc0cYhhfX1NS8pqamZqE9IhMjKK9zvRwh81gbzElvxwpsc/CyOCLOZFObujCSgIcb9ufAYi+LSmNNqDa+b+W9H9PxgUoFApKfKVQzHrC9JKzNCQVN8zMFB8+dS9+c+al+9gPg9XE/ryx1I8zugYlzHu/chAdouVxynt3qjY+vf+nr72dwaIhMJhniRFFkxygmMBnp7umhr7+fTCaDJvWyZ9wkxDlHa2sbnZ1dhGFYnmBGliwyhdepvaOD7p4ewjDEOTcjAzQjif46OjsIJHimPKcZn1KpRGtbGx2dISKCc26D8+58EemdrW0SztYvvnbtWtasWfPwh4899jW1tbWvBtu5OlE1eObiuD+cSz7Fp0sKCA3qqQ8DVNK8CyBDIAEHF3vGPLEa7+CsGjsBdhsQ2On7TfbPjxTW9IesL6X7kZ9TU0PT/gfRU9eU6mn1fhrx0fxmFrncpN6bqR+YxpUZoHnv2bxlC5u3bLaXygT7lZHjR7ZiVtn2nOkBj5Eja8auU1q+p/VhlWtP772q6vmrV6++/PHHH5+1bRHM9puhUCheWCwWO+yxqIxDdYi3+T4ypDvR3hYf4FNeFlARNtYtYHvdAnQM8SkRGXMegF07yCkYXZZfdCMvdZ2UlRcFHssJ9xTSPfkPRFgwr5nuxnmpTlCYQTmy1MWBszjxn6oST/C8/84GBwfZsmWLrTwaY4wxlbceuGK2N8KsDwB09/bcmy8Ufui8t0NeFVCrjve7Lg5JeVnAPEJHDNm0lwUMsjzYeACFsGZMf26ii+hTF1XXcknB5PxupRMHDsZJ2b+utJf9q83CgiUUU57471CX563FdrI6O7cmqldc7PCuMjeUc45NmzczZPXGjTHGmErrB5YrusECALPcmWeeWRjoG7g0iqI/A7bmUgH7+Tzv8b3Uprw521XIxy7VZQEBtmab2VK/uOo/Nw1b63auIuC8n9CqqFP4cy7ggVK6T6pnA6F5wWJ6axtSfV82qONdUeeot/7PNN4lSagq9ZyM1Lre0brDth8bY4wxFX5tA78V5JerV6+e9Yu+gd0P0LWxe9Pg4OBPnXOWcakCBOUNroeXa7ozBBcQdsQ+9WUBIwl4qGF/hjN1szIIMDI5Uu9xLh73EYGeGH6bS3fZPwEWNDRSmLcw1WX/AF7hhnlNsWtWJv4bSTxVyd0ppajEps2bKRSK9hIxxhhjKjzdAy7J1mV7rCksAABAy/dbiOJ4Zb5QuFUt00ZFNGuJD7hO5pPuyXU7Ibk4Tv0ugM5MI482HoCT0eXtDIKgYsn00rYaOXJEIDkmMLrkOJHCH4YCnorTffa/LhMyZ+FiemvqUv05F2rMu4qtzPWza7Kqmmz5d7Gr+N/b2tpKZ2envTyMMcaYyoqBFaLyh5UrV1prWADgWf39/Z25XG55HDsbgVXkxlJe5ft5rR9K/U22xQWELt0JAWMJeLx+CT3ZplH9/kpn0k/jluSRUoLOOeJndgU8PxigwJai8Md8QDHl4b0lc+bS1TQ/9Yn/Xh338dK4b1at/ifJ/iYnC3oul2Pzlq1EUYQxxhhjKupJ4KfiZdCawgIAz3HmmWf69o6OG3P5/K9V1RICVkCdxrzfdbEf6W7OIYSuyJNJ+VGA3rCORxoPIA5Gswug8ivdqT6X/EziQJfUYt8pX0Dew++GA7alPE9dc7ac+G+MCR+rbX9f4qhiG7WzKG+qeiWOYnQSngHnHNu2b6evr89eGsYYY0xl5VAuDzPhfdfecK3t8rYAwPN9+ctfLpZKpR8US6Wt1hqVcYgO8w7fSzbFK4UO2K4BURynfkVzY+18ttcuGM2UZdKCAGnvPVWTAIDzSeLA6VD2LyNC89xmBhvmpHr1P4vy9qiLA+KhWdOHuXKyv8k6HTYwMMCWLVss8Z8xxhhTefdKIFddc801zprCAgB71NfX91g+n/+Rc852AVRArTre4Xo4RNN9VjiH0BYrGZfu/mE4yPJw4wHkwn2fEZdgcia9Og2CAOVIAH0l5bZhoS/tZf/q6nALl5AbZY6HqSDAi1yONxQ7qBln2b9plWJFSbb8T+Lk3znHxk2bGM7NzkoKxhhjzCTqBS726jdbU1gAYK8+/++fzw/0919RKkXrLCFgZSz2ed7re2kg3bOwLgLyKU8IqMCW7Dw21y/E7+OcfxBM3uM9HYIATuHPhZCHoyDdq+qBMG/BIvqy9aluzwZ1vKvUwUKXn/F9VnLeP8ZPYkBQVeno7KS9ox171RhjjDGVHQYCtwE3Wtk/CwCMyimnnbZhOJdb7r0fsNaoxE2mHOF6eJWme+JQRNjhgJTnAogl4OGGpQxm9l4nXpjcbe9pDwJ0xMJt+TDVZf8A5jc2MTRvIVHKy/69yg3y6tLML/vnvSeO4knfkl8sFtm4aZOV/TPGGGMqrxW4aNXqVd3WFBYAGP3gLF+4Pjec+62tzFTGXI14n+tiYcrLAnYTkosiAk35boVMA481LMXtddI4+fduWoMAscKduZCtKS/715jJMGfBYgYztan+nAs15t3FNhr9zM5S753Hxa4qK/Ktba10d9u4xBhjjKn0MBC4SpC7rSksADAm7V0dHcWo9L0oijqsNSpxoykv9/28wQ+SSXlCwM0+JIinQ1nAxXRm5+7191W6HOB0CAIosLkYcEchpJTy52LJ3Hn0zlmQ6rBYDcqbox5eHPXP6NV/59ykJvvb2fDwMBs3bSaObVeiMcYYU2GPCfJ/2bqslf2zAMDYtLS00N3Tc1e+UPil996KM1dArTqOcl0s0XQ35zDCjlhTXxZwMKzlscalFIOaPU7+qxEAeCYIkJK54bATfpsL6fDpXv1fkM1SWLCEXBCm+nMu9UXeXmwjW4HqqGncUKWalPhzcXWed+ccm7ZsYXDQxiXGGGNMpYfHwE9E5dGVK1daa1gAYOzOOOOM/GD/4PmlUrTJWqMyDvbDfMD3kuZK5x7o0oAojpCUJwR8qnYh2+r2XBZQqniuXDUdQYDHCwF3lcJUJ/6rEWHe/AUU6ptSvaYeAu8udbJ/xcr+pevbqteqnPffWf9Av5X9M8YYYybH3Ypeee2aa22LnQUAJjAZVH2yUCye55yzXQCVmPjgeYPr5TDNkeb12aQsIEjKdwEUgwyPNCxlKFOXis8z1UGAvli4JR+SS/lO9ab6etz8JeRTnPhPgFe6IV5b6iSYgVv/vfdV2/I/wjnHhqc3UCgU7GVgjDHGVFavohepars1hQUAJqSrpysa6O9fXSwW75rNCQFVk62yI7/8BH4t9DmOcj00pjwhYAcB+ShKfVnAHdm5bKpfjE/JZHKqggCxwvp8yFNxuqerWREWLVxMd7Yu1ff/HHUcVWxngZthk1UFFzviKiX7e/a5UNrb2+no6rQXqzHGGFPhYSBwPXBbqVRy1hx7l7Em2LuWlhaATZctX35hNpt9eSaTWTjeidrYyO7/lO76r/rsDJ1J3GCrO/2sCnh11M3rZQ6/D+el9tpHCDt8wEtdhM9k0/s5y2UBlxb7WFh67rliCQTxUvU646oeCJAqbvNoiwJuT3nZPwH2nzuHgTkLcKQ7R8Hr435eGc2ssn+q4OJ4Srbf5wsFNmzcSLFYwhhjjDEVtQXl4tVrVvdaU1gAoHKTrChek8sX/rqpqeljIuw2m5XuMgPfecJs5QSfq1Fj3h538WDQRJ+kNwlaLwF9ccyc0KMp3q7dE9bxeMP+vDkaJtyphGEgwZTts6hmECBW+EMuZKtL96S6PpMhs3A/OlMcUAKYrzFvK7aR9TPnCJ2q4mI3JZN/VaW1tZUuK/tnjDHGVJoHrhKR9dYUo2NHAEapu7NnaHh4+IJ8PtfunMN5/7xf3nu8Pvtr5y3z5rkE5WV+gHf4XmpSvMLoge0+gCjdKSCcBDxVt4i22mZ0p5VlkZH/M3VBgMm+/RV4uhhwVzFI9aESAfZrbqavsTndRxRQ3hl1cWg8MGP6G+d91ZP97WxoeJjNmzfbu8AYY4yp/DDwPuDnKmoJdiwAUFlfafmKDg4O3lMsln5qZQEro1Yd74y6OEjTvSV2mIAOBzUpXw0dDGt5tHEpxbBmpwm4TnnttckOAgw74bZchu6Ul/2bn63Bz19CTtLd7R7sC7yt2E5WZ8YROuc8vsrJ/nYWO8emzZsZHBrCGGOMMZUd/gI/il385KpVq6w1LABQef9+xr8Xent7l5dK0WPWGpWx1A/z7ribMOW7ANpUGI7i1CcE3Fi7gC11z01TISmYcE5WEECBRwoB9xWDVJf9ywbC/AWL6atrTPXzmEV5Z6mTxfHwtO9bRrb8uzie0hhYb28v27ZttbJ/xhhjTOX9AeGqG264wcr+WQBgEhsskA253PClzjnLMFmRG1A53PXwKp9PdUq0IkKXS39ZwJKEPNywlOGdygIGwcytDjAQC7flM+RSfE0EmFffQGn+IoopX/1/Rbns33RP/Ke+PPmf4m46iiI2b95EoVC0zt4YY4yprD7gEsAS/1kAYHKddvrpWiyWri4Wi7epHeisiAW+yHujduZquoN3bYTkojjVkyMFOmqaeLJhf1x5simSntBKJYMAI4n/nozTvfU/DAKaFyyms6Y+1Z+zWWPeVWxjnpvek1XvlTiOp3zFXYG2tjbaOzqskzfGGGMqywFXI/x21apVNh+zAMDk6+zqbBscHLo0ds5SOk94Qqj4OOIvCp28Nh5M98QC2O6FTJTunAWRBDzSsD+9NU0pveaVCQLsiAL+WAgpprjbD4AD58yhb878VN8zIcrr4gFeUeqZ1qv/3vnylv+p/w75XI7NW7ZQKlnKGGOMMabCnka4NAzDAWsKCwBURUtLi7Z3tP8yn8//BrCo0zg554ijCOccWR/xrlIrC1O+C6CfgJ7YE6b8PG9vWMejjUvxEpRv0XStkmu5SsZ4RSr8MReyJeVl/5pqasgs3I9cysv+LdGYdxVbqdXpeYROFeLYEadk8u+9Z0frDiv7Z4wxxkzCFAK4amBg4J5rrrnG5mEWAKhqEMCXSqVzi8VSq7XGGAfr3icT/10G6wdHAxwZdZFJcUzFAZs0xMXpXtVTYEPdQnbULQCR1OQBeO6kbXwlMhV4ohBwdzHd3VcowoJ5zXQ1zkt1ecIalLeWOjkw5Ttw9nYfuTjGpygty+DgIJs2b7Gyf8YYY0zlrUf5+dq1a+0lawGA6uvo6Lg/n8/9yBICjm2gHkXRbs/nZtXx7mIbL/DpLuNZROhwStalvCxgkOWBxgMohtlU5QGYaBAgKfsXpr7sX3NtFr9gSeoT/73A5XnrNC37l5bz/jtzzrFx8yaGh6d/JQVjjDEmZfoFuST04QZrCgsATImvfOUrhcGhocviOF6PHQXY+0B9p+3+e7MwzvHOUgd1pHuLfYcG5GOX6rKAAFuyzWyuW0SaSyyMJQjgFP6cD7g/SnfZv5pAmLtgMX21Dam+P5rU8e5SBwtcftr1KW7kvL/XVN3LXd1dtO5otbJ/xhhjTIWnE8BaCeTaa264xhZfLQAwdXp7ezcPDg79yDlXsNbYzZNa3u4/2rO5gvK6YhevSHkd8gLCDqfg070LIJaAhxoPIBfWpfpzjjYI0BsLv82HFFIcdxFgYUMjxXmLKKV89f+VbojXlLqmXeI/F7vUJPvbWalUYtOmzRSKVvbPGGOMqbBO4KKabE2PNYUFAKZUS0sLpah0TT6fv9XOez53QufiODmbO8aVsLm+yFHFNuanPCFZR7ksYNp3AXRmGni06QBcEE7rIECs8MdcyAaX7m6rPpOhacFi+mpqU/05F5XL/s3xpWnVr8RxTBpPXakqrW1tdHZ12QvAGGOMqawY+IUEcufKlSutNSwAMPWGhoY6C/nCRXEct1trJKW4Rrb7jycoIiiHRT28Ku4nTPHKpAKbfUiQ8oSAsQQ80bg/vdk502KCt7t7RoEtpYA7Ul72D2DJnDl0zZmf6iMKGZTXRb28OOqbNqv/z5z3d+ls2Vw+x+bNm4kiK/tnjDHGVNgTwE9UddCawgIAqfDFL35RO9u7bssXCterTtM6WpWYvD2z3T+a8NbcrMa8p9jG/pruwXQOoTN2ZHy6jyL1hXU8PucgoiAzLYMAeZ+U/duR8sR/87NJ4r9SWJPqz7nUF3lXsW3alP3zPn3n/XfmnGPbtm309ffbC9EYY4yprGHg5179g6tWrbLt1hYASI8vf/XLhWKheG6pVNo86yb+qrjYEVU4G/eB8SBvK3WRTXlZwDYNieI49Supm+oX0Vq/cNrcUzsHAZ4oBNxVClLdwhkRmuc1M9QwN9Wr/1mUd5Q62T8emgb3QTK5drFLdUm9gYEBNm/ZYon/jDHGmMpbD1y1Zs2a2JrCAgCpMzQ09HihUFjunJs1e0Cfze4fJ6P1Sk5U1PGmYgeHulyak9gzjLA9VoKUV4PMhVkem3sQuUzdtLi3RoIA/U64PR8ykPbV/7o64gVLyKU48Z8AL4mHeF2+ncBFOO9TO7FWpZxHJN2T/9jFbNi4kVxu+lVSMMYYY1KuB+Vir36rNYUFAFLp8//++UJfb//VpVJpnc7wjIA6xuz+47XQ5XhnsYOGlNco7yGgEKc7IaAC22rns61hMV5kWtxnsVcezAc8lvKyf7WBMGfBIvqy9aluz0Z1vLPYzvw4lwRYvE9W2J3De03NRHskiWjaV9RVlc7OLjo6O7AksMYYY0xlh4HArQi/sdV/CwCk2uc+/7kNQ4ND50VRNCNTQY8MzONqDc7V8/JcO6+KBlK9C6CEsMMJpDwXQCwBmxqX4CScFvdbQYUHCwHDKS/7t6BxDkPzFhKlfPX/NVE/ryh0Pu+4iqrivcOVAwJTOfFOSofG02I7/dDwME8//TSFgpX9M8YYYyo5HAAeAc5dtXpVtzVHZWWsCSrv6Q1P39DY2PTGBQvmn9LY2JgJw3C3k9fptl6kXnGuurW3vVfEeV4fPc0Ti19Nbya9pdV6CFhcimiqFXyKS+71UcNgLk+tS3/5t0Ef0BOnO6FefSZDw4JFtGayqf6czXGRw3uexhV6Gc3pfwFEAkSESmwYUZKdQ3vrP7zzOO9S3TkqydGnXD7Pxo0bfXdPTz+Q/oQKxhhjzDSYbgB54DEROU9E7rImsQDAtNDX39//2OOPX5bJZI5qbGh8XbamBmT6P47V3uKqPPszfSbLgYcLg4e+jjilk2sHbHHw0uFBwjnN6b2WrZu47557kCj9q5ZxmCVc+kqYd0BqP+O8uiw9jc34FD/kGe84ZOOf6bj/FrrisQd+kgCATPiJ3lcfol6nRWA0jmPy+fyQc24F8GuULsAyABpjjDETHCyISL+Kbrxu1XVW8s8CANPH8uXLOfbYY5+Io/gn/f39/wPMtVaZuEUP/JY5iw6hd+7i1H7G4SBkRyQcUiqg2fQl2wtLeeSRu+jt6oDpkLFchPlBA42NixhO4Qr73FBwC5dSyKS7K5030MnC+9fS19FmHUllDAHnABd69d1r1qyxFjHGGGPMtBBaE0yOJ554wh922GGbgDcCL7YWqcDNmh8mm62lc+lL0dQmsRNiYG6UpyabhRSdCRf11G94gJp710JUmjbXva6Uo9TUTF/d3FRd9wywYN48couW4lJ85EOAlz9wO01P31/xSh2z2K0SyJmrVq3qfeKJJ6w1jDHGGDNtWBLAyR15dwEXAj3WGBUQRyx48l7279z0vCRmaVIMa+ggxKVskp0Z7KHu/t+h+eHp9RhFJQ5ufZLGKJeqz1WfrcEtXEopTG+OAgEOat9A81P3To8dH9NDL3C+eu2zpjDGGGOMBQDMs40bBC6QYC1wLUkpCzNBYV8nBz92J7WlQqo/Z3emjsFcDklRVYD6J9aj2zZMy+veMNDJi7s2E6Qk8FMDNDfPp78h3ad76ko5Dn7494T9lkC3Qhywwqv/g1cLqBhjjDHGAgBmJ9deey2vO/x1/cByYKO1SAWoMufpBzloR7q33ToJ6AizuNxQKrZd13Vupebhu8BNzziUuJglHRtZMtw35an2BFhQV8vw/CUpPoqSOHj74zRteMi2/lfOE4ouHxoaGrBz/8YYY4yxAIB5npaWFhDuRbgcyxJdmQlYYZj9Hv4jTYV0V94ayNTRHcVTPukOogJ1D/0R7W6f1te9driPQzs3kp3i9qwLAmoW7Ue+tiHV7TWnMMR+D/0BUr5bZhqJFb0C+PPatWutNYwxxhhjAQCzh0YOggi4CrgHsKW4iVKlsXUDhzx9L5kUbbF/3scEOjL1lIYHp/Sy1+3YQPjoOkhxW432ui/s3MQBQ51T+jGaGxoYmLcITXHZv9A7DnnyHurbN1t/UbnH+S4RuXL16tUWyDXGGGOMBQDMnl177bU4554GLgMGrEUqoFRk6SN3MH+gM9UfsxBm6CREivmpmQiWCtTe/zs0NzwjLntYynNQ21M0uKlJsNgYCrpov1Qn/gNY2N/O/o/+CUpF6ysqo0/Ry5xzFlExxhhjjAUAzL5df/31sfd+JfBba40KTQa7W3nB43cRpnoXgNAV1jJYLFY9IaCop/6p+wi2PMGM2XiiSnNvK4f0bCOs8rn2GoHmeQsYbmxOdRPVxBGHPHYXYXerdRKV4YDbVPXa66+/3pK5GmOMMcYCAGZ01ly/ph+4hKSMlJko75n31H0c0JnuRbkoCOlygitW9yx2zUA3tff/Hi3kZtRll7jEwW1PMa9UvV0NAjTV1BAvWEwUZlLdPks7NzHv6T9b4r/KaQcuHRoa6rOmMMYYY4wFAMzYJhIifwB+gZUFrIhwoJeDH/49jcV0b3Hvrm1ksFiAKpUOE++of+wetHXTjLzudYNdHNq5iaBKk9xQhKbmBfQ3zEt1uzQVhjjood8TDtpctUJi4CpRucMS/xljjDHGAgBm7BOJTDiI8EPgSWuNClBP04YHOSDlZQEVaAtq0eEBqrEdv7Z7O+Ejd4OfmfnKxHuWdGxkv/zkT3QFWFRXy9D8JenuzNWz3/bHadryaNUCTTO9dwEeBX4W+GDImsMYY4wxFgAwY/arX/1KoyhaD1wOlKxFKqBU5IAHf09zPt35FYfDLF2Rg2hyL3tYylN//++ht3NGX/ZsfpBD256kzkWT+nMaAiFYuB/FbH2q26N5uI+DHvo9FK3sX4XkgJ/X1tU+cM0N19h5CmOMMcZYAMCMz69//WslKQu4zlqjMmo7tnDgU+tSXRbQi7CjppFCfhLP5KuS3fE0wRP3Tf+yf/v8rp5FnZvZf3DyAh0BMKdpDkPzFuIlvWX/Mt5x0JP3kO3YZp1B5dwlIr9YuXKlbacwxhhjjAUAzMRIIJuwhICVUyqy9JE7ae5vT/XHjIKQTi9IYXJyFmQKw9T/eS2amx07liUq8sLWJ2icpF0AczMhunBJ6sv+ze9tZcnj9yCRlf2rkF7gEkUtomKMMcYYCwCYibvuuuucIKuB20nKTJmJ3sw97bzwsT+RjdN9sqI3U8dQsVTxFXpRT/0T65BtG2bVdW/s7+CQ7i0VLwuYEWhsns9wyhP/1UUFXvj4nwhm+JGPKoqBG736m1etWmV9szHGGGMsAGAqFARYfV0vcCHQYa1RAarMfeo+lnZsSvXHLAUhbRpUvCxgTX8nNQ/eMePK/u2zE4tLvKD1CeYVK7frQYC52Syl+UuIU17274C2Dcx98j5L/Fc52xW9aM2aNbY7yxhjjDEWADCVnrRyN3AFVhawIsKhAQ566Pc0FdK9Bb4/W89gPg+uMpc9iEvUP3oX0rF9Vl737FAPL+rcSKZCk+DaQGhoXsBwXVOqv/fcwiAHPPwHgpwlqa+QGPg5sN6awhhjjDEWADAVJyqDiv6EpNyUmSj1NG15lKVbHyVI8YqoR9iebcTlBiszYe3YQubhu1E/S3csq7KoYyP7DVdm0XZ+fT0DC5amOvFf6B0HbH6Ihm1P2Op/5Tyoqpd3dXXlrCmMMcYYYwEAU3HXXX8dqvoo8H/AoLVIBeaCpSIHPPwH5g2lewdvUUI6HUhpYkcBwmKO2gd+jw7M7h3L2cIwL2x7kgY3sRwQTaHgF+5HlEl34r+5Qz3s/8gdULLEfxXSr+iPJJAn77zzTmsNY4wxxlgAwEyONWvWOFX9BXC3tUZl1HZu4wVP3E1NyssCdoV15Av5ca/ginrqtj5GuOGhmV/2b1/UM797K/sPdCCMLyFgCDQ2zaUwZz6a4tX/GvW88PG7yHZut4e9cu5U1ZWrVq2y41jGGGOMsQCAmeQLEQY7gIuBbmuNCohKLHxyHQu7t417MlgNhTBDuwboOBMChsP91N7/ezQ3bNecpCzgC1qfoCkaX3s2ZWtg4f4UU1z2T1CWdGxi/lP3QhzZRa+MbuDCIAislIIxxhhjLABgJt/rX/96p+itwE1YQsCKCHs7ecHjd5NNeW30vrCWwUIeGWNCQFGl4Yn1sH2jXeydNA508cKusZcFrAEa5zUz1DAn1d+vtlTgkMfuIuyzWGGFxMB1iv6+trbWkikYY4wxZmbPkawJ0mHt2rU88cQThZcd9rJOQY4C5lurTFx2qBe/8AD6mvdL7Wf0EhB7ZZ46gprsqP9cXfd2au9YAwM9dqF3It5RHxfom7sfuZq60f0ZYEFdLdH+h1CqqU319zt0y8Psd9+tSFSyi10ZTwNfWr169YZHHnnEWsMYY4wxM5rtAEjb5AW5F7gK2wVQmRs8N8TSR+9gTiHd+RUHM7X0Fwuj3tIdREVqH7sbulrtIu9G7VAvh3ZtGnUOiNogoHb+IvK1Dan+Xk2FIfZ75A6kYEnqK8ShXI7ygDWFMcYYYywAYKpO0WGSOtT3Q4oPr0+bBvU0bHuSgzY+QCblCQHbMw3EucFRXfa6tg1kHrkbnLNrvNvrnpQFXDrUtc/fKsD8hjqG5i9JdeK/jHcc+vR6Gls3gFrXUJHuFtYLckVtVGvbKYwxxhhjAQBTfatXryZ28ZPAT7GygJVRKrLk0TuZO9CV6o+ZCzO0a7jPsoBhKU/tA39Ahwbs2u5FTTHHIW1P0RDvfW43JxD8wqUUU172r7m/k/0eudPK/lVOvyDLvfcbV9600lrDGGOMMRYAMFPjhhtuiMtlAf9orVEZ2c7tHPrEXYSa3hxfitATZBnO5/dY0k/UU7fhQYJNj4K3fGV7b1DP/N7tHNTfuseEgDVA07xmck3NKOld/RdVXvDEXYRdO+y6Vupxg98TcPXqG1bbcStjjDHGWADATPGAX6SLpCygZXirBBcz/6k/s7RjU6rLAhbDDF0a4vewypsZ6KHugd+heTsDPqrnKCpxcNtTzCntvr0asjX4hfsRhZn0fgfgoI4NND91n239r5xehIuuu+66fmsKY4wxxlgAwEy5VatXeYTfAtcCdtC7AsL+Lg5+9A7qSvlUf87umjqG9rALoP6J9aiV/RuThoFOXtC9Zbed39zmBfQ1zEv1568v5jjo4T8QWrWHSnHAClH5gzWFMcYYYywAYFKjtra2H+FikjJVZqJUadrwIAdvfyLdsxMJaA+zuNzQc1Z86zu3UvPwnyzx3xiJi9m/YwP75Xqf2eQvwOK6LMPzl6T7s6McuP1x5mx40Fb/K+cx4FIVtRwrxhhjjLEAgEmPlStXIirrSaoC2Oi/EhOqYp79Hvo9c1NeFrA/U0d35MAlx5PDqEDtg79He9rtIo5D7XAfh3ZsIFtuz7pAyCzaP/Vl/+bmhzjgod9Z4r/KiYDLDz/i8HtXrVplrWGMMcYYCwCYdPFJprdfAHdbEKACVKlv38zBT64j49Od+6sjU09pOAlU1G5/ivDR9Zb4bwLXfVHnJg4c7CQAmhsbGZi3ONUPVOgdBz55N7UdW+36Vc6dwC9aWlqsJYwxxhgzK4XWBOn2xBNP8KoXv6rPBc4J8i6gzlplgpxjzkAncfOS8iQwndnfXRAgLmZxz3Ya7rweutvs2k1A4B0NpWFc82Lig19Crr4pvZ9VPYdufYQXrL8JGbad6hXSC3wtdOEfH3vyMQumGmOMMWZWEmuC6eFDH/rQvECCnwB/bdetQhPseQsZOOQviOfvD0EKY2HqqO3rZO7Wx6Cvy1b/K9LjBbg5zQy+6NVEzUtS+SiJiwi7W5m77UnCgW67ZhV63IFfSiCfvu666/qsOYwxxhgzW2WsCaaHoaGh/jlz5lwiyDuAhdYiExf2dzP/4TvTOfkf4f1uqwGYcVJPONBD8wN/gCDFJ6C8s4BPZbUCl2azWZv8G2OMMWZWs5XkaeTYDx07R0TOAv4VC94YY8xoxMB3ReV/r1tz3ZA1hzHGGGNmM0sCOI149UOC/Bh4wlrDGGP2SYGHgcvFy7A1hzHGGGMsAGCmjeuvv15V9M8kZQHz1iLGGLNXQ8D/hZnw4WtvuNYS/xljjDHGAgDWBNPLqlWrvIj8AlhvrWGMMXv1Jwlk5TXXXGOJNIwxxhhjLAAwTQlbgIuBHmsMY4zZrW7gYhw7rCmMMcYYYywAMG1dd911saI3ALeRlLcyxhjzrBj4NXD7dWuusz7SGGOMMcYCANPb6tWre0XkIqDNWsMYY55jK3DxqtWreq0pjDHGGGMsADAjKHoPcAXJapcxxpikP/y5iNxnTWGMMcYYYwGAGWPVqlWDKD8FHrXWMMYYAB4Q5PJsbTZnTWGMMcYYYwGAmXUBffA48BNg0FrDGDPL9QGXicrTK1eutNYwxhhjjLEAwMxy7Q3XxiJyFfAnaw1jzCz3R0VXXLvmWjsWZYwxxhhjAYAZSmknKQvYbY1hjJmluhS9SFUt8Z8xxhhjjAUAZq5sXdaJym3ADVhCQGPM7BMDvwL+UCqVvDWHMcYYY8zuiTXBzPHhYz/8NuCnwIutNYwxs8jjKB9ftWaVZf43xhhjjNkL2wEws9xLUhbQWVMYY2YJD/xckAetKYwxxhhjLAAwey5mGOQFuaIcCFBrEWPMDKfA3QhXaaB2/MkYY4wxZh9Ca4KZ47HHHuPlf/HyXkUzwNuBOmsVY8wM1g+cpehvV69ebUFPY4wxxph9sB0AM8y1q651orIS+L21hjFmBlPgdlH51erVq+3YkzHGGGOMBQBm6ahYtBtYDvRYaxhjZqgu4JLr1lzXb01hjDHGGGMBgFlr1epVHuW3wEqsLKAxZuaJgSuBO6wpjDHGGGMsADDrFUqFAUUvBZ621jDGzCAKPCbIT8JMOGTNYYwxxhgzepYEcIZ6+umn2W/Jfm319fXzgXcDYq1ijJkBSsB5A4MDv7zxxhst8Z8xxhhjzBjYDoAZbMHCBYpwJXA3VhbQGDMz3Inyi7Vr11qfZowxxhhjAQAz4rrrrgPYCFxMUi7LGGOmsx7gEo/fYk1hjDHGGGMBALOLVatWOa/+GmAttgvAGDN9xcBvFP31mjVrrOyfMcYYY4wFAMzuDA0N9QMXkpTNMsaY6WgHcHEcx7abyRhjjDHGAgBmT9auXQvwJ+AKILIWMcZMMxFwuYis+/Wvf22tYYwxxhhjAQCzV8Igwo+BJ6wxjDHTzMMolzvvhq0pjDHGGGPGz8oAzhKPP/44L3vZy7oEaQLeCtRYqxhjpoF+4Psef8OaNWssj4kxxhhjzATYDoBZZPXq1U5VfwHcY61hjJkm/iQiV1viP2OMMcYYCwCYsV5wDbaRlAXsttYwxqRcF3CxV99mTWGMMcYYYwEAM0bXXX9dHPjgJuBWkrJaxhiTRjFwvaquXb16ta3+G2OMMcZYAMCMx7XXX9srIhcB2601jDEptQm4ePWa1X3WFMYYY4wxFgAwE6GsB67CygIaY9InBi4H7remMMYYY4yxAICZoNcf8fpBEfk/4BFrDWNMytwnyBW1dbV5awpjjDHGmMqxMoCz1Nq1aznssMN6gVrgyPI/jTFmqvUJcg7Kbb+69lfemsMYY4wxpnJsB8AstmrVqljRq4C7rDWMMSnxRxW9+ro111mSUmOMMcYYCwCYCusALsTKAhpjpl63oud773utKYwxxhhjLABgKs959bcBq7GygMaYqRMDV4nIH1VVrTmMMcYYYypPrAkMwIeP/fCRwE+Bl1prGGOmwKOqeuLg0OADa9eutdYwxhhjjJkEtgPAAKDovYpeDljSLWNMtXngZwgP2uTfGGOMMcYCAGaSOeeKwFXAPYBtvzXGVIsCf1L0F6tXr7a+xxhjjDHGAgBmst1www2o6lPAj4ABaxFjTJX0AcvDMNxsTWGMMcYYYwEAUyVr1qxxiv4SWGutYYypAg/cqug11157rbPmMMYYY4yxAICprh5gefmfxhgzmTqA5atXr7ZdR8YYY4wxFgAw1bZ69WoV5A/AL7CygMaYyRMBVwB3WlMYY4wxxlgAwEyRbCk7KCqXAk9ZaxhjJoECjwL/59UPW3MYY4wxxlRHaE1gdvXI04+w9ICl7bW1tfOAd2GBImNMZeWBHwwMDlz7m9/8xjL/G2OMMcZUiU3szG6tXbtWebYsoDHGVNKfgJXlfsYYY4wxxlgAwEw5YRNwCdBrjWGMqZBuRS/x6rdZUxhjjDHGWADApMSqVascyjUkZQG9tYgxZoJilJtU9aY1a9ZY2T9jjDHGGAsAmFQFAdas6hfkAqDLWsMYM0HbCbh4zZo1/dYUxhhjjDEWADDpvEvuBi4nKdtljDHjEQE/E+ReawpjjDHGGAsAmPQaBH4EPG5NYYwZpwcVvdzK/hljjDHGTB0rA2j26fHHH+eVL35ltw98A/BWIGutYowZgz6E74rITatXr7bM/8YYY4wxU8R2AJhR+dWvf+VE5BfA3dYaxpgxukNErl61apUl/jPGGGOMsQCAmQ587HcAF2MJAY0xo9dZ7jc6rSmMMcYYYywAYKaJ1TesjhF+A9wCxNYixph9iIBVCL97/etfb6v/xhhjjDFTTKwJzFh9+NgPvxP4CfBCaw1jzF48jvB3q1atuseawhhjjDFm6tkOADN2wr3AVdguAGPMnsXA5SgPWlMYY4wxxlgAwExTtbW1Qwg/A+4HLKO3MWZXCqwDrlS0YM1hjDHGGJMOVgbQjNkjjzzCYYcd1gvUAm8r/9MYY0b0A990zq1dc/0aCxIaY4wxxqSE7QAw47Jq1SonKiuAP1prGGN28VtFf3n9Dddb4j9jjDHGGAsAmJnA4zuBS4Buaw1jTFkXcBFKvzWFMcYYY4wFAMwMsXrNaoewFliFJQQ0xiT9wC8UvWP1mtW29d8YY4wxxgIAZiapra3tJ9kFsMFaw5hZ73FFl8dxPGhNYYwxxhiTPpYE0EzII488wmF/cVgHMAd4NyDWKsbMSg7lu6vXrP7VU089Za1hjDHGGJNCtgPATJiqRsAK4G6sLKAxs7IbAO5AWGlNYYwxxhhjAQAzg61evZpMTeZp4FJgwFrEmFmnF7ikJq7ZYk1hjDHGGGMBADPD/epXv3Lq9VfAbdYaxswqDrhZ0dW//PUvreyfMcYYY4wFAMxs4GPfj/J94EnsKIAxs4ECDyl67uDgoO3+McYYY4xJOUvYZirq2GOPrQHeJMgngbcCddYqxsxIw8AdwGWCrL9u9XVWCtQYY4wxxgIAZrb54Ac/GIRB2AjUY7tMjJmpPJBXdHj16tXemsMYY4wxxhhjjDHGGGOMMcYYY4wxxhhjjDHGGGOMMcYYY4wxxhhjjDHGGGOMMcYYY4wxxhhjjDHGGGOMMcYYY4wxxhhjjDHGGGOMMcYYY4wxxhhjjDHGGGOMMcYYY4wxxhhjjDHGGGOMMcYYY4wxxhhjjDHGGGOMMcYYY4wxxhhjjDHGGGOMMcYYY4wxxhhjjDHGGGOMMcYYY4wxxhhjjDHGGGOMMcYYY4wxxhhjjDHGGGOMMcYYY4wxxhhjjDHGGGOMMcYYY4wxxhhjjDHGGGOMMcYYY4wxxhhjjDHGGGOMMcYYY4wxxhhjjDHGGGOMMcYYY4wxxhhjjDHGGGOMMcYYY4wxxhhjjDHGGGOMMcYYY4wxxhhjjDHGGGOMMcYYY4wxxhhjjDHGGGOMMcYYY4wxxhhjjDHGGGOMMcYYY4wxxhhjjDHGGGOMMcYYY4wxxhhjjDHGGGOMMcYYY4wxxhhjjDHGGGOMMcYYY4wxxhhjjDHGGGOMMcYYY4wxxhhjjDHGGGOMMcYYY4wxxhhjjDHGGGOMMcYYY4wxxhhjjDHGGGOMMcYYY4wxxhhjjDHGGGOMMcYYY4wxxhhjjDHGGGOMMcYYY4wxxhhjjDHGGGOMMcYYY4wxxhhjjDHGGGOMMcaYmU2sCYwxxkxnK1asIJPJBCISRFEUOOcEIAgCDYLAF4tF97d/+7dqLWXM7rW0tDBnzpwgCIIACEbGhyKiNTU1DvCf/exn7RkyxhgLABhjjDGT7+c//7mE2WxjGAT7o7pYYbGoLkBkLtAENAIZoAYIy3/MARFQAoaBAedcv3rfo0HQhWpHAG1hGBaXLVtmjWxmtAsuuCDw3jd79fsruh+wSJC5wMgzVL/TMxSU/5gHikBR0ZwgQ0Af0At0KtoWl+LOf//3fy9YCxtjjAUAjDHGmDFZsWJFjYrME2hGdT9EXg0cBrwUWFqeqNSVJyt15cnKzpP+PYmBknOuT1VDoADkgQFgG/Ak8JCqPi7QhUhvIDJ44oknOrsqZrq4+uqr2bFjRz3QDMxT9ACU1yC8ovwMLQAayr/qgGz5V2anSf/enqGRgFqh/CsHDAJbgScVfQR4TJBORfu894P/dvq/2TNkjDEWADDGGGMSl1xyiTTPn3+oiLwWeA3weuBVwMHlyb1U6H3lvffbvfcH7/Lfdad/5oGNwP3AA8D96v39Tz75ZFtLS4tdLJNKF154Yb1z7mWq+vryM/Qa4IWK1pIEzir1DO3Jrs/Qhp2eoT+r6AP12fqOT3/603aMwBhjLAAwcY8//vgihC8CR7DvCPaIvHd+WFUXjfy7c3HRe9+8jz+3Q0RaXvOa1z4+ndro3vXr64CPAH9HslV2X1wUx6KqQQU/Rg9wjqredeSRR/rR/qG77rpriap+qTwpSNs9q8CwCL2ASrIdeY4qOe+dj6LYuziey75XJ3f7d6tqoRTFI1sy93itBOkNAmlCRrUSuqsc8PPGxsYr3vrWt+51cPab3/xmjoicArx/DM/aRHUA5wRBsP69732vnwl91urVa14kIv8BvGQU93TReVdQr/MmMvEFHgT9xnHHHdc61d9/xYoVIiJzFA4A3gy8D3g1cCAwf5zPy6jaQVW7nXOLR/n7Y6CTZIfAfcAtAutUtWPr1q3DZ555Zirvr8uvuOLVInJmOYCyz+/o4jgfR1HDONo9Bn7tVZd/8pOfHLAhVfWcf/75Naq6QFVfDBwFvAs4tDzZbyz3Kw4oKFpfxf56d/dIB7AdWA/cDNwnSMf+++8/bEdvKu9rX/vaIpHgP8pj4r0pRFGk3vv6CYx/ngT9RhAEG2ZTgPTMM8+s814/AXwMqJ3kH5cHPVeVX3/729+aNgG0M844IxSRI1Q5rfxuV6Bf1deg2jDOPslHUTzsvZ8zyt9fBH6O8IvzzjuvaL3DszIz4Us47w4Qkb+XRAPJ1tB9DaoLCDmUBUDJezdUnvwHexg8D6kSgR6h3t8MTJsAwMMPPyzFQuHDwNnAQaOdRIvIsKo2VvCjeFW9Q1XvLT+Uo50Fvxr4BLA4pU2sqsnqh6oCDKr6niiKvXPxUpKtluMiIoUwCPIuuTdlz29hdV51SBBXfgbqxvgS1ziOV5Bs79zb55kH/C3w8iq2r0+eUX8q0D3d+6trrrkmFJF/IQnGZUdzfQQZKg/iJ9JnvxbkCmDKAgBXXXWVSBguBd6m8J5yIOmA8gCqGhOUgGRrdGmUbZ8pT6iWAocDn1DYgMhvDjrkkNt+fsUVf1Lnev7u7/4uVfeYiBwN/E35XbjXyZl3bsjFcf04B7EO0EDk9vLkzkyyiy66KBvH8cu99+8GjgbeBMzh2Z0yOwtJcl/IRN5DFRhnHlD+dTjw98BTiv6mta311u+d9727P3fK53rsylZGS0uLiMixwD+QBFP3+F713ver+voxjhd29WaQJ7z3Pyj3q7OC97qgPBZ6F5O/MKUg7SLcVO5zp4vXqHIO8I6d3u8qEvQrHlTrxnrvqeqgJn+uZpRj27yiPSg3jGXeYQGAaSKO4oyINAGRiIQiMihB0B8E0gDMExFffkAzOz2otYIEisbe+5xzfk75Bo3LE45AVftVNQ/MVyWDqgA1MrHOsqruW78+UywUjgb+eyyT//IgspfR7RYY7STuzyKyVlXH9JIQkXpVTfO9KuXvF6n3g877Bu99fRRFTUAxEMlO4FmrDcMg51WL5U5vT0JV5qlqUYSiiORFaBplJylA1jk3mglYP3AL8DImb5V2d5O2o4EP3XLLLT973/veN213AaxZs0ZA3gosG+UENHkEgqAoqpkJPAceuFOVLdX+zrfffjtdXV2NiLxQVf8a+EuS7f3zmIIdPSJSKgc3l4zxj4bl/vDVwCsF/k5E7ieTWXPFVVfdiPdbnnjiiUJKVsFGEyyKvXPDcRTVq+r4V7CSIHENZtJ873vfC8IwXCgih8dx/DFVfQvwolEGbaZy9X93z1ADyfGEVwF/F2hw/w/O/cFq4EaUrb29vUU7ajN+2Wx2sSrHkQQ69zaRKjnnAtUJj2frgI+qykpg02xpZ1VCEeqq9A4T9h3MTY0zzzxTvNeXAV8H3r5L/yNAs0hQQjSnqgVUm0Y7RlbVnKrua+yUjMdVB7zqAOh1muT6MTMtAACIqtYD9eUV2BqcaxBBQKIgCHpEJCMi80SkgOBFpAlhSFUj71yoqoOgDSh5RXOqOh9NkuiUX1qy0401Ldy7bh2q+jZEvlGesMkYe5xKRhqfAFpE5N59bTOfZjww7L2PVVW89wsA55yr02SLU0khVz4aMM75iswLRPrd3gMAzwQMVDWrqiUR6RehTkTqKzVZF5EhVf0Z8AGSxGzVsgD4J1VdC2yexl1VM/Bp4AVjfBYXAEMTGAR0AZeJaFVX/39x9dW1nd3drwU+iupxwCHlSctUHuUJBDIT7IQCYAnJ0YW3ofqPiFx92GGHrbnqqqseOfHEE6OU34jOxXHOxXF2QpN/CBBpRO1Y92S44IILUNVF3vujgI+p6rvLY5KxjN2aSHZOTfVzt7tnaD+SXUBvB/4J4ar5C+b/+pJLLnnk05/+tCUOHKOzzjpLVHktyYrr3q61994PjeLI62i9VoS3z6YAgNnbzaUvAL5Wfj/uaeyZBakRkSJov6rPkuxk2pvYex3Z7bTb+ACQV9XYq8aKisAPgetcHJfsyszMAMDuXixBMibR0Dl3wMigR0QECCQQh9IbxTF4v0QhLq/wz2fv26amhfXr1wcKhwt8g2TFajyTvaYKfBQlyQ7832EY3vjGN75xprzUY1XNq2rJe1+rqnNGnidVzXnvRzIq13rVUiDSL0mppfEMwMIwDGq86miPZEg5EFCjSl6EXhFpFJn4Nuv3ve99esstt/xZVa8AvkDldoiM5ju9Cfj4zTff/IP3v//9+el2w6xYsYLyYPevxxGQCYIgyDnn5ozjHlJgjar/zUc+8hGt0netV3i5qP4D8FfAC6nejpF9qUUEVD0TXxkd2Vr9OuBVCieq6prLr7jiZwIbTjrppDSWRnMujoddHNfo6IKK+/r+jSTvVVMh3/nOd4JMJrPAOfcukq3cb2cfK7p7fZUjsSZRmjRep5Fn6PXlsconisXiNd//wfevRNh4+qmn28B9tB29Ug98dF9jWFUd9t7VVXAOUAuc+OUvf+War3/9a8N2JWanM844Q0SCJar6VeC4UdxfAtQhkhUJhlS1p7yjLLuHviqvqhHPP840suI/6FXrFK0jOc76Pa960cUXXZSzqzN7AgB7nEip6lwAdToQx3HGe7+QZIW2XpIbpob0bJcb7+RfgFeUJ/9vmsBfNY9kF8BEBu4dwNlhGF7b0NAQzYB7KFLVUnmS36iqzbu0T+ydK+yUXFKAOep9vwRBgXGu4IpIXRAEA865ujFcjwBoTFb4dAikJMlxhAltJXvf+94X/eY3v7m8fM74rVVs+zqS86M3Mw3PG9fX1y8mWf0fb2BtfnkHxpwx/rltwA9Fgkl/CV511VVhEAQvRORjkuQ4eCGjP+pQLYGIDJT7t0oe58qQbGt+iYj8FfDzK666aiXebz3ppJPSsnPMe+d2nvxXZEKoz2aANxPQ0tLC/Pnz64G3iMgnSY7LzK/AmGQBScm+hpQ3QQZ4taIvFZEPAj/+/nnfv9aLb/23k//N7rF9jxReBvq+ffym2Hsf+4klld3dRO71QRC+raWl5Td2hGP2OfPMM/FeF6rql4ETxji/DEDmiIhHtE+9ZtlNziPvfUaTxbWdXj3PrPg75ZnxeBH4GXB+Jgz77epYAGBnhfKW7cXlyVCTqkYKeYE+RAJJtqIETLNKCfffc4/E8CJJzt68d4Kf35cnHAvG+ecHge9673/ylre8pTCN7xcFnKr2e+9rVDUoT/Cf17aqOuy8b9zlfxOFuV51oJwPYDwBlZowCDLe+1L5uMuYnnNVmpNjAQyXcwQ0TeT5F5HNwCUkKzZzqngtXiIin7755ptPm067AK6//vqsqv49Scb78bY5IlIcYwCgAPwU5L7jjvvwpA2gf/HLX4o6NzcQOQ74DMmKeDat16OcMHYkaWel1QGvBQ5D9UOIXHL5FVdcH4gMfvzjH5/KSYwrn/nPVHLyn3RwOiOqc0yVH//4xwwNDWWAF6vqPwMnkmTNrtQ18iRnYBumQXOMnHd+A/AKUTk21PDic8879xb1mjvttNMsELAb3/jG2Rnv3UfL982eBzOqQ865yUi6ur8If+Mcd5bHfmaWaGlpoVAoNoH7N+BfGF9gXZKxsSyQQPKoDiia3alagFNlSJNk4J5kF+6AV60tJ0geORYQAysFzrrwwgvb7ersNeoy68Te+7z3Pix3UiMv2BpgrsJcVa1X1R5NztzmmCarG/fee6/4IDhY4H9IkqZNaPAgIrEkE4jxGAIuAC6rqamZrttvFCiUX5h9cRzP8d43aZKwRHZ7bznn9nCmNlDVOlXtZZy5FUSYE4bB0ATux6yqzvNe67zXPlWGGGdOi97e3lhVfwPcSnWz0tao6jHAe2655ZZp0X9df/31osorQP6RiR2ZyIpIDWPLZPswyE/mzZszacGSFStXZkT1DUEQ/AD4Fsmuo2zKL0slVlVHEwh4J/B9EfmOwut+/OMfT9U9671zufLkfzRVcsY6cJuNY4mKyeVyC1T1eFX9CXAyY0zYO5p+U5A5TKMcRmUNJPlmLlDVFuAvzj33XLvXnj+px3t/aLmt9jb5KjnnqMDRnz3NJ/5KRF/8n//5n3ZRZpHBweEm59xngU8x8V11yZEgkXkigSfZrZcvv8QAcqo66LzPOfXzlOfkBIiB3wBnqeo2uzJ7N9t2ADhV7S3Xj1RU4z20SUZhMapJAjcoikhIsnU3lcGAdevWgepihZHtN5XIyhyISDiOBE8O+JmqfuvII4+cjuV9FCiq6lB5xb92NKuuqppz3tey5xX+Oq/qApGhceYDCAKRRhHpLx89GO9Luq78nQZFpD8IpHas93W5dnPbzTfffEl5wndAFa/PgcC/qup6oC3tN1MQhFnn3D8Ar5zoi1FEVET8KFeuI+DS44778NOT8b1Wrlwp5SNVJ6B6KuPMNTJFakSkVVWXTvLPEZJkgZ8E3lBbV/eDK6+88pr6+vr+4447rpqT/6Hy5L9hEr+nGaMLL7wwEJEXee//leSs/8JJ+lEhzwbzG6dZMwXlPv90hLcqes53v/vdmwcGBnK21Txx9tlnZ0R4RzkB4B6HKOXFrzomL2B3CPBBVb0fOxY0K5xxxhm1IP+PJCfUggn8VbrLPSPJnCuIER1W7/qc94H3GinauJv5qwJ3AF+66MILH7MrM7qOdbbwqtrnvW8iiVAFuu+kOlmgWaHJq9Z61U6FYU1ZFP32229HRBYAXwQ+TuVKMtUw9uz1JeBq4Bxguk3+PZD33vc454pxHM/13s8dZbQ8Lh8r2df2/EZVDRjnzgoRqQvDQMqTu4kO2Oeq6hznfKSqg86NayH/j8A1VP+ZeLeI/PUdd9yR6onHddddJ+VEXh+p0F85V0TyoxhcOeBm0Osn43tdccUVgaoeVq4wcg7J2fdppVwetmo/juRYwHcVvp4vFF7ysxUrqvH+1fLKfzCOo0PjHbiZUVi+fHl9GIYfFJHve+//3wQHz6MxGdu+qykDHKmqX4vj+PP19fUHnH322RZ4AuLYzVfVj7LXspBadM7FE6z6MRrHich+dlVmy+SfE/cx+fckZaxzqjqkqoPlChQ5733Je6/eu8jFcV8cx21RFG0tlUqbS8XitmKx2FkqFoulYnFOKYq8975J0d1VQfHAA8BXnHMP2ZWxAMCuA5S8976uPAhSVLsY/VnsmnLHup8mtbhTEwBQVRobG5uAU0m231TyPHYoycA1HkM73w586S1vecumI488cjrdH4Pe+4E4jgvOuXne+3nsORPp7q5DwTmXHc0zpaoNXnWQsW3lfuaZDYMgE4gUKjTozgDzvNe53o/9to6iaAj4MbChytesUVX/OZ/Pv/D2229P6eT/RsKwZhFJ4r+DKtVnlyeuuof7OKeqrd77Ld67C0ul0vZKf68VK1ZkMpnMOxBZTnLebz7TcwV4IdUNXI1Umfm0qv44dO6oK664IixXh5gMIyv/7OXYkqmyiy66iOXLl89T1c8AFzjnjlTVhVW4Pk2C5Jh+xwB25lzsDlbVLwIXAq/95je/Oavv67PPPhsReTP7yC/jvR/23lejr36ZSHBMS0uL9Tcz2Oc///mMqv6lqp6hXuu999udc1udi7fHcdwZR9FgHEUuikoaRVEpKkW5Uqk0VCoWB0ul4lCpWMyXisWoVCxqqViqiaJofhxFB7g4foF37oXe+0PU+/1U/ZzyvGuO7vl4wQbg30vF4h+XX3KJ5aOxAMBzJlxF51y08/ZHHf93r0MkNUcn7rvvvoZMGH5W4LNMwtY+ERmU0U1UHfAnEfnym9/85o3T5NaIVTXvve+M4zjjnGtS1fmM/WiM997nx7C9NlTVBao6zPjOzzeGYVAcQ2BmVGpqxr5x5JhjjlHv/UPAT0nyZVRzMvVq7/0nnXOpTGwVBJoBjiHJxxFU8JmcIyL9PJujoqCqPd67HVEcBXEcz4ldvNZ7f/uyZcsqtjK7YsUKVq5c2YTIP5Yn/29jGh8jExCB3in40Zly210E/LNzbu4kBAFGVv4ZZelQUwWXXnppEATBoar6LeAr3vt6l+xKrNZkKWYa79ZQ1YLzbqRs4IeAS0XkQ2effXbdbD0OUH7/Hc9ed7Tq4CQl/tudOcBx3vsl9sTPTKd99rRMqVh6f6lYOqtULL2sVCrOiUql+VGptDAqRfPjKJoTx3FdHMeBi13onJvjvVuk3u+vqgeg7E8SgG8c7T0pSJPs/vfuAL4ssPaHP/yhTf4tAPAcBe/9QPkMtzwzWR1/ZvvUuG/9+jpU/w44A1g0We8XRPY1YFDgEeBzdXV1906DktAO6PHeDznnIufc4vLOkHFNZlR1wDnXOMbnKeNVG0iCAOOYXAbzwiAYSENjHn300cVy8qo/V/lH1wL/5L1/XSonmOIPAf3/qHxgTkTo894POueGYhfnozhqjp07UJMauD2oXnr88cfnKvxT5yt8HjgbeNm0f3+IOBGZqtKkArwUkXOALznnFld0lhdFpTiKdJf3npli3vtXA5cC/6iqmdi5BlSrmTBzAePbeZaK97Z3vqT+mXw8IUmlgOXAP9TW1mZn2/3U0tKCKq8B3rWX8UvsnC95PymJ//bUt70b5LW2C2DmOf0zpwcq+ibgHFV9uarWlBNcN5AE5hpIVuprJuHds+uYpgv4isC1F154YWxXZ2xmehLAkvd+uFzGbuft/r2aJGGbttavX59VWEaS9G+yEgchIvuaGCvwFPClUql0z1ve8pa0ri4oybn5fHk3SJMmA6+JTmJi7z3jPFdX61QLQbLLYqyrQJkgDEKvmp/Es71jCUjsAC5W1ddR3VJT+4vIZ2644YY/H3PMMampNnH99dfXqvIPwGsq/FfH3vuBOIoXxs4NAw0IDTvdOyXg/8pJmCri6quvFoUDFP4L1ROZ5n3nzs8fIvPKtQCnaqA6V5Os70uvuOKK/wU2nnTSSRNexXBxXEPSp5gUuPjii2tE5K3AN0i2akfOuYJ6X+2FiOlUDvC5L3DV2Dm3u0nF/sB/B0Gw6Jvf/OZFYRh2n3HGGbPivspms/Wq/CVw8F7areCcG/cCxzjNAU5Q5feUM7ibUT+fMYrXZ7Nvj1RZ8VO9eeeUU06R2MdvEORbwCuq/N70IjK40462fuBsFbnqogsuKNmtM45x+0x+kMrbu+fspuOb1tvg/rxuXY3AXwL/vbeOv1Iduez9xbED+LKq3vzOd74zrdtviqra75wbiOO41nu/sJzYb8L3v6qWnHPl+qVjj68A8zSpRjHWpIASiDQEgRRIwZnOIAi8qt4E3DgFz9bRNTU1x9x8882pWG244YYbRJXXAyeR1LOulHzsXH8cx3M8GqI6H9VavA6i9JUn/w9KUoGjYsEQVU22LKv+wwya/AOEkuTSmOoV0SbgE4h8m4lXitj53W6rbymwfPnyQEQ+QHJm/S1A4L3POe+bp2AMNl3LAeK97y9nsN+dJcCXROQLzrkFs+Xe8l4OJEkwu6fxR+ycK07RIsF7VfkL6wGeeZM6VR1U1W7vfbv3rs051+Fi1+viOB/HscZRFEWl0nAUlfqiUqm7VCp2lYrF3mKhMFgsFuJicepeVV/4whdERP5CRM4mCWJWu+/S8hgHYBi4UODSiy+4wAJMFgDYdcyqQ977DM/PiK/lEmrTcrvYfffdF3qR9wLfBA6txj2y03njXbUDX1PVVUceeWTaInAeKKlql3Ou5Jyr22niX6mBsZZ3mEwk8aKo6lyvOp4z/dkwCEIRmfK2f8973oOIdAIXA9ur/OMXAv8f8ILbbrstBZ0PzSRl315UqXtZVXvjOI6di+cpWgsUESKSrXbzUa1DtR24LJPJPHXiiSdO+IdeffXVwcqVKw9T+A7JGdMZt8VWREpVrgawJxngQ4h874qrrnrDlVdeGWKm+yCEH/3oR9lydvaRFTNUtS92LoPqVOzADEh2wg1Ps+bMe+fr2PtiREP5PfDVc845Z/9vfetbMzoA9o1vfENE9BjgxXu8Bb0f8NXNMbGzA0A/+uUvf7lmhj7fql598k/vvHf9zrm2OI63RFG0KSqVtkSlUlupWBwoFYuuVCxJqVSsKRWLdVGpVF8qlRqiUqk+ikq1URRl4igijuNa59x859z+3vuD1OvB5VK1C1GyU7VsecIJJ1AoFF6mqt8E3s74Frwq8cKG5BjA/3nV71x44YX99qaxAMCuD+aA996Vz6Ts2vGNrPhMu+9+//33B6r6RuDrwGFVfOiGdhMA6Ae+B1x+5JFHpulMoQJD5fP9g3EcN3vvmyo88R8x5JxrqsC9FKpqrar2M8aVGRFpCINgmBTsaHnf+96nNTU1a4E11X4tAO8A/tp7H05x34Oqvgf4cIXut8h7PxjFUei8a9ppABzDMxNXAepRHhJl1Uc+8hFfoQfpxZpMXI6lcqVF02Zuir5bBng3SYK4N9jwZHq77LLLMnEcH0uy7X9kJTR2zqHJpGyq1DC9jn+q9z723o/mTPEcEfkXVf2Cqi6eyfeX935RuW/ew3EOLcXOiVY3x8TOaoG/DMPMoTOx/aNSUUulYrFYLLpiqRiWiqU5Uam0JI6iA10cH+ycO9A5t8R7P8d7H3rvA/Vap6qNqjoXZS7JUYkGJue8fMUsWbLkAPX6VZSjp7DvGMkudh2q3+jp6uq2t4wFAHY17L2X8ir/7h4oh2o03b7UunXrJI7jw1H9HvC6al47eX7VgwHgYhG5+C1vectgSpooJimB1hXHsTjn6r33C8ud1WR0rM4551S1UpOHep8kUhkY42Q+EwSSlSRIM+Xe/e53RyRJrp6egkHtJ733r5jEsmp7tXr1am644YaDSMpxTjQppyqac84Nxi6uU9W5O9/H8vxbuh24RNH2iX6PFStWyMqVK19QjvYfw8zOFVMvMEh6joSFwDsUvnXFlVe+6YqrrpotpXpnlIsvvjjjnPuQqn6NZIVWyhPZ/nLW9qkc7DeSrKK5adKcsXe+MIZt7PXAv6jql88555zF55xzzoy7v84559sByDuAw/dwL6n3OjiFq/8jXg2867/+679m3DvEqxdVDVHtQZ95nkaOg478mvZHsU4++eQDAgm+SnLUpHYqm1xU/iQi/wlsW7lypb1oLADwHJH3PionidjTQ1ej0yw50sMPP4yIvFjga8Abq33d5Ll1vovAlSLy/Te96U1p2H7jVHXQe98fx7GL43hB+fpP6qqeqpa891rhyVGDqoaM8UyyiDSGQRCnZUAXBMEjJGUBq3026zAR+afm5uYpKXsmEmZV+WuSEm8TeUa9quZc7PKxi5t3m2BSyOxUEicGbkK4fdmyZRO6B375y18iIgco/C/wQaZqq19Vr5ukbTt0CIwkjHsNZlpZvnx5KCLvFJH/IamWMfLOGI6TajFTfpRGEMc0yYNUTmI31twjTcA/qepnvffzZto9FkWluSSr//P30Go551wdU7+7KQscXz4WN+NeHeX2XVj+/3tJAmuDTOMcYzs75ZRT5gnyOeBvSY4bTlk3ANyp6DfDINhw0UUXKcYCADsPmn1y3qlhL4NWX06OVT9dvtTdd99NMZ9/iSTncN8zRQPy2p2SZV0DfK2urq5tCsv9aXmy2+ecG3DO4ZybXz6LH1bnZtNBnyRxqugLRZOdAEM8m+xklHNuyQYpmci8973vLQA/Ae6t8oswC5woIm+9+eabq963ifAXJKv/EwlARN773iiOxHm3YC99dO1Og7tNwMXLli2bUFnIFStWoKrNCl8CPsbURvureeHSODgNSY4DfO3KK6881IYq08Oll14qqvoGkmN6r97p+S045/LqfVryaDQzPcoBehe7WMeXL6EJOEVEPnXOOefUt7S0zKAui1cCH2APu1yTsn++LiUf9wgRecdMav9dggBheU6xhGRBSIG+ckAgYhom3AQ4+eSTm1E+B3yaqa0a4oF7Ub4UaPDAeeedZ5N/CwA8t8NT1e7yFrHsPiaOQ9Ppi2WCYH9Evgz8FVMUzRWRuNyZ3SIi/10qlba/9rWvnaomKapqznvfE8dxnfd+bnniX817edh7t7ddJhO65Ko6T1UHGcOKvojUB2EQlV84KRigyDbgR1PwvO0H/DN7XBmZHKtXr67TJEv+eHNzqCaThIHYxU17yF+ys5G+LgKuAB6Y6HdQkUav+hmS6gWzpqa2iNSl5QjNbt7Pb1E4woYq6XfZZZeJqr4I+CrPzeGg3vuCc66Z9OyoEUEG0t6m5WTONRNot/nAaar6kfr6+hnRp5111lmhKh8BFu++yTTnnMuQnqNb84HjvJ8VZUlrSfLKzCUJQPWR7AgYSsvYbDRO+/9OqxXkH4DTSfIUTKXHBPmqIHefe+G5DlO5ycaMmP07pyTbp/cVpRKmSRmr9evXo6r7efiCqL5XkuV2z9QEbVwg8sfY+6977x9/5zvfWdUInCZ1uiNV7fLeZ1U1o6qLmJqzVb4cXZ/Ml1mNV20MYFhE5ozyewZhEDT4QPPlAdOUet/73qe33nrrGu/9B0nOjlXrWgnJyshf/+53v/tJNUpTrlq1RkTkbSSZ8mvHeYv3xc6F3rt5o+yXA0QKqD6Acvkjjz0yod0fK1asqClfp89VO3iSArHAoE79QOd5fQ3wEHC/DVXSz3u/WFW/BLx/52dYVfvjOA5JXyLN2vIEpQfYTFLSt5Mkwe/OZ5oz5UnAfJJVzoOBQ8oTnBqSYOGk5NnxiYmsPgpwIPAVoO2b3/zm7V/84hen7QriJZdcQldXz0tAP7CH+8l770qqujBFHzsE3q3qX3P66aff+f3vf39GrOAGQaAoLhme7vY7h+UgjS8HAQokC2nzeTY/QKp85jOfQUTqvPhPkOwEnMrjMwpsBVqA35x7gU3+LQCw+9FzhtFtUcmVz4dPh+80HzgV+BeFrKoOiYiTZ1f+qnntHg2C4Hs499Bb3/rWqnfe3nuvqkPq/cE6eUn9Rntdit47rcJgrlaTM/TDMvqcFXVhGAyr+kg1FYPNLlUuBV4rwguqeM/OA/6pWCz+7qabbnrq6KOPnuSBgCwm2XVw4Dj+eOS9H45dnFHVsSVsEnYAPxaVpyeyvfL//u//BOWNCKeSnGecfe9BkUY0VeNSBR4RaAnD8GlMqi1fvrxOVf+ZJAi4cz9Xckkm9saU3FPd5cn+o8Ddgtyn6A6Sd00BIcITq6rTjGroQ/HeSxAEoaIjk/2RVc6XAq8H3kSS6PBgKrhVWFVjFztfoffGYcCXRWTLt771rafOOOOMaXmf9fT0ZMqT/5fsvs18v3M+jWPcg0Tk6Llz591H9XMDTc57XwRF86qU2PuOuaA8JvHlZ6dQboORxZ1aUpIoUFUzYRAeV550T3UVjTbgG9771RdceEGEsQDAXofD+9Zf/s6p/d7r1q2jvLr8/wEn8+zkL6uqXqFfIEakJMk5vnASOw8FNij8JyJ3HXnkkVNylimO41BE5jP1KyhaPn7QXI37uVzJoldE8owub4UEInNFgkFVv2CM17niZ9Xe+973+htuuGFtEITXiMjfB4E0lgeIUoW+4M3AsiAIvlt+4U6KVatuFIj/EuSDjD2iP+ycK8Xe1ZOUqRzblxS5W8Pglyd87PhxR8ZXrFgByiHAl/D6IoQeRJqYvFW9SvIkq5RaHlB1lic4gyQrmKXydxiZtMwpBzgWlvvVoPwrIyI15WcgLau0m4Evisgfli1bZmceU+zSSy8NvfcfAD7Lc1fMvPd+wDlX7SNqu/btDngS+A3wW+CeOI53/Nu//dtY+/udJ27by0GEVeeff36dV/8yVX0Lye6ro8rtMKHjDup1wPsxvcfYxyTsHcDnvff/QbISO+14r/sBH93DeCDvnA92mzQ2BfNlkI+I8DPgqZkx40i25YporDqqI3NB+V2ULb9/hsvP5hBJgr2GqeonWlpa6OjoCIMg+ABJAuCDprh1B4Hvee9/esGFFxQwFgCowOytnvRntW4MguAfgM/z/OMKATBfwaMaKQwkHZCM1BGt9HfbAnxFRG49/PDD/Sy6VXqBDTw/EZ93zuWZWJK3sd6zsUKhfI1H83LQMAhy5QRAo70fhoHLSbLJV9QxxxxTuPHGm65S1b/yThslkB6pzgQzA/w/4FbgrskbA/hDQP6FsVUWcapaiF1cKAeTxvPcdonI5aHIRGvhzgX+lWTbchYlQrWAyBBCQ3lgkpZAgJbv1Q6gFXgYeLA8udkB5BRKIhKpqgvKCShVNUAkEMhoct/VKewnyQrmK4DXSFIO8BCFpSn4vjuA//UiN5904okxJuWTMv9yku2yS3fpu4fjOG5g6pJpDpPkBlkB3BQEwZaamprcpz/96YoGlE4++eQC8MB555/3kPf+VySr7ScBf0lyVGA848xSOYt9JSdENcDHgQe++c1vLv/iF784HbcUH8lz80vsHGwqee8nKzdRJbrvFwIfamlp+UFLS8tMCWo2isiQJgH8sdyrUh4z7Lz40lH+b2G5z6haMKC9vT3MZDLvRjkbeNFUT/4VPV+QS736PMYCABUQlSduNWn9gPfff38miqJlJOfV9hb5DsodRK0mk4l+gRCReKddARM1AHyzJptd8epXv9rPsufih6r6tXe+85391kVUIojBwyL8TOF/1GtWRIdEZFhE5k5yH/RC4FM33XTTw0cffXTFk7ytXr26VsR/AuQNYxh0xd77/tjFtRM4pxkDq7zq70746Ef9+K+LsnLFyqOBT+40SUlWKFQ9Sh8iBYQ6prZyiidZEV8L/AlYp/D4x044YSJ5Dx4BbgdYuXJlrSb3yuuBtwDvKgcGpuJd0Q98JxC58qQTTyxZ75FuF110UQPJUb1d+4CCc65UPspX9S6XJHfEj733V51++umt1fihp5x8ige6gK5zzz33LlV9HcI/AcsY49Ei733OJxUTKj2ZnQecBtwNrJ9O99rXv/71LHDiHvrignNOVbUmxV+hUZVjVf2VQPsM6QJERJoQHUbHlUNmZIcawP4ki06D5X/GJPkCJj0QEIbh4ShnAa+a4vb0wM9RzjnvgvP67A0zuYJZ9F3zmuIKAPfcc082iqK/ITl7s2Qszy6wQKFJVRtUtV+TxD4Fxr+luxf4JiI/997Ptsk/qvqw937IuofKqKvLFkRYUR50ZVRp9l4bvdc+VYaZhJ0HZTXAh4IgeO/NN99c8Z0/QRC+BuSTjK4+rmqyqtUbu3hu+bz/eG0Alj/84IPjzuJ95ZVXyooVK15BkvRv4R7eDQtQbcSrQ7Vzgn3KeAYCHcDNJGWIPqhwOqqXLjvhhHsnOPl/jhNOOKG4bNmyxwqFwpXq/ReBvwE+JnAVSYnFap0/HAAuQuSyj33sY7bykXIXXnhhRkSOL98vmefOX/1I7fpqjrGUZPfI94ATVfX8ak3+d3XqqafGp5122jpBvijIJ4AbGf34q+Sdj8s7NifDS0TkjLPPPnu/6XKvnXvuuYAcSZJvYdd7yjnn8pOcmLgik2XgcJC3t7S0zKS5R00gUqrQuzFbfh83ln/1kwTVipMxTjr1s6cGp5x8yusF+RZTX22mBFyJ8E0JxCb/VTCbdgCEoqpp3He0YsUKEZGjSWoHHzLe7wfUK9Sj6hT6RKQoSac0llWIInCJ8/77YRjmp7Dc3xTHAOzYbaUcddRR3HTTTRuBy0hqY88DalU1q6o5EekXkVqRSSkTtIQkn8Y95cFxRaxevTqrqv8KHDrK+6k/drGUz7ROJBjhBX4G3DuRxH9hGDai/BNJroRgHwOSLEojqr3lHQGZ8uBksraa9gG/Bq4IRG53qsOiyseWLZvU+/Qf//EfAfJXXHHFBhHZUCqV1tTU1LwekROB40h2CUyWCLhCRL4dBsFAcrrUpFkQBC8RkecF0FR1cAqy/nvgDuDbwA1AdNppp015G+2///4D7e3tN3nv7xORfyHJa7T/PjrLyDlXP4n9S0hS8eR24JLpcK8NDw83iHCcKgfspr3yzrnaaTKebwY+4r3exjTNw7C7AICIZBDNoxU7HjqSq6yu/Gz3AZFS2XGpir4E+BrJrrepdrOiXxJk63nnnWcvGAsAVHRCF+rUbmPdrfXr14eq+i6SxBuVOnsTAgvL58dLAt0iMtKZ1OxlwF8AfiLwgze+8Y22AmUq5uijj+bGG2/8NcgxwAnlwZ0AjUnSIi2AdItII5XPivtW4ISbb775/Pe///0TPve5Zs2agOR861+x7xW+2Hs/ELs4W84EPpHvpcA9CisDkXGvSt9www0MDQ69m2Q76WhXYoRkR0CEEiF07ZQssFK7K/qB3wOXoHpHoVDo/fu///uqR+JOOumknSfld19+1VUPiepVwN8Dfw0cQGVXdkvAdcA3wiDoWTbJgQ4zcZdeemmNc+6fef6W2aJzjipn/e8HfgWcIyJPnnLKKak52z5yL6tqxwUXXPBd590jwBeBw/cw/lTn3LCqTnYG8izwqbPPPvu2fD7/5ESCqZPtrLPOwnt9IXDsbvrayHtXUNUF0+jxOar83Px+BnUJDSKSV9XJKNWd7MaDeqnQsOi0z5wmKnqool8H3jfFbedIjvZ95fzzz99qb5fqmS1HABxJrdvUfV9VfSNwFvCaSfh8GaBBYYFXbfDJ8YCh8oBh1+1KMXCdwv+qSJs9GqbSvPddJLsAdt2WmlGlyXud770Oq+oAld123QT8A/Cyif5FLS0tqLIfyGfYx0oWMOScG4pc3DDmEn+7NwD80Hv/1Ec+8pFx/yVDQ0OLSRL/LR3HH68BGlAW4rWIMlj+XBPZ/uiBx4H/FJH/J0FwQ01NTc9UTP535xMnnpjTILjHef/vwKeAm6hsZYm1wFdR3WoZ/9OvpaUF7/2RInLCLpNY570fmoTkdXvTA3xXRL4APJ6myf/ORISTTz45j7JK0X8FbtldH6/KoHd+DtVJZPdK4JP19fUNab/nRDia3SwQqeqwS9prOo3lF4Ec39LSEs6gbqFGKncMYPLHYoHfX0W/QhLQzk7hR1HgQVU9I47iB+ztYgGAWfFd169fH6xbt+415cn/WJKIjev9UR64L1HVeq9ao6o9mgQCovKvGxX++4gjjthx+OGH25NhKu6YY47xInIHyK9Ijpo87xlV1QXea633OlgOBLgK3f+vBP7hlltumTORv+iNb3xTICLHAe/eyzPrVHUoiqModvGc8ZT424PfedWrTzh+/GX/Vq5cWYNyLElJrIn0iQHQjGoTXjOodpOU3hvrZxsEfgF8AtWLTzj++J4TPvpRP5EAx6QEAT72Mf27T3yikAnDG4F/Bv4b2FaBwMddqP4nqo+fdNJJNvlPuRUrVrB06dKFJAG0A3eZjOXiOK6neln/twJfBb578sknd5166qmpv39OO+00FxD8OZDgVJIcGzu/B7z3Tr331dqZWgv8raq+7qyzzkrtmRtVXajK8bt53xTi2AWqmp1mj1EW9D3O6V+keefFOAYZc0VIdeLoU045hVNOPmUR8GWSHYBTmTRSSSr4/EcpKv3poksumnX5xmxSXLU+NHVbpF5Ccub/nVS3NGEN5V0Bqlqnqt0KfwD+KwzDx+2RMJP65s/WDAM/Bp7ey2S9TlWbvdfAex0k2bWiFbjvP66qR0ysI/EvLE8A9zTIL3nvB6M4ZgIl/nanD1juneubYEd4AMluiLkV+lwZnt0REKMMoKPaEaBAG3B2IPK5MAjuXbZsWZT2+3fZsmV60sc/vkNVf6CqnwL+OIEgwGMK/wWsO+mkk2zwMw309fUJSd6MD+7ybBecc7FWLti3L60kQagfnXrqqUPTKWfEqaeeqmFN+BTKf5IE/wrlHiFyzkVVnpQcICJ/X1NTk8pJ9He/+10B+QDwF7v8T957n1d1k11Od7K8VIT3ee9rZlD3kCkftU3te0xVm4HTSY6zTfXOl22K/qeity5fvtyC3xYAmDS9aekk77rrLlm/fv3Bqvo/JGeIwym89lmF7ar61dq6uj+/7nWvs0GomVRHHXUU4B8uBwFK+7g/m1R1jvfeq9ee8u+fyIviAOAzt9xyy7zx/OE1a65vAPkXkt0Eu3m3atE51x+7uEHVN1Wwz4mBlQK//9gEtoj/8pe/lPLq/xGT1J/MRXUuqgGqvShD7H5HgAceBj4n8N3jjz++/aMf/ei0GgB84qST8k8+8cSvFT4DXE5Sc33U4zBgq4i0hEFwm03+p484jhuAf+G5ATTnnMs755qqNKbaAXxVVS8/9dRTc9OxHT/zr5/R0047bbMgXwZWAJFXP+ydb67yRxHgGO/9W771rW+lrp3y+eJCkioTzbu8bCLnXKBK3TR9lGqBj4LsP4O6h0BEQhEppO2DnXDCCZx22mkNgpwMfBaYM8UfqR34WhAE155//vlW7tYCAJNHVWMgFQPMIAj2U9UWkrM3U3kGSoGngP8SkT+98pWvtAicqdbzWAS9hqQs4L7uu1CVOV51rnN+WFVHjq2MRwgcpaofvPXWW8f07N1www1Snjh/nOev/ntVHYydK8Qunj8JWzI3ApeJyMBE/hIf+6XAx5jcZKgh0ITSjCoodBXD7AAAez1JREFUfbsEAhxJRYbPCfzqhBNOmLbJRltaWlCRh0nOX19CsktjNLoEviEiaxobGmLrEabP9Q7D8F3AW3bpz3LOuRqqs3I9AHxfVa847bTTCtO9TYNMsF1Evgbc6GIXMzWJqZcCJ1Q5ceM+/e//fkNAX0mSNE+ee8v5Qe994zS//K8jSdA7kzSKUGLyShuPy36L96v3zv8jye6/2in+OH3AdxGuOvfcc23ybwGASZ/ozmeKKx6sW7eOdevWzRORLwJ/C1Meud0C/Kdz7jdHHHFEZI+CqZa/+qu/Io7jkbKAPaP4IyM5LOZ7r9kkUSDjzQ+wCPiM935M5TbLNb3/leeX6XTe+94ojkLv3dxJ6Gci4EoXx+s+8pGPjDtIt2LFilDRvwReS3V2Q5UDATofVfAMiNIL/FHgc6jeesIJJ0z7l//fnniinnTiiW1BEPwvcA5Jzea9Xacc8H1EfnLixz6WP/bYY61DmCaWLl3aTBJAW7LTfy4451yVJo/DwHIRWX7qqacOz4Q2PfkzJ2tPd8+TLnZnOuc2TtHHyAAfUtVXfv3rX0/NdnoRnwU+ym7KTJbLJE73Kl6NwIlf/WpLwwzqJkREaknRMYBTPntKjSSlbL8M7FceN3WW+xNHdRdHB4CLFL34vPPOG8BYAKAKL003ld/14YcfRkTmAZ8jicBN9XmzLpLkg6vf/OY32wqUqboPfehDXkRWk9RiHosGVZ3rvc94r72q5Bn7Gew3AB+74YYbRtUnXHfddYGIHMPzy+UMO+cGYxc3VqDE3548oHD5smXLJrRNXJBFJFtJm6bgHdME2qiqD4hyhorcPdOy3QcifWEQnA98pzy42p08cCmql3rnrMzqNLJ8+XIRkZeX+4CRfsN57/POuQYmP6imwK9F5Dvd3d390+nM/760tLRQKBQeI6lHvmOKPsbBqvpXQRCk5ky6CC8GPrDLf4699857rZ8Blz4AjlDlLTMpGSBQJ4EMpeGDnPrZU2uADyH8B8lOl6Zy4KW53P5d5ffSMJNfwaAAXAGce/7559vk3wIAVRGp6pRG44aGhupV9dPlAMC8KW6PXuDbInL5G97whpw9AmbqaC9wMUkyuLH2Ww2qOt97H5fzA0SMPpJdC/x9Npt99S233LLX37hmzRrCMDwE5FPASG1qVdWBKI5KsYvnTmLir37gEg2CDRWYPryGJPP/VMwcFHgU4b8UvXvZBKoYpNWyZcv42Mc+NlgOAny73M8+Z+AOXC3w9ZNOOqnzE5/4hD3+06mnSirnHEOSR2Tkvw3HcVzD5Af0FXgQOEtE2mbYZAmA//iP/1CS0oDfKfd7VR8Li8g7SFZIp9z//M//hCAfYZcdZ0nZP1c7g8buB4J+eAYcZ9hZKMkxuyndpXPqZ04NvPj3IHyLJOn4iJEdlfXl+z0sj58GSHZkTsaR6SJwHcrX2trbrMy4BQCq9uauZwqzXa5bt64+DMP/B5xG5TJvj1eO5Kzq8iOOOGLYbv89m0krLGl19NFHq/dyN7CSvScE3OOLFpL8AOWygUNj+HteoqqfUtW9PpNBEGZB/gY4svziLHnvB6I4Crz38yaxD/XAH9X7a0447rgJ7dIpb///CNVf/R+xA/ifIAjuXLZs2Yy+pxsaGoYCkUuA83g2J0AM3CwiX//4xz/eOcO+sgeKmpIcO5NoMXDMTv9ecs75Km397wTO8d4/ePLJJ8/YBj7zzDMLwI+A65maeuqvVuW9Ux1gUVXCMHMISZLo+ufec7FXnRGr/zvPQT4E8sKZNXyUjIhMWe6x0/6/00KENwvydeDF+/jttSQ7AprKv/pIgnA5KpPLwJEE975ajIo7Vq5caYNfCwBUhdNk28mUJL1Yt25dDfARklJPB0xxWxSAy0XkO0cccUSv3fp7VAJiVcuJWA3HHPOBQZBL2HNZwNHIquoC7zXjvR8s5wfY1wWsAT4uIkfedtttu/0NN910E97ry4FPlvuQgnOuL47jelWd7IzfvYhcdPzxx3dNeDTi5QUk5Uanor8fBM5FuP7444+f8blGjj32WE488cQBr/p9hZ+QbK+8G/hCGARPzICvqICiOqiqbd77gvO+6LyfsR3mRRddBPBu4NCRcYX3fsA5N1nHfnYNsPxKRK4+/fTTZ/xxvTPPPLMP+C5JffBqmyvC67PZ7JQu1Jx99tmhiLyF5KjaM8+d937Ye53M4yYF4AGSbeHVdCjIMV/+8pdn0q1cJ0KRKcgF8NnPflZc4F6jot8HDh/DH82Q7GZaRLJYWSgHAToZfwUmD9yt6JckkCes3J8FAKoaACCpIV5199xzT3L2BlpIzt5MpRi4VlVbVLXLVrf3PLhV1Xy5FrGpkjCUx0kmSxNt93pVmr33Nd5rd3nytbcXznxV/az3uy89FcdxI/Ap4IXJlv+4GLt4gaKTveXXAVeT1JifkBUrVoiKvgs4eIomi6sDCX68bNmy4qy6qTOZPuDrCscq/FMmDB+exnkPIiCnqgXvfZvzvtt5X+u8b/aqdeVdNDN2LCEiDcB7KZdiU9V8HMd1VCfr/6PAhaeccspsen4eBC6agrFbKCJHqurLpnIXgHNurqouY+eFK9VCkmty0t49LnkHyzKSZHE9VfzKAegxqrpkhvUbzSJS1Vwvn/rUpyQIgpeLyNkkASQZ/zVhAcmOgLnlAEB7OShQHEMw4D5BzgAePvfcc23ybwGA6nboqlr1M/d33313SHLe9pvAS6e4DTxJorUvh2G44w1veIPd9XsJlDjnYu99vTVFNedKmViEXwDrKvHMJ4EAXeCdL5TLBu5t8PxOVT3+pptuek5ZwFWrVgWq+nbQv/beD0VxHHrv5lGdzMsbEbnsb447bsI7dVR1Dsnq5VSsaj0NfN/ju2bbPf23y5bpJz7+8a5PfPzjt37i4x9/fBpO/p1Cl1ft8ckK/6DzHq+6VFUXabJSVMfsyCP0gvJgOiDZBVQq7wCabEOqeon3/rHZ9OyceeaZJRG5EriT6h4FqAFeCfLqMMxOYYZ9eSPJkbNnB3Gqw179fCZv9X8HcNX//E/L46r+F8DDVfqykar2ORcfAvxlS0vLTFqdyojgqnUPf+pTnyKbyb4A5RyS0pGV6JsDkkBUE0m+gJgkt0Evye6+vb3XNij6Hx5/5/nnn+8xFgCosmGqfP7/nnvuCYIgeGs5AjeVk/9IkxXQP6jq55xzmw4//HC74/c+Wcp775usJarrqKOOAtimyoVAd6X6NoVm77XBez9SNnB3OwzmAp8KguClt95667N/OAgXg/xd7FxDHMdzVKuWpCgPXOFF7p/oTp3LL78cQZYyNbWWhxEuVfT+mZbxfyZ2fSTn+IuqOuS93+q8LzjnGr33jV61SVX3Y+pL11bdRRddFIjIK4DDAOecy5dLglbjmqxX1atPP/30WbcjLZfLdZCUie2r6tRbyIvw1jCUKUlKd9ZZZ9UDx/Pc0n9J2T+dtMm/A/7kXHxP8q/hAElensmctMWqOuCcG3Rx3OC9f4GqHlcsFhfNpPmViNSKSFUy3tfV1h0igXyNpHLEZASwpBwImE9SSaAG6CgHAoq73C8bgS8Ca23ybwGAqZrQ9VPFCPL9998vIvJqknrQh1P9jNtOVbu99/3OuVwcRX+KouhLqvrwm9/8ZnsI9/FCcs7FqlpjTVF9Rx99tPM+vBb4LZVLnCNAVpX55WMBQ+jzMkwLyere34hIDcCKFSuCyLljojh+h3PxPEWrOfF5UFV/dsJxx0140B+GIYq+gn0nAZqU7lBVfyYiJbu7U6ugqp1eNee8H3TODTrv673qQeXkdvVMUf6c1AyQgqCWJIBWo6pDzrkM1dkFlAd+qqqts7Hdy1vwby+/D6oZAmgAeetUbEdvaWlBlVeQrN6O3GORc67kvZ/M53AYWDEwMJBL7nkU5DfAU5MxLAf6vXeDzsWh926BoiNVDd4LvOpLX/rSTLqV68px/EnN33HyZ05erF7/C/gok380ScrvhTpgSfmfAyRHdnqAbpRv5vP5X51//vn2/rcAwJRprNZ3XLdunURR9Mry5P+NVfi5CpRUtVSOpG6PoqgYRVF9FEXZOI5bvfff8d7f/aY3vcnu9H01pupgeet/YK0xNT74wfcNAReQRJUr/cKqV9V5zvtQvXaj5Hk2OCje6wcLheKbfnnNNQszmcw/exf/h/fuoCrfDwPAxUEYbq7IlxYRQd5J9QOREfDjgKB9pmf9n0ZGsvVHqtrpvW933uO8r/feZ1V1EUnyp5CpKRWZVk3lAEAUx7GWj9RUZUgB3Pq5z31u1ja8iPQAV/H8kpqTqV6ErAhV3y6ZydTWkazevnCncUnJOVfH5Aad7gHuPO+88wD47/9uwXu3Gbi2ghNXDxS8991xHIXlPAe77rKYCyyjOrk1qiUUERWZvADAKZ89ZbEEcibCx6n+Lq2RkoKLSXZb54CzReTy/oF+h7EAwBQpll/e4WT/oBUrVkBSr/V/SaK3k/kzS5qcy8zFcTwQx/FAFEUNcRwv9d7Xq2oD0CsiXxeRG9/2trfFdpvve8LinGMS67mbUQdi5B7gF0xO9twAaPKq851/Jj9AqTzQOsR5dzrwNYWzSVbNq9k/OuC3InJ9TRhW5Lur11qSYGS13QfcKl5s19EUT/oVBlW1z6sWnPc9zrmi836hV11c7u+aKjHgnsFVU14EHOCcG6hirfIicI33vnU237xf+MIXHPA74H6qWE5NRDKqvHEKzqPvT1I1amT8GDvn8pNcarII/CoI5DlBd+figgjXkeQGmPDPUPV9zsUF5+Lmcv6MPY2R3we8bIbdyvMm6xjAySefPAfhs8C/MIXlzncaw1yuqhdm67LDVu7PAgBTaUhVq5KB80UvetELgK+R1G2tZPRyZJU/UtVu51xbFEU+iqKaKIpqnHOLvPeLVDVTvpYCtJU/yy/f+ta3WgRudIPXYnmLna18TbHBwb5BEX4IPDaJg74AmO+91nuvBVW6vXc+juP3oPpJkmzf1b4X2lG95CPHHddx7LHHVmYgG8jLgAOr/D0KwDWhhNuO//jxdkNP1czf+yHn/ZD3PuO8z3jv61R1aXnCH1Tw3a+aZCifqe+Gw73XGudcA9VbmXwauHU2nv3fVT6fbwduJDkSUa0AwP4iHFZTk51frZ951llnCejRJLkmICn71++9n+wdJ4+ocltLS8tz7rVvfOMbeO/XA3dM4D08kuCvUD7n38y+dzIcBPzNmWeeOZN2AQQklUQKlfxLTzn5lLmCfAo4lalJ8vucRxX4saLfPf+C84e//e1v20vYAgBTqoYqnNVbt27dQuALJGdvKnFOS0lKLvV57/NxHHfFcZwrlUrNcRwvLg/k5pBkYd5VP8kW6p/Omzcvb7f3aMfKvqCqlvk/Bcpbxh8GrqC8Oj+J6lQ1G0VRXCyVaspBoKkYeChwHSJ/qGSJTkFeCVS7Ckqrojf+zQl/Y6U0p7JTU23QJHlf/U6T/kn6Udrn/czb7HHZZZcFIC92zgVVfD84YL2IPG53Mf9/e3ceJldV5g/8+96q3pd0ElYHXGbGdVyY0XEBBnTEEVdEIK4ghk1kV4gIqK0kJBAVSUBllYFxw3HfALefCDgzroO7MiAqO1l6r7r3nPf7++PelhA6SVd3dXV39ffjk4dHSC9Vde+557znPe+L/v5+ArgB9T8Wtj2lovXjHg38mUvM8GoA4wv+aoyxPINt/4B89/+7aZpOeNb/3HPPrSIvBjg2hTFhOMY4EGNod/deTj41vR3AK8xsz2a6jg0o17Ml4Mknn9wK4A0AzkBelG82BQBfNtpKAA9q1FIAYA7Mf9iCvIhR/WfrRaG4H//4xzsBeBeAt0zjZznySGlK8r4YwqYsy5hlmWVZ1hZjfIy7L0KeMrW9owUjyHvnXrLPPvuM/sM//IOu7sl9lgMxxi5o93/OeOlLXxqRHwP4L8xcFoCTHMiytJplaZ/H2EpyFPkZtkbnM/8ewNUg65Ym+NnPfrYE4Glo7M4AAfzM3X9Zz0CGTPnZ3ojnezXG2NeMb2CWZUtjDI9zjzs18PkwAuCGk046ScWzHnYX8paAjVyy7QngMWvWrJnxn7Ry5Uoj8XwAzy2uM3f3UXfvnOHr7n4Anzv//NXbOyb638Wfyc5lx9x9Y4zB3OOS4phRra/hHwH8y5lnnllqomu4zSzP6J3G9yiTtJNOOqmd5GEAzkHemm+2F//XE+xfd8m6uy+++GJ1/FEAYNYF5LvhM/H6DMB+P/7xj/cGcAqAtyEvNljrRHmY5Ii7D4cQHsiyLGZZtjTE2OvuXSQXYfK1BCoAPmVmHzGzzbqsJ3+duHtCsm2Cz1hmlf0ZwJWYmTZQlehxOM1SCzH2EGgzsxGSfXRPSY4g34lrhFEAn03Mfn7IIYfU8+HZjfz8ciMnUQRw4xve8AbVHVkg3H2YTTiPuOiii5Isy/aKMT63wffQ/QD+R1fWIwwhrwXQqHGlbIY9DLZbjDP/2ZtZD4BXoWj9VxypacHMZ6N9B7Dfbu8vxBjvB/Bl7DgLYIz0oRiyanHOfzoFuFvN7NAkSXqa6Bo2M2ufZlecp8DwYhCvB/F+NP5436OGf+SBufcC+IOGqfmn3KwvjORMLeKsGKyfh7xqctskbxQCSN19s7v3kHSSKAqiTGeXLgD4PIBVe++99/26pGu6RtIY46N2ykj+Uwjhxm9/+9ujTfaSI8mxl7zkJXN+gXbggf8WvvGNG76aJHgVgNfWaRLuJMdCDGNFFeLWLe7qEoASgUUgKwA2m1lvAyZhPzfg3w8++OC67vgZrQ+GxzX4Y9sEavGygKROdqAJW6cWKf8vNLOdkQcDx2vszLT/BvCQLq2Hvetd7wrnn3/+bQDuBdCI1HAzoGoJHkNnO/KsjJlcGT6ZxIHF9RXdveruM525tRHAF8g4tL2/tGrVyvDe9773m4AtB/DMrW+TYk4x5B6tyFio15GFfya5d39//zeKlpDNoNMM95OYasbpkw12bbHmmO0z/wTwcxBnr79k/c80SikAMNcsmcHv3YIdR98igTGQJZKj7p65+1IAS0nuKJ2/lsX/twCsMrM/6XKubQBz92GSO0/w395iZvujzkVb5oCHzOwj11133bfmQ3u24eGBzb29vVcA9gJM/zxmGj0OhRDa3X3xo+8/W1w8lMdbBiZFEGBRcb/PxOR/FHmWQ/3vXUNvgybLW/oF8h1MWQgDKJkyP/zfdBlTZlYl+ZviWNCgmXXn/9o6ZvD1OoCfkBzW1fUofwRwZ8PGNLNWkE8yY9tMBgBWrVpVIvEa5B0ASHIkxljGzGadEHnrvx+fe+65Pon7/P/M7DsAnoqHA+KR5CjdU6d3FcH0emYCLQVwcJZl35/pAEyDx5VeMw6SU6rNkyBvtzfrQz/yHf/3OP2HEAUA5tTEJI9uNvpG8WKwHCJZKXb5qyTbSS6doZvwhwDO3meffX6jS7nmyetAjLFnG5O5Xjw62t0ktwbuWrJkyXfRuBT3KVu2bBluvPHGW0l+lsSpU5wUkeRgiIExxq7ttHpsQ57mON5Kp41kH4BRA6ooFgB1Hi++TeDrh7z2tXXNyLjqqqsAYhGs4ecD/xdJQ3t2y+xxkrEoSLuhGV+gJdZBJ0kuJZkCSM2sYmalIjsIdR4TBgD89pRTTlEBza2EEB4ol8v/B2AfNOZIRidgj53JOXK+s508HuCBxfMnxBizGZovbmkIwFeTxO6bzF8+99xz43vf+77/RF50blcAo+4xdffSDP6uZQAHuPvTzjnnnB+tXLmyWS7lFphVQTrm79GpvwB4n9NvuOSjl6jT2DzWnDUAyEZdlBnJEbpXihZ9m7Ms68iyrC/G2O7uS2eoh6sDuA3AOeVy+TZdxjWL7o4ZrrA7J+e0AFpLpdK82bFLkmSExCcB/Bq1F+erRo+DaZYmIYTe7Sz+YWaZmQ1s/bAm2eOkkdxU3Hf1ci+BSz2Eule37uzsTGjcFfXpSjLp9xp5McOKhpcFEwCoNuscgglbATzBEuuG/TUw2Eeyx93b3P1+ksNFhkC95hv3kLxbl9ajnX322QF5a9iGjS9m6EoSm7EAQLlcLpN8MYCn5NNWH3L37ga8tNtJrym1nsRvSVxP9w0hZB5j7CE502nojwXw0qI7T7MoJ2YOQ3We/v4PAlgJw1cuuUSLfwUA5uCzG3n60Ey2PXrI3TeEECohhJE0yyyE8Bh3X1IsKttm+L29k+SZw8PDP3je856nm7DWC4TMir7VJb0bc9sBBxxA9/i/AD6NybcjIsnhLGTDWZZ2FL2Ud3g/2sQL/ARAN8kWkgOoXyGqr4H87rJly+peNdfMzGCNLhC0GcBdM/F6ZE6OoaPFUZomfYEoI0/LbkssyfBwGnIL8vahu7l7R1GtfYTkQ3UYGx4wm9yu7AL1u8YGAGx3zGCVdbNkqRleizy4NBZitEZsSpjhi0mS3FPL14SQboox+0KIgUXWTyOyhxMAr3X33ZrsOl5ksDE0vtvQdA0C+BAM165fv34UogDAXLxISRL1Sc0jgCrJStHX9C9Zlo1mWdadZVl3jLHb3XdBY3faAOBqAN976Utfqsn2FD5Tdx9qQPRa6uTlL3+5k/4pTK46duYeN6ZZaiGEPnLSRYnKeDitdyI9zHurDyI/uz8dt8PsilJLy0ztAiQAdmn45IDQ7uVCGUPz421N2y3FYGXkRX4Nhl4zy/Donf4ygJ1Idrl7T/FceZB5EdFa0/gJ4MEQgo7QbHtB/kc0NsOo28xmMACA5wN4PvK2fxlnvu0fANxB2g21VqNfvXo13f1/APyywQvXvzOzV/T39zfTWFOyvE/ufOuWcxOAT6xfv34MogDAHFWtw42VknwgxjgUQhjNQhhK07QjhLCHu3cXqcRtmL3iRzsX1eul5qkrhz3GLjRvC8xm9RcAH0d+TnYbHy0Hs5ANVbOsx927UFuGR9nM2rH9dN42kouLtN/hKU6ExgBcnQC3HfzqV8/IRCpBYsXipZGGDKYCgAvDGPP7q2mLCG8RAMjHhsTKZja4rQn9+Njg7ju5+1hRYHYDJp+1FADc8453vEMtNLftfjS2IFyCGaq2vnLlylYSr0ceWK7EGL2GYPVURQDfAfxX/f39NT971qxZcz+Ar9VwTddDD4CD0jTduanGF0PnPGzZ3VcUQRUFAObo8i5PT2qv5WsAVIqCfZtijPdkWRazLOsOIbTHGBfTfWfMrXTxQ8vl8qtvvvlmpbDXxqN79IV39n/ee9nLXhaTxL4N4IYJFulZzHf9kxBCH6b++Q5NYnJjJJcwLyIxhNqDjf9Lsu5t/x45oDEB0Nfgj2iUCTfqSm1+RfE/b/KXWSoWH+O6ilahO9qBNgCLSfa5e6e7093vJTmGfHNiWwuvjKQCaNu/7lIADzTwRya2/aywKSmK/z0HeStpMD9G0oie9w+Q+OIHPvCBKWewmdk3kHdjaNhaGcBzSD7v3e9+dzOtV1rM0AognUe/87NJnnDSCSd1QxQAmINC8ZCdTF/iUZIPxhjHQgibsywbS9N0UQhhd3fvIFnPnqb1tjuAFQCe+r3vfc90GU96AlFxd0Nzt79s3sEqSTaQuBT4a6p5ftY/y4ayNO0uCihNeUwzs2Bmk1nYJAR6nWwtigNO9iFeJXCpuzciVb6RD2kiz4io6ipteoFkRrKpJ4FFEK37kcODdZjZZIN+4+1EO0nu6u6MMQ4WR4gGJwgEBOTdi2TbIhrbcaI0E0cFW1pa2s34SgB7khwJMXaiIRtM9lPSb5nmHOpPAL6Cxh4DWALgNQ1+ps34dMbMEjPMp44fHQDeAsPLTjzxRM2hFQCYkw+I0W38+yrJzN3vjzE+mGVZkmVZewihLca4W9HyK8H86GlsAJ5lZu9oaWlZqst4UrwoXKXo5Tx1wAEHAPD/BvBZAJXocVOapQwx9LE+wboOTC54OK6d5KJiUl/dwaTIkWcvfBN5jZKZXL0Y2PAAwMCyZct0kS6AcdTdF8LrbMOjx5SWLboC1DrP6gSws7u3xxhb3P2hoqhoWowNsQguyLYmPXlwdrDB86z2Gfi2jwPsNQAYY6xurztNHaUAP21mw9P8PmMkvwngzw1+vuxH8qlNdkl3m1k9u4g0wi4AViRMnlFLFwlRAKARysURgPFBY8jzfu9jIYSNWW6nEMJSd28v/u58TaMvAXiNmb3phz/8YYsu5R08QfJzdq1Q5f95LU3T0Rj9P7KQ/SzLsmnv+m/9QC6uj1oW6K0k++heQX6EYFtfez+AS9va2x9owELZYA3NXiKmXxhR5sc4OuTuzV9AlShh4s2A9qIrwFTPQbchzwxYWhwRGCB9uMgkGtYVtt1rr9HjzExlCx4A4IlF6n89n1/b81MSP3SP04rerV69mgB+DuCHDVi4pgA2kRyls53kq04//fRmmr+ZmXXB5l3r3GfSeNrGjRu1+agAwBx5XOeF+4ZIltz9nhDCUJZlSciyUgihM8a4e5HWX2qi170YwEnuvu9NN92konbbmzvkhZk69VbMbwcddBDTtPKbEMLniz7k9czYsaIwT62TpDKBXndPSG6c4OsDgC+D/O6rXv7ymU+dzN+RRh9fUjvS5ufuPl+y5KarvM27K+8KUJnmNZ8AaCG5szs73T1x91SX2A7neY0eZ+o6jp533urFAA4DEEJ0kGxEB6kxAF8B/M+rVq2a9jdbs2bNkJl9AXnr13oKyLtnDJK8z92jRy/R2UpyDxCvSJLkiU2289yS5GPJfOro1QrgNXQefuIJJ6oooAIAsyvGkMUY7stCNpCm6UiWZUuKFn1dxVnFZl4cPwHAO0ql0mN1OW9r9c/R6N4Cnf1vCgcffHBmZp8B8NO6r52n/jA2AF0k27c4EjDuLgOuOuSQQyr69GQeG3ayBQshi8pg2wl0jHcFqNeOfRlA90yfDGqiIEDDroK8W1t9rF271kj+K4Cnuvso6e1oTDDtzwC/fO6559bzvPkPAPyiHtN3AIMgR0gO0H3Ao3fRuROIduRdGMYzXJ9ssBdWKpVmyngdn5fOtwy6HgAnwLC3hiQFAGZVCKE1hPBYuu/u7qm7jyBPH+IC+QwPAHD8D37wA+1wP5rTmbq7IpVNNQ3kvQA+ijztvp5TvulMysaDAJ1F1e9h5LsvV3l9JktzdaIsC+COc/cEeQBgISwzsx3cQz3FKFHPwpc6nrbj8bWR7xFJhjp9I6Rp6APwWpI9McakQbv/APCtajX9XZ3fmIcAXAfUXMTOke/0V0jeQ+dY3imDCZ1LSexUfMblCZ7DHQAOJdlkLQGtw8wias88nG1PMNiKk0486fGnHX+aRicFAGZdKUmsm2S3u6dFkZ2FkJraDuDwJElefuutt2qX+5ETuTR6NNRW3E3m/kPTCXwPwNfrfI8vrsP3aCXZS7IC8r8AfMZDaPTufyOrCxvys83SvDKSYw1ctMzyY4O+gwAAzKzTEhuq0/iTYEYKzjVdAKC9oZdBncbRtWvXwgxPBXCAu480qO1fBPAAyf9sbW2JMzAe/ADAbyf5Po4CGCE5TPcHPbrRuRPJThCLisX9ZDwbxPOb7LpuNbN0Hq5VSgD2A3GclxpyPYsCANtVNrNoZoFkr7u3uPtQMfg0+47Y7gBWkHzar371K13ZxYPH3YdV+b/5HHTQQbjt5z9/kORH8XBbwHrMMM3M6lFpOiHZ6uTVrz344DsaXCG/bhPXGibmmgA080BKYiFlUZlZFTtu99dS7N6N1WF+UUJztTmbqflqo7ub1KUuQ5aFMomDSbTFGDsws5kMBDBG900xhhvc423nnntuXX/A6tWrAeD3AL41wXs0XqshALg/T+1n8OiRzh4Su+PhLhu1rkF6ALxuxYoVHc013mBRneYdjdYOw9EOf9VJJ52kOmQKAMz6g7vHDOPR+y6SPe5eITmCyfXvnc/2AnDa4OBgny5tAMBo9NgGpVY2pf7+fhQ77J9H/QJ80YCROk3CvgPgW/U8Rzrp5bg1vFp273XXXacJQPMGADaRXDABAILbaim8tc5i9266RwFKRSti2f58dUkDf56jbkfM+DiAL3EPnOH7qEL6YAihGmKgu9+A+hfrAwCsWbMmNbMvI+9wgyIQMIw8U+hed6969D46u0n2Ij/PP92HYQnAcw32nJNOOqmZru2SGcrzdI2yFMA7APzDqaeeuhAKxCoAMIe1JEkygofP05RILi4qdG9CnSK6c/W1AzjY3d906623LvSUXHf3zN3bsDCqVi9IZpYB+ASAP9RtMWtWj2M09xG4PLS03D8bqxcQjd5NGC+4Ks0nFh1UFlKAZ7KLv7wrQGKjmN4Z3rKZ7aJLbfvvEYCdGnwNTHscff/7318C7CCSu8boLTN0H0WSm2IMYyGEDtL7APzBzG5YtWrVjJ0tjzH+FMC3QT5EZ0r3ijtb6dwDRBfynf56H0vdE8ArOts7m6nmVWJmidm8bKdrAPYCcWYMUa0BFQCY9UXB4q0q9BqATnfvc/exojaAN+lnugjAaSRfsMCv7SzGGNH4dmjSQAcffDCc/B2Ay1GfnfuyAX2YXkZBBuCrAL7/hoMOavg4YzDWY+JaawDAzHbSFdl8SA6QLGEBBVINFjH5ndOymbUWc46pjhstZrb7unXrFKze9ryuD/nY3CgRwMB0vkF/fz/K5fJjABwYY2wh2TUDC/9h97g5xtDh7ouKOU8A8MXW1taHZvg9GnX3L7uzRLKrKOI303WoSgAOguFxTXaJd5lZwPzMAigBeA2Aw0866STVIVMAYHZfV5LYRBPvFpKLimyAQQDN2pbrCQDedeutt+62UC9sdx909z7d4s3vkIMPTun+HwB+gukfBUhgRkwvpfdOmF227NBDZyWaT9IBPNTgH9tNcjddjc03lJJsIbmwAqlEAPBALdc/DBFTr71RIrnbDCwQm+cjIfdEY4sARpIPTOcblMvlBMA/u/vTZ6Dw34i7D8YYPMa4lGT7FnP6PwL4en9//4y+Qeeff74Xz92fo7EBwr8DcGCzrVvMrAybt0eVOwGcTPIFM33diQIA29OSp9PYtnYEe9y9291HitoAsQk/1/1JnnLrrbcuxLTcsaLQjs4kLxC33XbbfQA+jjqc2TSzMTObanAwBfAJA349i3c/a1y81MMiM9tDV2LTyUhWMPO7enPtCZrVeg+ZWbclNjiN+cTO7r6rLrlt+vsGBwAqmHYgtdRF4tXRYzvr00KTAFJ33xBCYIyhpzhf/4jABYAvAbirEW+Smd1L8GuoTwbeZJUBHLxixYqdm+wa7zLMy2KA4x5rsPdseGjD3zZZjQYFAOYTM2srBstt7QiWSS51dzZpbYAOAG8jeeACu6bp7imdLdDZ/wWjv78fMLsReVvAehQEnMq1QwA/htl1IMdm671wdyd4X4N/bC+Ix3/6059W0K2ZBlMyRl+ALZ4MGQz31PhVLWbWWRTgnMoYtLuZPUZX3aNdd911APA0TL5dXD08OI1A8Pgd9I90/yePvqgO85FQnPMfiTH0kt6NiQNzdwP4qpk1JANtzZo1EcCXGxVw2OL5/HSDHdDf3z8r8zySRP27iyVm6ALmZS2A8TXlAQCO9+hqDawAwKxpT5JkFDuOxne7e2+RDTCM5qoN0AfgjFtuueUpt95660JZDKcxxkBQg8+2H1zN+cLcN1peC+CP0/xOXVOcaG4icFUol/946KGHzuo7YbB70dhWgCUATy1bWe0Am2usGAAX3lhatnIG4s+ofTe/I7EkxdQ2FHYB8IT169criLaVO++8cxHyDICWBv7YP2EaG0PnnXdeO8CXheh7TnOuHUiOxBgGYgyd7r54B+/DfWb26/POO6+BAwXuRf0K8dYyvz14bGRsyWxckx7d3DlMYriegQ0zKxW1AObrRM0AvDlJkkOOP/541QOYy8+5Zn5xeUtAq5Lc0etsLc45DidJMmBmXWie4nH/CGAFydMBbGz2C9rdR3T2f5sigOFqtdqUBTAPPvhgfu1rX7s5C+HLAE6YxmSxzcxGi3Gjlonb9w34ymwU/ttSkiQAsQnAgwAauaP4TBr7MM3CWTJnVIuiYgsuk6pcLjN4eAjEAGprPWcoenoXKd+1jB+tJJ8VQvgCUNdFRTN4HIC/bXTcAVOsBXPdddfhD3+4/W9jjPsXO/VTW1YDI+6x6u7tJJdM8l58nLsf9+53v/v2CRaRJFkh2QLWdf6/C4BnzcJC8wCCTwVwc6MvSIIA0Q0yRWLDxbqhHmNlu5kNFTUd5us6ZEkI4cQQw6+OPfbY2y677DJCFABobAAAZTPbRLJzEjemIa8NUDWzETNLzawZWh+1AFgG4Kc333zzpfvuu2/WxB951T2W6/CZ3QfgB2h8JfWZtgnAp172spc1awcMvPKVr8y+9KUvXUXgXwE8cxozi80Adq7hWroXwMdBbpjt92DZsmW47rPXDSFPBW1kAOApAB6LxqaCykxNcMmhhVqU7rjjjsNF6y96sHgW1LrDWLbEWuEYJtlT46LgBcg7+SgAUFi9enUC4ElFEKBx6zvgDjObUgDg97+/vdU9/qu7P30K82wCqNJ9OLq3k76oxu+xq5m9twhexOKPg9xIood5Rk+p+FMvrchb/jXaYjM77Iwzzrh17dq1szGvMQJ9dI4kCYbNrKMe6yoz9JqhQs67AABJDmch8xjjP5J8Z5Ik70DjixLLQg8AACgniXWRqJCTTultK7IBhpIkGSyCAPM9G6ALwIlm9rMf//jHtzznOc9pyvmqO0fd2YHpR2EvBbAezdclwklW0fx+D+A/AKyc8r1rVstkIgC43sx+eOihh86V4MoA8hTWf27gz2wHsA/y4JnMb9Hd28iFe5SK4P3FUZqnTemZa9gMIqtxDHoSgCciD94JgCRJOorASCP7vo8A+KOZTWnDxD3s7O4Hkax19z8lWXGPWZHqn0xhPkPkxTsdQAlEheBiEOMZBM12xOTfzOzv0PgjCH+9RAF0u7OaJBg0s+46rBlazGy4+Azny+dFdx/IQmYxxp7i936lu//0mGOO+ejll1+eQhQAaCAzM5hZqPHccwJgkbunZjZUPIDap3AjEvnO4M3FJOIfMHvplH8P4KxqtXrCzTff/Md999232T7r1D16nSasd5rZ5he/+MVRQ8T885rXvKb6xS9+8TaYbUaemjiVkaOnhvu9CuAXhx5yyNBceQ+SmAx4yW9HXtOkURMIJ/iv11577brDDz98VFfifF78IvW8+v+CrenQWmrdkIXsz1O8h8zMupFgkM7FNXx9N4ADL7zwwu+fdtppSpvN7QTgxQ3+mfeQvPuMM86o+QvPOussi9EPJPlPNcz3IsnhvCi1t9eYOULkQWiC3EyiBKCDZFJcT81+Dz/OzF5z1rvPuvC81efNVgs9A9DuzsQMA0lii6YZBEjMrNOMgyT6pvD1QwBuQh402xczXzsjjTGOZiEruz/iyMtiACe7+/8eeeSR37/66qsdMmcshGIznWZJtRgga54DkOzzfFTejNqLat1P8lzk1fjfgekXJ5uOEvLqnG8tshqaa8JKVoo+u9MOsJhZfo5a5rOIaRT0NKCnKMQz2QnYnAoWedkD8h2RmW7NRADD7j4cYtyUZdluJJ6ty2/eD6iB+Q7kgnX88ccHg/0SwFQ7erSYWYeZ1ZLO34o8i2Y3XYR/tTcam/4PAHcnSTKlLIxSqbSY5KuASS3cWCz8B2MMLe6xtzj7PZl5TApgkOQoyYfcverOJST7imOvdZkPzQMdIF4dQpgLHTSKNQOHkG8MTCeI12Iwm8LcogrgGpJHk3w7gO9hBoubkxzNQjaUZmmXu090ZOzxAN5RKpX21FCmAECjmRnazGyqE/QSyW5373D3UeSRtcnc1BsBrHX3a/bZZ59NZvZ9AGsAzOYZ4VYARwN4xS233NJMn32MMTrJVt3SUrcAgtmm+frLL1u2DAB+ibyWwUwEV4KTD4UQNqVpyjRLLcuynWP0p5B82dVXX60uHPN4+e/uI2j+DMEdThwA/LR45k9VexFInOzRK0OeKbjvRRddtOCj0GvXru0C8Bo0dhc7APhdCKHmc8vve9/7zCx5DvIjC9v7/Ii8yObGGANjDIuKRXuyo3EXwGY6H6AzuLvT2Urn7iB6inu2tAAvlX82sxesWLFiLtwzLSQXubPCPAA/1SBA2RKLqG3jMQXwGYKrL77k4vvSLP0dwfcB+N0MvE53+nCapZUsy/qKoqe2jTHtxQDevnz58q7DDjtMT1gFABr6IO+wPB14OjpI9sQYQ9EucHvnWQYBXGpmVwwPD48CwD777JOa2ScBfA6z22pwNwCnmdnTmqU1IMkBd+/Q7Sz1vKyssW30ZmDgw28APFCv9wPAqLuPhhg3pmk6lKbpoiyE3ujeQ2I88t8C4BVmyeP+/d//XVfR/DTqC3z3f4u5w++meQ8lMPSaWS0LgT4AryK5aCG/9xdeeKGR/EcAz23wonYUwE/POuusmjeNSHQDeCXyArLbUiV9c4yhEmPoLdL9k+0s+odAjJF8iO4DHr2L5GKSHcjTw1t0p6INebHruZLdWibZQ3crsoenOudfZGaTDUAGANfDcG6SJPcAwGWXXcYkSX4E4iOo72ZAFmPcnKZpEmPsm8T92QHgcDM7sLe3V60BFQBoqFKSWCem0dN1i/drsbu3kBxAnhq49UO9CuBqAB/ee++9B1/+8pf/9T/svffeIyQ/BOAWzF6PzwTA80iegvx8znyXxhhtIRerkpm5T2zuTCamumQfAvC/0/gOjvxs6kMhhME0y7I0y5hl2c7RfXER8Z/oYf50AC8xM52jmY+XDan6DeM3gPsAgP+a7mLAEmszs8l2lTEALyW5V421i5pKlmXdJF+LvLNIIw0A+O+pfKEZ/g7AyzHxTmgkuSnGWIkhtBctNlseNWrn4+4oyXvprNCZujvo3JXE0uJrtrXbupC9wGjPfec73zln5hAkutzZQnLjFOf8pcSszXacQeQAbjLYe9avX/9/69at++vPWrduXST5WQDX1mENBIJpCGGgSPmvpVPa7gBWAHjq4YcfrqtVAYCGMTNLzGysTt+v3d0Xu3tWRPfGzwqnAP4TwFozmzDVP0mSO81sJYD/m+XP/WCSb7z11lvndfSYZOrukz0zJzLpBy/MejG72TrTf1YD369x4kEAYySrMcYH0ywdqqZpbxZCV4xx0STbwiUADgfsb3QZzTupu7fqONVfVZAH7Kdb46OjSOed7AR8KYC3rFu3bsFmtoUQn0ryZXlAisNoXEbWbST/UusXnX322QmJ1+DRrVcjibEi3b/TPfYQj+hKReSbSWPI0/vvd/cSPd/lJ7kUgDIcd2wngq8JIcy1wH23Ozvdp1RHDDC0Yvt1RBzATwC8B8CvJvoLLW0tgwAuRF4YcKpzGic5lGXZWBayRVPcdNsLwKktLS3KMFMAoKE6ksSAqRUDnEiZZK+7t7n7EPKzPteTfN8+++zzl7333nvCSffee+8dN2/e/G0AFyNPNZstSwGcQvKff/CDH8zXxTNjjBWSejhKvRmAapG6O39fAfAzTC6F2Uk+FGMcSrNsrJqmWZplu8TofcVisNa0vWeQfOO1116r9NT5NKCS0d0dCqgCAE455ZQI4BfIW2pOd67VU0M6bwnAv8UY91+5cuWC+yxWrlzZRnJ5jL5LjD4co4/G6Km7p+58kOTdJB8A/trWlqhfVuV3ayzciP7+fpRK5ccCOHCrxfqouw/EmGUxhqXFoikpftcMeaHoITrH3D31fLzdHUQbptZ5akEPXyGE53r0J5654sy59rt1kuykcwS1t5duK7LptpUF8HsA71l/8fpb1128bsJA5YUXXsj1F6+/k+R5mFoxcrr75jRNPYTQW2T/TUUrgEPMbNnRRx+tILMCAI17rWZJnEYxwO3e2O5+K8n3ALhzR1/w8pe/3AF8Cnmv8tnsjfm3AN6VJMlj5+MHSnLTVi1HROq3fs57QM/b3rXLli0DDPcC+OFEtw+ACslKjPG+NMsGq2nanWZZR4xxSdG/ejoLj04Ab3XnXtdcc40Wk/NmSOXYQj97PsGdcieAH9VhgdliibWb2cAk//6uZnZ8V1fXguoIcN555yVA8mIArwCwBMBuJHYh2eXOsrv3xuiLY/TeGL1cBAjudvc/kXyIZCCZFkdZRlHbrut9ZvYjkjXt1Lp7CcALkR9/Ah4+55/FGHpI9iLffBoDOUz3u+meefRFdHaSXAJiERR4m9bgFWN8AoB/Gx0ZnYuLyzYne9x9DHkdsRqmIhMWMieAuwi+xxL73uRW8bwVwAdRWz2AaohhoJpW26PH3jpco4sAvIPk83XVKgDQwAk9+mqIwNfilyTfs++++9627777Tiq9Zp999nmQ5AUA/gezl2acAPg3Mzvu1ltvnW9n6MfP/iuKKDOljPlfYGkj8jZA48efIvHXnf7hapqGNMt2jTH2Fe2n6vl6nwzghKI954Jy6aWX7nzZZZftc8UVV+w0n+bQxe6/dh23cMopp2xGnjo7XIdv11FM5CcTWEyQ7yi/dmEt5LCbGU4CsMc23pM25AHGdjLv0kRyD3c+LkbfKUZPioyBzTHGwSJrIHXnBpL3kHxoO+//T0j+5swzz6wx2GNLAByS/07cFGMYDiF0uXsvgCGSm4pd/iF3tpPYg8xfAxZ4t406BgBSkjsBOJTGuTrulkgsdrJKcrCGr+s0wyAeGYR8EMQH3P1L69atm9RGxSUfu6RK8D8AfHYyYxDB4SzLhtM07S66VNQrQPX3AN61fPlytTtVAKBxMYAksTLq17ObyNtrnB1j/HGtX5xl2R0AzsP00wuno53kkSRfeeutt87JB1FRCGlsq3+XuXurJqsygzrNbF4fL1m2bJkb7Psk73T3+9I0G65W065ip3+nOuz078irzJLDP/nJTy6IQN3ll19ul1566WOR77JcTnL15Zdf/vh58usPFBXJ5dHPoG8B+EsdvlUCQ0+RYj6ZRWYrgLddeOGFz77wwgubfnd45cqVLQDeCmD/ac5r+wA8hsRu7uxy97K7dxZZA10xeilGH4rR/+zudxXBgQEA34sxbpjCBfIcks+IMW6IIcDdO0k+6O6DHr2Dzg6SvSB20YJ/Zrj7IEkD8CQYDjzhhBNs7o4nWOxOkhya7HrEzBYVQQAg38FfTeNnP/rRj9Z0rPniiy8eInkhgJu3MwZFdx9O0zTLQtY3A9dsAuCFZnb8UUcdpSxeBQAaEwAwQ0sNKXg78hcAZ5VKpe/09PTUHFR40YteROS7cx/B9HoNT9fuAFaQfPIc/dAiyRE8nMrn7j46yYJkIlNVQl7bI8znF9HS2vKralr9aTVNd44ee4uaGY3KbFgC4LQY4z7XXntt0z9vih2oMwG8geTjSL4GwHuvuOKKOb/T4e4gqYDqxM+guwB8t163JBK0wib9zH8agLNJ7tLf39+073F//wcTINkfwDGof9G7pPie3chbOm+ZOfBYd18So98fo19/1lln1bT7f84557RG95fEELIYQ0dxlt/o3B1Eb/FzVah4ZsWiHZ0BWATiIDNbMsfXXovcWSqCAJM5clI2M0feZnw9waumXKPI8Afkm493TfBfsxjjpjSbdIu/qeoE8DaSB+jyVQCgUY/yNjNrwfTT7jcA+ACAr+2zzz7hOc95zpS+yT777FMheS3y7gGzed74nwC84wc/+EHvXFyIFQ/rSj7H5mCMsZaoIYtFXBV5AZYqiUDSSY44ea+73xWj/ynE+GCWxVCpRI0OgmKnbl5fDK85+DWB5JeL6382JqF/S+J9MfrTL730uqacBF911VW47LLLlpI8C8DhRYClvfjPh5D8wOWXX77HHH4Jo+6eQD3FJ36AGFMAX0HeIm764wqsszgKUJ3EX08AvNzM3tbb29uUBW/PP38tWlqyp5jhAwD2bNTwvtWfG0neUVvQoh9Zlu0VsuzfYoy709lFctctFvxa9Dfi/iQ3bRG8NAB7G+w5p5182lx//zvd2eV59smOxoIWmFXN8DGC6y6++OLB9evXT+mHXnzxxU7wBwAuQn5MsHgbmWYhG0iztLdo8TfT79/OZnbG8uXLn/zWt75V94oCADOunCRWMZtWS5kBABeY2WfqsWgfGRnZCOBDyAsNzdr7grzozsE33XTTnCyggjxKOhJj5DbO/kfk0dGHSD5YFAmsRHeP0Udi9A0hxgezEDZkIQxnWWCahc4sC7tmIe4RYvybGH1p9FhqXMchmeMBgHIzTOLM7H+QVzOflR8PYG/A3t/WNvbYSy+9tOmukxDCTiRPB3AU8l1GAEhIdhVHmN4C4N2XXXbZnNyVIgknS7rjtzFRYkIQP0ftbTW3+S3NrMvMRjG5zYg2AG8zs4M/8pGPtDTf/ZMuAXgGgOfN0rx0Ux7gYU0V2sfGxtpJHIC89V8ndCRxVrh7y1bZS0sBvDp4mA9Zoi10LnLn4A6CAKkB3zGz9Wb20HR/6MUXX5wCuBbA5wEEkoNZyMayLOtrYG0tA/DPZvbOJElUfFYBgIZMhvsAG5vqXAnAl0h+7F/+5V+G99tvv2n/Pi996UtB8rckVyNv0cHZeF9ILnX3M0k+77rrrptzHxvJ7hjjQx59jOSDTt7l7n+KMT4QQqxkISALoZxmoSULsSULoZyFmIQQkxDjohDjY2L0Pd35GJJ9zFObrLgPSsWfBIray8P6zGzeL4zM7L7iQV+ZpV+hxQwvN7Pz2tra/7ZZggAf+9jH7OMf//juJPsBnABg6zP07SRjMba8xczed/nll+92xRVXzKWXkR+xyutByAROPvlkZFn2IIj/RG0VtLen1RJrqaHl3G4APkDygI985CNNcY78vPPOw3nnnbcEsDMALJulOakD+JYZfnr22WfXNPcyw+4AXuZkC/Od1Mpszd8WsKw4vtS61cLypTA8aZ68hhaSiz36KPLuFRNdQ7928n333Hvv3VPd+X/U9ZvYRhgujB6/WU2rFkLoReNrVLQAeAOAw44++mgFoRUAmHHlJEmyKQ7UBPCT/fffv65n9vfdd98I4NsALkV9qg3X/BAsziI9CcDpu+yyy65z6PMi8hTVkZCFJM2yapaFtiwLO2Uh7h6iL43ube4sed5SZxHJPhI9yIsoaUEvU56kI28lNa+1tbWlAL6GvGfwbL6XB5vZuW1t7Y//xCc+Me/vyyRJnmhm5yEvXDZRAT0D0FaMrV0AjgVwqrsvnkMvw91dqf87cPrpp9MT/yaAn9fx23bW0BUAyFv3foDk89etW9cE8zfrJLEcwNuR76DPho0AP4uHU6Env3JpaXlRuZw8EXldgT4nR5jXc0p1xzRockiG6HGi422PAfGaU045Zb4sKssEet0Ziw4BW2cG3WHAXZ/73Ofq9gPXrVtHAL/Lsuzj7r5hFufK3QBOJvmMY489Vhe1AgAz+9QxQ/c0igHOyJngfffdtwrgKuT1ABp97pjIH1wJgAPM7ITvf//73TfffPOsf1hZFqz40+3kUgCLAbRZfq5/SLexzOTiqI5FQ2fNsmXL0NHR/jvk55irs/irdAA41Mw+kiSlZ1599dXz8hl0+eWXt1566aX7AFiP/Mz/9hYv41kAKfKzwSeY2Yorrrhip8svv3wuTKA3q6DqJCcOtA3FM7pe91ACQ1eRBTCZowCGvF7Ph2OML7jwwgvnZSbAeeedh9WrV/cmiR1lhhPw8LGZRojIU54zut/nHr8J2LenUPyvD8AbkiRpNbMK8iyfJSRbmPd5H8LstXheSAEAeJwwoNoB4ECP/oR5VDyzRKDbnS0kNz3i+jGLliR1zy5Zv369m9l3zOxizO5mx2MInh1j3OOoo47Sha0AwIxGAEpmNr7wnUu/14PIuwL8ZBYeHuO7QJ0AjgPwohhnv/5ZjA53H69c3mlm472Aewzosvz83ghmL71ZmnmsaJLXsWzZMgfsPwHcMcu/SiuAlwNYZ5bsf/XV18yrFoGXXXZZj7u/EcDlAF6MHVdJTgB0khxfNHYDOIHkCcjblc0mn+D8rGzz3QIB/D8AN9Vx7tBqidWSaZQUQYAPAtj/oosumndBgCRJFpnZMQDekyTJzma2ETO76ZGSHHT3SoxhIMvS+7Os6mlWLWdZ+tksG6tpI2HFihVmhv0APNPMepPEsmK+ZgA6CCxyMilaC47qxpnJAIBvxLaLl/4DgH03b9g8n+4RQ14csIPOTWhMF6IqyU9iFouRE0wBvIrg4dFjm65sBQBmdBKaJBbMZnU37FH23ntvtrW1/dLMVgG4u5GDDsktC1TtAuBMM/v773znO7M8wD/y90zMxopBcTwQsJMBZQOqBjyEvIKfzuFJfcZIs74mej2/A3A1Zj9Y1gLgXwBcZsajrr322t5rr712zsZa+vv78fGPf7x82WWXPY3k+QA+DOCpmHyLpHaSKR4O6vYAOI3kyZdeeumiyy67bLZe2kix+NfZy0k49dRT0drSeo/BLgXwYB2/dacllmLymQVW9J1/f6VSedWaNWvmRXeAD3/4w7ZmzZpdAbwLwDkAdgbQlSTWmSQ2UCw+pvvs9jyYwJT0+2IMG7IsDfmfKrMsXRxj+Bt3L5P8Bum39vefW9PPbG1t7QXw2uL3L5VKJTd7xIZNCUAXgV4nU4KboMrCMzI93EFHqE4Ah0XEJfPwtXU62eXO4WJcmLE57WWXXYYrr7zyfgCrkW8+NtowgEXFfP74JEkOeOvRb1VQWgGAGVzxmnUDNudStJ7znOc48noAHwMw1oifSXKYj64C/RyS70iSZPGcKgpotsTMto6KtgPoBdBr+WAyVLx3CgTIdMfINjTJmc6OjraKGT4P4Kdz4N4wAH8P2Lnu/BDJZ11zzTVzbiF66aWX2u67776bmR1O8mrklf4XT+G1dpLcvMW/W2Rmp5nZ24rJT8Mnz04mTmq3pQbHH3+8A7gewLdQvyy9xMy6i1Ty7X3PvHVtjJtDCAwh/DPJDwM4Zs2aNYvXrl07Z9+3D37wg0mWZU9D3n/8ZDwy+6XTzHqSxEbNplQDKSU55O7VGOOGENIH0rTKNK0uybK0N8bQ6R6XkOzAw0ldfyRxqXvtRR0tLy730vHvlZh1JUky0fcpAVhEorvIBhjBPG8rO8fW/5vd2b6Dv/Tc4s981M48CDC2RQbZTPo9gPMB3Nfg1zm2xX35NwBWGO1Jy5cvV/0uBQBm7uZKkmRgLi4SX/CCF4ya2ZXIz+w2IgVocIKf0wrgzWb22l122WUupVAlZrZ5G5PsVgCLDWgvMgJUmVemt0o1q5hZU9SaWLZsGe64447/I3FVcc/PBUsBHE3i30m87Zprrtnl2muvTWY76HjFFVckH//4x3sBHIS8OOvFAP65GGOm9LwZX6xs8e/6zGyFmR132WWXdTW4O0Ck+xAUAKjZySefPFJcD3fV8du2Wm5kopUOwOGYL/xDFkKfu3cX1+LjAZwLYLW7P2nNmjXJunXr5sx71d/fjzVr1nSEEF5B8jIARyAviLm1FjPrS5IkFHVXthUIYfGnSvK+GMOmENI0y9JKvsNf3TmEsLu7txWV4SdKD48APzUwMPBfq1atqvXsvwE4GMCuW8w8WpIkadnGXM0AtBBY6qSTGCwCAZqTTHcAi56R3NH72AfisFOPP3W+jnMtJBe5u830kdwrr7zSSd4I4CI0rr5WRrAd+UbL+Lp0XwAnOl2daRQAmNHJfV/Ri3eu/V5AnmK4CvWtOrwt4y3xttZjZqcmSfLs733ve3MlGpeY2WJsP6WuFfkOQ4/lf28T8iijivJIrdhM101/fz/M8FUAX51jr+sZyHcHP+nO11UqlT0++clPNjwj4JprrilfddVVexrwWjP7BIDLALwS069SbsUO5NbZJEsAnGFmR2HiTgIzNn929x7d3lMcFMifA/h4sZir04Mf3TDELZ5tkeSoe3woTbMkhNDj7osmmLv1AjiyyFA5dHR0dE6kPH/oQx8qt7e3PxHA2QA+CuAF2HGbsb4ksbKZbdkXPc3fB6+6xwdCSO9P04qlaaUvy9LuEEKXe9yZ3OFu8Ph4fiuAf1+/fn3N458Z9gTwiq3mS0mSmCWJVbb76QI9BHuczJgHYKu6k6YsuHs3dxzALAPYJ5TCXkceeeS8XaqAaGtEyOiqq64aI3kp8q5BjQhSheI+sK3WpsuSJHndUUcdpQ41M6S80N8AMyRmNjIXqyDvvffe/OEPf/hLd1+NvODUjD3USS7GtgupPJXkmUmSHI/GpwZtIz5ibmabSe68g7/bCqDV8oXOAPMgQCsaW3VYGr9iD/bwubnpBq5azSzZ8UbD/FEqJQ/G6OMT8r+bM5McoJfEAQD+hcQtIcQvX3311d8gecdb3/rWGQ1WXHnppa1JufyMkGX/BuClZvZsy8/x1jPw2UHyITPr2uq63AnAe0j65Zdffukxxxwz4+eFSW4kuZNGi6k59ZRTKxetv+hqEPsBeBnqs6GSmFkHDIOkJzE6YozJJJ5zQL6D9gLkhc++sGbNmsuTJPnRihUrZuXs+apVqxZlWfYSAG8E8eziDr97Etcl8kQIZPkOf9yN9MSdFXfvBTjdFsX3k/hgjH5nrV945plnJsiDgX83waSkJ0mSTe4xYvs1NcoA+kimBIYSwxhgvTu4fjLkNaHGmuDWaQWwBx7e8Z3q+FV192FMLjD7eIO9tKur63+hYtGTCQJsWr58+RozezrywPwMTtUQMPGRup0BvJPkz4844oifXHPNNcqYUQCg/oNRkljJHdXpDkgz4fnPfz5vvfXWGwCsA3AGJk6dm65qkUa1rQdQCcCBAI76/ve/f+H+++8/FzIm2swMxe89mQl6gvxoQAYgJXA/8t22tgke1jp3NM85WTKSZvaQmfUUk46pTtDbiq91NEnW1Jvf/GZec801PwHwMRLvRp6GP5e0AfhX5HVI3kT331555ZXXG/ALAA/CbOBPf/pTZSrtnfr7+/HY3XZrQbncQ7M+I/eA2T4AXkjgyQB2K37+eBuvumYhkOwGsMnMtg7oLkW+UxquuOKKa48++uiRGXx/Q4yxt05zgAVbRPDkE09+YP3F6y8g+SQAT5zmt8tIRpLVGOL9IYQuOjsJtgIY2GreVppgLjf+WfYCOJzEi2P0r5533nmfJO23nZ2dm0477ZQZm0T39/ejXC63mCW7kdgfwJEx+jOLBZqhpt1EguRYCJllIRs1oNvMltbhOqsA+ASAG1evXl1TQPGwww5DuVzaHcBrtjEPs1IpSWL0MEE9pW0thBc786OKZuhEfkwomWCR9DEAl4BNUD/A0IK8gOL7MPXjVCBZygNCk1IC8NokST4N4A+aIU3iYzL7NYAPALiwCNjMSACA4DC2nfn2JBjeVW4pn4rGFkVXAGDhXOdWNjOfizt8ZoZbbrllxMzWkfwHAIfOwAK1gjwKt71Kwu0A3m5mt5H8anFEYTa1FK2Dynj4bO2kvg5Ai+UP8M3Md4kTPLII19NjTHqA2osDyRyaZuQFdJaC3Iz8HH8rppbGbUXNifEqtU3hiCOOSK+99tqrADye5FE7uP9nQyS9QvdnAXiuAW8G8ACAn4P89WP33PP2T1x55Z9pdq+RGxwYNLPR0dHRtK+vj+7eGmMsk+wC2QtyiZntQnJ3mD0ewBMNeDrM/m4bE9HKDL0nrcX3Trf6uVYEHz5AMl511VWfWL58+YzUfyExXFT/r8dAvhOAF19yySUPuHsKAF78b34OHFYtofTQSSedFCYxMODC9Rf+d4LkwwDWoPZijiQ4zMgseix59Mzdl5Bc4s7F0xhvSgD2BPB2Eq8H+K2xsZFvrlq16iZ3v+s973lP3T6c6667Dn/84x87Qoh7kXwRgIPMsNc0F3ejWZYm7nFPA+53dySWbLTEFk9j3koA3wPskpUrz615F/jJT36imeHZyLuXbOt66EoS2xjjpLMUEgAdBNtJbDZDarD2reY09wK46vwLzv99Mzx3VqxYgQTJ5wgeDOA5U/w2TnIzyd1q+QhB/JsCAJNz5ZVXhuXLl3/RzJ6GPDA9E+16K9h+ZnOCvGXwL5cvX77mqquu0pEZBQDqridJ7P4YOb7TN6fss88+ALDplltuWQPgCQD2qvNnZ5OcCO5G8oybbrrp9ptuuum3++2336xGTMys08xsGoGbPssDHymAB5kHBVoBLLfE9/v6N7650AabEQMue/nLX/aFJnpNCYElIDOSlSIjoLcIBFkNN0g92lPNOXlVervSDE8h8QI8vFs325zk5mKHZ8viQLshz0Z6KYAKgUGQIwRGDaiCDJ0dHTGtVlksgpLis26DWQeBLph1Fwt728F7k3FmaiQkRXGy1Mwmug53AvDeGGO44oorPnP00UeP1f+99fIkz0tPRjeAUwG8PkmSjOQIHG0Jkvl6djM4/KJ169Z9+uSTT95h94/TTjqteuFFF346seSZAN6K7QekiXynnyRHYojB3XtJjn8ell962N6RvFotAbCMxIGA/SlJSr9Yteq8m5B3AnkAwLB7Mloul6rvfvcZ27ze165dixhjOUZ2AOxEnmnw+Ntvv31vEnsDeBKAx0x3oVAs/qvucRGAxGCLAXh0b01oQ0mStMPQXuM4RQC/AGxlsaCu/aZNrJ201+3g8y2XSklXjF5rRqkBWEwiJTiSmKVbjMVfJXhHszxzLrjgApx+2ul/LJVLN8DwdNS2gfNXMcZas0HaABx88kknf2bd+nUbtOzZsauuuioeddRRVwJ4GoBDZmDNON7+b3s6ARwNw0+PXH7kN66+6mp10VAAoP6LSeTp4XN2hy+EcJuZnZskyVoz+xvU6TgAyQ6Sk5noJgD2BvB2dz8Hj0xLnA3dZvYgyV2meQ+UAXQYMFwU5ikBeDYWXpFML2okfKEJX1sLgDLJDpADMCuZWRsmu8Nr1tFsdQAA4IgjjuB1133utmq18nEAjyH5+Mksjmc+LsER99iJbS9Srfg9ZzJrYSYnGp0AHip+/4mOIO2BPP1yA/JOMPVd4OZnZ+tZB2UxgEUkh929jOkXTJxtLyL4JUyy/efApoGBvqV9HzTaE7BFe7gtx1YQQ+6O6DF6dLh7HyYOvo9n5NVzLmLFRPsZyGsEHIp8rL8TwB+SxO9y93tWrVq9GRjvO87i+rdWAO1pmvUgP6ayJ/LOA08BsCuJVmy7iHCt9/1YlqWpe+z76/czlMySQdJ3cbKF7kNJYlUz66vhez9A4oNm+K9zzz13qkG9ZyGvTr6DqWSCJElSd5/K59cKoMXJigGDBnsIhi+TbIouNOM+eOEHsxUrVnzRYG9EvqlVc5CouH9qvQeeRXK/008//Usf/OAHdaZ8cu5Bnt305OIeqNfcIBAc33Tbkb8BcEZiyR8A/FYfSX0kegv+Omq3JYkNzuXfcf/99w8kv+Xun44xbi4eCtNNEfWiv+hkH1YlAK83s9ffdNNN5TnwuSWoz86sIe8Y0GdA2fL0/yFsv9NA090GmHtp4PV+fWUCS0l20L1KclPxGe+4lVCTjpfLlh3mgH0DwJVF5e1RzG53gArdHfXboZ7y2IgZzPog2VP0Bt+WXUk+bwZ+blYUfa3re5UHbbxMcP6PIUS5lk++v78fJZT+CKAfwE+K4FFWFCp7IGRhc7VabUnTtC1kYYm7LynGk4km0ykwoz2/k2LSvQh5NuFhAE4H8CGAH0VecPhKwD6R/8EVyNtgXoK8S8fxyIsePqEI9JTrvPjv3er7lc3QUYxLJZKLYvSSOwcm+XweBPARgF+c6uL/ve99TztphwLYfcdzEnSVSkl1GnMzA9BBoNeBX1hiN69du7YZHz2/AfCdqQ02PkxyKgHapQBeUx2r9kEm5corr2Rra+ttRRCgnkXAq3h09f/tjA94Yox+0hFHHNGrT0UBgHormyXtc33Bt//++4+RvALAj9w9cfdNmF5VU0ftO/lLAZwI4J9uvvnm2dwpNAO6DXUN3CTIMyvGAwEDxQQi6BZpKm3Mdyy76D5QLMSy7U7K8joATYn0MTNcC+DzZlZBnpo3G0GAMbqPkN6DWT6KwMkfjZqqFuQB1XTiH49fIW/VWO8AwBDJegZvxxf/pWLxvyCLqJ500kkO4scgVnr034UsbE6raaVarS7NsqzP3TsndeyCbCVnJRPRkKdjL0J+DGXn4s8S5EW6yjM2/JCjIUuz8bT/Rz3n84ytuMXv2e3uHR59ENuvjF8B8B8kLiuVysNT+eX6+/tB8m+RZ3ZM5liGJYm1JmbTnUsGAF9rb28fasb7heR4tmGt8zf36D3FMaqpXOMvpfFJmgJN3sc+9jEH8E3kwcB6HElj8Wcyi/mM5IC795BcBuCQI444olWfigIAdX0vksTc8rNXc5q73408En87yUXunhY7mT6Nm7HWQfRpJN8RQtx9Vt8MM5hZmKF7owPAUgNKlu8+THa3WOYHA9BKYCeSraSPYDuBAKtnv+855ogjjsDhhx/+YJLYagA3WF7lcxBoaNXplO4jRfrv7D+bJlfJe1pjTH7dcev6EgRwG/IWSD+u88+suHtPHd9fJzka3ZOFvPgfd8opp8QQwjfTNF2dZVnm7r3gX2tRTO6qy9/DrgXylpHuI1lWjdHj9oJ+HYnZlrvqBqDVyb4Y4xjJkQnmPxmAzwI4f+XKlRvf//73T3G+lbUg70jylMlPS6wrKSXTXbjfBuD7U+l0Mh+sXbuWyOtQ3FTLnIrgmLtXpzGG7WSwQ08++eT5tP6JxVg7a7/AlVdeOejuHysCAdPOPEaeYVvewbpkxJ2jMXpn0ap9J5idDrNnH3vssZrBKgAAuDMU0cTp6rH8ITOnyxe/6EUvGh84PwJgM8ked28tdjFrfR8Skn1TmPSNxejPz7LsiG9961uzWTehzRK0YuYyN8YnY915tgEGkO+Oqhppc+kk0etkO8nB4uEUtprUtW1jCjvqMTZFUKitreMeM1sF4L/NrIz8KEwjggBO+mix+J8TtWlYn9TmHWlHvku55Xv8OwDvAXDTscceW9fgJslKMYm0+nxmHI3uVhSFU/tUAENDQ6mZfR7AB5HXeah1or8ZC2NzxkkfzkKGSQSlzBJrmyDYXyLRl58Y4qYtxuwMwDdInEfiz9ObX9oS1F4ALUmSpMtsyrulKYCvmOGepo7+gA8iz3KadLCEzsTdp7MDXALwb0W9mzn/FpEcDjEMplk6mmazuz+ZJMl9ANYiz06bjozYwTE0Yjg6q8XYsOXc60kA3lGpVnfW00YBAMQYLUYfq0MQIEkSs7keAACA/fbbLwL4PIAri8Vol7t3F5HRSe/cFRPCyZ7ZzCd8MW4OIXgIYQ+SbydxwPXXXz9bfaANllQwM1kAW98rLQB2KjIC0mJy15TV4RfweNiWt+ByK2psDBX3kiFPheUW90I1xrghTdOQpllTXAOHHXYI29paf2OGU4sgQIeZbZrhIABJDhWTurlUmLa9Ac9IK2oBDBbPnV8CeCeA64855ph6j2nBSathvNfifwr6+/uxYsWKMTO7HMD5ADbW8owguRCOmznpI1mWmnvsmuT102lmEx1XTEh0xehd7j4IYhTA181w5sqVK3+/cuXKKY/NZ511lpnhXwE8s9b7OkksSZJkqhmDd5rhGxdccH5TbzRccMEFniD5OoDbaxh3KiSnW8D070G8+sQTTyzN0bcmkhwJMWyqplWvptWeLGbdwWd3aLjyyitpZj8BcAHyDiJTtXk7z9ZIcjC6O90XT/D3yshrkBz7lre8pROysAMAyAvD9MXoFZLTOQ8PM+sqJrxzHslh5MV5vl1M0FtI9sYYS8WEsjrJG3FHk3sCGHP3zSHEEELsdWcP8kjqHgDOSJLSE2frfTBgsTU2aNOJPBtgkeULxPFziAoENAcD0E2y193Lxc7SaHGfDBdBsIEsTatZmvbG6D1k8+zYLVu2jG1tbb82w7uQZxq1m9kGzFgdDA7SI8E5Vzyuo0HPyPFaAD8CcCaAG4855piZyGhyumd1eE0kOOZ0avG/XcPIC+qdD+DBGuZki5r8fXF3H86yNHH3rhqun8QMXdh2Z4Z2d7ZH9+vd/T1ZFn837QlykvQCOAh5EdhatSelpAqrOTsxALjZzH61EG4SJryP4GQ7ndCjV+rwYzsBHGSw3ebYEYvU3YezkG2sVCtJmqa9MS+KOWcC43vssUeWJMlXAFxdzItqFQhuq6ZIleSgR28h2budsaELwPEE9tdjRgEAIE9l743RR6cZBCglibWhsWdfp2T//ffnfvvtdxfy6py/2eIzHc8GGC0CAdtbmPoOFv5Vd9+QZSHLstBb9OUub7VY2gfAyTfe+K2uWTqjVE7yAm2N/OFWTNyXGtBeZARsLIIuCgQ0hxKA9i3qbGxwj/dmaTqaVtOuGL2rmRb+WwcBsiz7GfJin/+DfPdtJjIBhj06i2NIc2shmReZsob8JPKXJE8jecMM7PyP/5CptM6aYPGPUXf3Yheu2Rb/BOBE/r/peNe73oUzzzxz0MzWA1iJfMdsR990jEQz72pFdx8KIW1x91qDR1YY3c7C+Rvu/u5Vq8775erVq6f1Ab7vfe8xM+yFfJExlXHekiTpmkIxwM0APnP++eenWACyLIvIjwH8ZRJjWBY9LqnTj34BgOdu2LBhLow5wekb0iwdraZVplm6s9M7CM65Vu39/f24/PLLh83sYgA3TmG+O4p8vrz1PVV15+YYvZuTa0X8GADvOvzIIx+/fPlyzVYXeAAAeLhFzHSCACWzBGY2No9e948AfKhYgI5rKRYuZZIbsY2oeRFlmygNqkL3oZCF0RDCogkW/o9YgCNvJfS673znOy2z8g6YLcbsdXBoA9Br+Z8x5MUC52tGwEJqe7gtDmCUxCjJCt0fiCEOV8cqY2OjYyFN05J73Ez63STvyauqx6bbBV2+fLm3t7fdRuIdAP4fgNYiCFCvBWrqHiPpc7GtT0BjOn8EAN8DcAaAH9X7zP+WQ310T6f5zGceRIjNuPhPiwDJYJZm96fVNKtW65N9HWMcA3AVgLMB/HEHS4HNmAebD1Nf/MehENI2d2+f4vXTkZhxgntzFMCnAJwF4A91eQg4OwC8AsCuU56W5FkAtRaP/QHyAoALwoc+9CGAuB15cTnfwQC0mWS9xp02AK9z91mrYUWyEj0OpVl1c6Va6c5C1ut5B5w5j+TdyOsB/KaGuS6L9Ub3I+ZbxGiMPuruSzG5ThvF7YXnG3laiHHRC1/4Qs1cF3gAYMsgwPBUgwBm6DQzxzyoBQAA++23X4q8HsC/45FFABMAnVtkA2x9fi4rzoNuGQBwkhtCCJUshPbovpic1A25E4B3uXOvr371qw1/D8wsScw2zuLHMJ4R0GdAj+WFvcZTx+dLIIAxxmEsLOPtaBzABpL30b3qMVY8xoqHWI4h9qTVSk8W0l3cfQndO9wdMcadYwx7xBh6Y2zOOfuyZctYqYz+L2AnAfhKEQSYbP/t7c+v3YeZ7wLOxedQhpkPhlUAfBnAiUmS/NcMLv4BYJh5EHeq7zVJjjg9Nsnin8iPMgzGGB/KsqySVtNKtVLtDiHs7u4t9PoM22eddRbOPPPMkUqlclUR6Pn9tp4JBEtoTtHdB7Msa5/G4h8AEksMZo94/8aQH4U8ffXq1X9Ys2ZNXT44Eo8D8KppXutJKUm6zWyyRe6GAXwpSWwDFpAL1l4wCOBL2MFRmeixi/XtzrJPguSfTjvttEaPPZUY48Y0S8eq1WpbFsJOJNvm05rsyiuvdJL/jbwewGTn3gF5Ie2Wh58r2BzzjLI+1H7UoQ3AW0G+as/HPU5d7RQA+GsQYLE7R0hMJQhQThKrYh5F4vfbb78hM1uHfDdp6wdgW3Ge2UhuxsO1AUbx8BmelORwCHFTloWuGH0RiVorrT4RwLtaW9uWzsJbUIZZ1xwJ2rQgr0vQY4BbXiywMtcDSiQ3hxgWQlGVAGCUZEZys7v/2WMciyF2e4h9Hr2NziUge6PHgTSrlmPen7qMfILeDnIJyFg8+AKa+NjHcccdh8MPf9Mfke+uXQIgNbPpdMKIpG+gxw5MPtrf8AAAZzYAsBnAR0meCuD3xxxzzIxeP04GTmto4Kh7Uyz+qyQr7r4pS7MH0kramqVZT8hCj7svwcTZcHXR39/vxdnZowF8f4IAE0ksnsP3xJTHW/c4mGVpB+ntdfh+vXi4TtOfkXfMWJkkyYN1/KwSMzsIwJ7T/V5mViqVkjiJZwQB/IL0m84///xmzQLZzhjlNwH42XbepxGPzjrfo7vCcEiMsRH1ZyLJsRDDhkq1EqpZtTvE0Eewbb5+ZldddVUE8AUAn8C2a3M88mN+uPp/ILnR3dun+VzpKVoDPmP58uWqR6MAQB4EcPc+dx8uFl+1Dtp9Zjav+n6HEO4iuQrA/23js+51zyvlFn1zA/IsgM0hxKEsC0mMcSnJqUboDcCBZnbsDTfc0N7gl182s9QMlTn0kbQgT3VaasDoFgUD5+JiMcQYjO4tTToeVAHcR+dmj171EAc9xqqH2Mfoj6WzC3kEfrzyexpiGMiytGv8rCqJBA9nw5QBdBeF60Yn+fCbt8wMRxxx+F+SxFYC+ACAh4pjUrUelXKAg+7ejfyc31wVMXMB4D8DOMvM3ve2t73tL8cdd9xMjwcp3YF8XJ/q4j8QnE4GwWwiyU0xxk1Zmo1WK9XRaqXaF0LYtZh8tjUqqLFixYrszDPP/IGZHWdmn97q/hktnsnNNImN7nFzHRf/AJAkeUvWnwM4ra2t7cLVq1dvXLVqVf0Wox4fA/AVyIuNTVdbkiSZme3oGVEBcH13d/cfF+JiZO3atcMAPrOtcddz9R4rWwC8kuQTZrAYIEkOZCEbrKSVSjWt7hQ9drNxNWZm1J577jlkZutIfp3cYTvHDcXcaczdh/M6SqzHptPTjTwri3EnLesVANgyCLA4hDg8hRaBSZIkEfPkGAAAvOhFLyKAHyNPydlWNLylaHMWQogbQggDWRYQY1xUpxuxC8BJZsm/fu97/6+hg1vep91sjt5nSwB0GdBi+WczhsacMZ7sE6oS3UtNMyaQIJmCvMfd7/cQzUPs9Rg76N5FcjcQE0WdSXIozdKxLMt6tmqZVsKjd+c6QXbDvYwF4M1vfvMo6Z8AeDyAHwE2DGAEkwxqkRzzGFvnYMX/CQIVdQ/UVZGf7z0mSZKrjj322OEG3dvu7jbFrx1f/PfMo8kqke/0Vz36A1mabUyraXuWZp0hhD6SS2Z7nCuVSn8g+Q4A7wfwp+J6S0k2U9u34B43ZVnaw6kFn7Zl2Aw3AlhO8sv9/f11naOdffa7SyT/BcBedZsAJLZoEgGAu83wpTlWlb7RtlX/wJm3MJ2J8/F/D+IlDz30UL2f4anTR7KQPVhJKy1plvZ43tauqRTX693uvtrd/xCj35fXakB1qzlu/hzJz/tX3dmNfMNlus/prPg5BwB4/Rvf9KY2iAIA489akovzmgA17VaVzNA237IA9t9//9TdP4m8IM5ED8ZIcijLQqhUKm3VamohhODuVZIP1jKZ347dAZyZZeFxDX7542ft5mrQpox813NnAzLLz/ttngO/b3SPFfr8KD4zqRVAdC/O7+/O6LuQbC0CXNt7ONDdB9IsjTGGXoBbHYFheRsPrGSBjKUAgI6OjiqA75rhODNcW7QInMxitsK8m0LHnL9+HvGPuhgCcEWSJEd0d3ffmGVZIxd6QyQX1f4ecMTp2Tza+XeSG2OMQ1maDVUr1Uq1Wt0phLDE3TsaudO/I6effjorlcoGM/sIgGMA3AQyAWo+djeXF/8bsyztLd73et2WfwFwnjveniTJz9asWVP3IHqSlBYBOASPLFQ2XS2lUrKj+efXSd6xkBckTv8LgC/i0Rl10T0OzNA4VAJwmJnVq7tA5u6b0iwdrlQrSLN05yKLsGk3Ca644gon8ROSF5PsitF7YoyD0X3E8yLkIwCGQAxs47x/RJ4BNQBgA8j7Qd5H8t6iLtMD7r7B3Qc8xkqM0WMMiDFkMYbRGMJQDFkas+wtHsO+hx12mFb3k1yQLARFECBuKpUSmNmkJqBm1mpmKfPedvMmVadok7MewFMBvLgY4DJ3VmIMaYyxw51tyHuhOskukqH42jKAjWY2ZmY75/vplqD2c4nPBfjOG2+88T3d3d2b99577wa99iQBfK6fxzYAvQDiePtA5gvLNszC+U+S1RhjU539Jzi+KJ/sfZvGGMdCyMrObfamtoW00N+WZcuWAQA/8YlP3Fkqld4P2P8AthzgXgB23sZ7V3GPQ6QvnhfvYf0qTacAfgHgI2b2tWOOOWZzo+fURWaP1fTqwTF3z3bQi3kuxGlSkqBzY/5c83aSpeL3ntOKnbNqf3//t9rb2+8ksBzAm4rn8nweZ8Z3/hcVac71+JxHkHciuciMt6xatWoGuzTZPwHct97fNEmsJ0lsszv7Jvjv9wH4WpIkI1jA1q5dm65YseIbBjscwJO2mKMgxhndPX8qiJecdNJJn1q/fv1U5o9OMnP6aAghiR7bp3GUdl4aHR3xjo7OL5jZswAcB2BnOklwjGYgfVOMcRSkE8hAthNoJ9iC8SLaRFJstHCLPwbAQCTFvG7L51kbHrmpswuAs0ol+9PrXve62z/72c+qJfd2LKTJbJnkkhh9GJM/t9qaJDaCedYabf/99weAO5D3Hv59UX13sFqtlrIsLHZnZ3ETdSA/dxaKYFAXyba8gKI/JsaYxBg3ufsQ6WMkN2Dy9RTaABwO2EHDw6MNCzSZobeGiruzHpgqPoMlBiRFjYABNPZoAN19zJv37P+knl0hZMNZlnY4fVvFaIgmP+dfq7e+9a044ogjBgH+J8ATzOyjmLj+SEb3Eebpj/Ml6Jww35GdjocAXAHgSACfLgqwNtrmotNCDastjnmeqbFojs4RQnGmfyRLs83VajWrVqu7Fu1qO+u449yoQAAB3B6jfwDA2wHcAMypWjY1fTYxxg113vn/LYCVJI4l+d0PfGDmFv/nnHNOC8BDkR/Zq/PcxMpJkox3nHnE4hHAf5nhp+eff/6CX7CEEG4DcDO2qAVAciPJmZyjLAZwULEzXWN0iiMxhqE0S4eqabUnxNBbZLktqIJ0n/vc50D6gBk+hPwox/jivZNkSxZCRwjZY0IM3TGGnuixxz220t3ontC9hfT2YkOym2QPyd7in90EO5FvlLVs571NAOwP2NuSxLohCgBsueAqjgMMTfY4gNmkzm7NOfvttx/N7NYsCx+pVtNKloUlRQp0stWCeaKzruO7py0kdnP3JTF6KcbYGmOEuz9I9/tBpsWiaFvFshYBeAfpz77++usbNhiaWTYP78NO5J0DWopAwOYi8DSjEwKSozHGFjRf5enJcJKjWZaOZiFbROxwt2oM8ihHHHFEfMtbjrjd3daa4VgAnysWv8zfYx/1/HjJfMo4K0/x9yXy+/ebAI42szMXL178y+OOOy4ed9xxDb++3b1US9ssgqPuXpljO//j5+MrMcZ70zQdS6tpS5qmrSGEXZmfJU0wjyfcZ555Js855+wx0r9O8hgApwP46TwLBIQYw6YQ0r46LP4jgLsBfBTAW5LELly5cuW9K1eumrHjcu9617tgZk/PFxAz8jxsKZUSN7Otj/8MAPhSZ2fnRgg+/OEPBwCfLd4XIG9PXGL9srImnDYC2N9ge51wwgmT+jkxRs9CNlytVlnN0vYQw04kywtt4b+la6+9FldfffWfzXAettgMIFmhxyXIA2vdxbg2jJkptFsC8GaAh73+9a8v645SAOAREzt3X1p0B5jMhL4lSWx0Pr7Q4eFqzLLs8yS/iG1mMdhiTK6dVyuAHpLt7r4kuu8UYowxxofcfZjkCMlNePTu9dPM7PQkKe2an6SYcS1m1on5uVtrRSBgkQHtlgcBhjD1dmuTWAB7oHvHAhwHorsPpmk1hhgm0/6LM/g5NIXHPe5vRkul0veTJDkOsFMBfKs4v5cAnG9nm6cSFEsB/DeAc5C3evvascceO1QcmZgNVZLZZF8HgfHFf98cmRtkJAdijGNZmm2sVqueVtOdY4jd7t4NNs15+b8655xzGEJ2txkuN8ObAHwYwK8x94sRhxjDhhCyeuz8P0ji88hrI5xJ4sfvf/+5M/48T5KkjfT9UYfWf9t8wJstSpJHbSj9DsB3Fnjxv63GIv4c+S4yAFTcvQszH0DemeCrzGxShemqadXSLO2MHrvmW9ZRA/wQ4IcAbAIA9zhWBEfG1xKLijnXAB5uRV7fz5I4GcCz3vjGN6o14LYWwwv0dZeKapwbkySB2XbbUZXMrMsMI2RdWsI0zMtedgAAbPjmN68/38yeBOCFmCA6aWZDRR/OSb9/xT87SHYUC/tRAxKYBTN70MxazGxxsXB6GYC33njjty6aoZt9q5eDqpmxTucPZ0OCPNWp3fL3a4x5tHR80KzLgEYyxBhjcQZrQS3+Y4wbs5D21FgYLINs04te9CIUC5VNn/rUpz4VQvyOe9yH5JEAno+87kUZ8yDwzMkXY2Mxpv0GeQurL5vZnccee+ys9/EmCZ9ccG/8zP9sL/4deVZO6u6DHmOPO83d24D59eydjmIhmAL47fvfv/Z95XL4T4CvBnAYgCcgPzY2lya1xc5/Np2d/4C8O873kB+XuWXlylWbGny/7B6jH2JmaZIkVswL6/0+l0ulJMTosXiWRwCfA/iAniCPsAF5McB/JT0Wu/8zvVFhBns5gKsA/HISQQqzvD6WFphbufrqq6tHHnnkJ0k8HcAbigBOaas5bify4PRoESjoRv0ybwzAMwCeEWM4DcC9+lQmXmgs2ODHFpkAlR2sKBMzC5ib/dsnsdoJfwR4AfL+0xMt5hdh+ufOOwksItnm7jvFGPtCCJUY4wOkk+SbAb7guuuua8BgaePpq81wnq4TQK8B3UVGQC01LHYw4fHxfuwLBUlWspANFIv/mor0kIiQSXnjG9/II444/L4Y45dJHkXyWCcvdff/dfeKuw87uTlvF8TKHLxXJ1P4dRDATQDeZ2ZvMLOL77333tvnwuIfAIv3t3MSL3S2d/5TkkPFmf6H0kq1lKXZ0hBip7uPB40WpPe974yQZS0/I3EBgGXI6/rcjIfTo+fK4r9niov/DPkZ/6tJvMUMJ5jxGy0tLZsa/ULMbH8Ae5HsdfdY1Ozw+v+cpCtJks3F/70dwPfm4zHTmXTBBRdEAN8H8Ct3thaFeRthTwCvPvXUU0v6FKYdBBgCsM493kJusw1tC/KNgU48nA1Qr3suAfAyMzvy9a9/vTI0JloEL/DXX3L3JQA2FJkA20r96UgSG3VnNh/fs1e+8pW88cYb/587P4S873DfI597FkkOIS+EMu3nGx6O4pXzliAkgD0ArOjq6vnz9ddf/4cDDzxwJif85cSSByJjO3ac2j0fJCiqnVoerEoBjPLhHdWpBFWqMcbWGS6sM9cW/wNZyJK8xV/N9zEx99Nw55yjjz46AHgAwBc/+tGPftPMngHwXwB7EYAnmaHXYK0wuMEGzWzE8tYjnUX9lfFA3viCvBE7Lo78Puuc4BqoIt+t+C7Jr5rZzUmS3HPMMcfMtQCGF8G9Hb1Xo+6xQrKR3Rm8uB9H6RyLMXS5c/z37dFd80j9/acDedD31/39/b8ul9v/w8yfB+BAAC8CsBvyjLFGB29CjGFzjWn/LBb9QwB+AuDrAH7gzl+tWrVq1hbBZ599dq+7H1bc8wnJHncOmyWDSWKdqGN7RjO0JKWk7O4VAN8i7Tdr156vC33rSXdnx12jo6NfiR53A/H4Bv3YTgAvi1n85JFHHnnX1VdfrQ9iOgNEYrfHNHwE5FMA/D223V2prZiTjQHYWKxR6pHt2gvgeDP+/E1vOvTGT37yP7WJs9XCYqErFZkAQ9hOJoBZ0mpm8/bieclLXlIhk2uQp1VtncrcZmYtmLlduPG2dy8yw1EkZzyaa4bFZg2tpt8o7cUkuceAYct3IUdr/Ozo9Kq7L5SCNfl5/6xqMYbpFKNTqt80vP3tb68kSfIjwC5B3iboBJKfdPpP3f3e6LE9xLBzFrKdQwg9WcgszdLhLMvuzUJ2d4hhg7un7p45OUxygOQw6t81w7d6FmQA/gTguwBWAXiVmZ0UY/zccccdd/ccXPzD3Uew40VZoxf/FZKjHuNglmYb0kq1LU3TvmKnf/x4k2w3GNCPc84588+kfwGwd5rhVYCdUTzXf438edCQuX0IYaCGnf+0uIe+D+CDZngtYG+J0T92//0P/Gw2F//F/fI8AP+45X1Aotvduzz6MIl6tucrlRJzM/sLwC91d3dUdGVPeK0zhPDVGGKjskFYFEX+u2pW3StJEo1H0/TJT3zCQf4AsI8iz2Dd7n2B/BhAD/IA4RDqUyRwDxLvDCH5G30ij9QsGQAp8vSRKaczFxOQjaVS0otH9pUc15Ekdn+M3LmBD9k6LogNADZff/0Na5FH4vbe6sYbKa6HmdwRTgA8n0Qn8lT2yY7LA8h33mItL9jMHiK5W5Peu6UiqJJZng0wXFz/k5mMBY+xQnLpVu+pI4++zn9EBXk0eSzEMBZC1lKkQ091F9+R17qY6BqswmwQskNFJfwqgHsA3HPxxRd/J0lsZzP7BwDPAvA8AHsR3BNEC4Augr3j4a2Yv/0VAGnR7aOlqDcSARtM8s+iZGbdZn9tA8QtAji2w88ZSEEOIt/p/ymAWwH8lOTPzWxwFqr51746izEDGbczZo65xzHP0/4JzNzxFpIDHj24e6vH6P7oDgNzMbNmM+Zwxs8555zjxZxnAMCvV61adQWQPBHgs4qF7LMB/AMerhuT1DHIk4WQDYQQeico7jmeKRWL+/z/APysuI/+1yz5ZZIkm4vWh3PJ45BnQG59HyRO9pr75iSxrBhTph0INrOucjm5Icv8v1X8bzvjWDX8kcb/B+AZmMEAfN7KL1ZDDCWPvpjg08zshu2NiwbLivuvMRuDxCYa592x1s985jPZG9/4+n8n8WQSy7HjQG+5mNuOd8NqL/5MxzPMbFfkQUhpsgDAHwGcha0iuFMIAkQzC0libdsYtFMAD5L83rwdUEP8famUnGlmrzPbMmBiI8WZ6JmMegYA3wRq64dtxl8Adl6xQJjsQ8ABSwG2L4Qb2YqWgcyv//KOZuTuHiYI9owgL2TWDG4D8cHI+LQQslbSp3tds3h/Jgoy3ol8siA1OvHEEwnggWuuWftApdL+gxBK15ihD/mRoX8E8EwAf4e8fdAi5LsDnQAWj7eFKoqQOoDemN/3ZoZyMTHbbJaMmMEM1m1mvTDz8fulCIyOIQ/qbgJwF4CfGfBjAHcA2Ehy4L777gvzaaJO968XE549JnzU0cc871U9kzv/MYaQhhBL7g6QrfNh9mpmwwD+I0mSkfnyeZ999tkpgF/19/f/uqWl5UvFvbLEzJ5K4lkAnor8fHNvcQ91Iy+qVmtqexZCNpQfo2KCPPA8UvxzCMD9AP4A4DYz/oJM7gV8IE3D0B133BE/97nPzdXP/NskPwjgb7bxyKRHZkkpScysHvPmkVKpdE2SlOZlh6lGSZiMRIuXIx+vd5qJn+H0NMsyRI9WFETeBMNXDLbdrj+JJRucfhGAO2CY2TPmxCiN/z4fAwD5/RU3u9sFgD0A2B61rRkYALQBNsUAEAnwNjP7g+6oR60bRERE5qZLLrmk1Qy7mdnjAOwOYJdiMrgr8l27ni3+tCIPgJWRBzPHdyMryI/KDAD4M2B/ThK7v1QqV5Ik2QjyzyT/RGDD0UcfTb3r0kzOP/98CyH05AtcewzAXQHbCcDSIliwaIugQBvywFBrce9k+UQcI+5xQ5alIyTHz+puBOwBkvea2T2lUunB/v5+nbMVEVEAQEREpD6uuWYtKpXWUggt7UnCVtJaSLSYoQWwBKABSEiY2V8LCEYSwcwykimAqrtXTjzxRC1WZEHq7++HWWcpSdiaJN4CeNnMyiQT0izvfkSSdMBIMoSQBTJkIcRscHA4W79+vd5IERERERERERERERERERERERERERERERERERERERERERERERERERERERERERERERERERERERERERERERERERERERERERERERERERERERERERERERERERERERERERERERERERERERERERERERERERERERERERERERERERERERERERERERERERERERERERERERERERERERERERERERERERERERERERERERERERERERERERERERERERERERERERERERERERERERERERERERERERERERERERERERERERERERERERERERERERERERERERERERERERERERERERERERERERERERERERERERERERERERERERERERERERERERERERERERERERERERERERERERERERERERERERERERERERERERERERERERERERERERERERERERERERERERERERERERERERERERERERERERERERERERERERERERERERERERERERERERERERERERERERERERERERERERERERERERERERERERERERERERERERERERERERERERERERERERERERERERERERERERERERERERERERERERERERERERERERERERERERERERERERERERERERERERERERERERERERERERERERERERERERERERERERERERERERERERERERERERERERERERERERERERERERERERERERERERERERERERERERERERERERERERERERERERERERERERERERERERERERERERERERERERERERERERERERERERERERERERERERERERERERERERERERERERERERERERERERERERERERERERERERERERERERERERERERERERERERERERERERERERERERERERERERERERERERERERERERERERERERERERERERERERERERERERERERERERERERERERERERERERERERERERERERERERERERERERERERERERERERERERERERERERERERERERERERERERERERERERERERERERERERERERERERERERERERERERERERERERERERERERERERERERERERERERERERERERERERERERERERERERERERERERERERERERERERERERERERERERERERERERERERERERERERERERERERERERERERERERERERERERERERERERERERERERERERERERERERERERERERERERERERERERERERERERERERERERERERERERERERERERERERERERERERERERERERERERERERERERERERERERERERERERERERERERERERERERERERERERERERERERERERERERERERERERERERERERERERERERERERERERERERERERERERERERERERERERERERERERERERERERERERERERERERERERERERERERERERERERERERERERERERERERERERERERERERERERERERERERERERERERERERERERERERERERERERERERERERERERERERERERERERERERERERERERERERERERERERERERERERERERERERERERERERERERERERERERERERERERERERERERERERERERERERERERERERERERERERERERERERERERERERERERERERERERERERERERERERERERERERERERERERERERERERERERERERERERERERERERERERERERERERERERERERERERERERERERERERERERERERERERERERERERERERERERERERERERERERERERERERERERERERERERERERERERERERERERERERERERERERERERERERERERERERERERERERERERERERERERERERERERERERERERERERERERERERERERERERERERERERERERERERERERERERERERERERERERERERERERERERERERERERERERERERERERERERERERERERERERERERERERERERERERERERERERERERERERERERERERERERERERERERERERERERERERERERERERERERERERERERERERERERERERERERERERERERERERFZgP4/1BUbx+lTA4QAAAAASUVORK5CYII=;" vertex="1" parent="5HN7T7UEc5agFK8pBkJ4-10">
          <mxGeometry x="80" width="54" height="54" as="geometry" />
        </mxCell>
        <mxCell id="5HN7T7UEc5agFK8pBkJ4-12" value="" style="group" vertex="1" connectable="0" parent="1">
          <mxGeometry x="355" y="470" width="140" height="80" as="geometry" />
        </mxCell>
        <mxCell id="5HN7T7UEc5agFK8pBkJ4-2" value="Walt-Id" style="rounded=1;whiteSpace=wrap;html=1;" vertex="1" parent="5HN7T7UEc5agFK8pBkJ4-12">
          <mxGeometry y="20" width="120" height="60" as="geometry" />
        </mxCell>
        <mxCell id="5HN7T7UEc5agFK8pBkJ4-11" value="" style="shape=image;verticalLabelPosition=bottom;labelBackgroundColor=default;verticalAlign=top;aspect=fixed;imageAspect=0;image=data:image/png,iVBORw0KGgoAAAANSUhEUgAAAMgAAADICAYAAACtWK6eAAAla0lEQVR4nOydCVgUR9rH3+6egxvkRjkVEFAUROWeyekZkzXHmo3mNtFssibZTdbb/RJvs2eym2wuc6zGXJvE7IrGrEZuFa8ooIKA3KCccs3R0/091QgC0zMMw8x0A/V7Hh5lprvrT3f/q+qtertaAhiLMDtRKQuKSo2saGCnhkanhoVPV/jVtbDBLR2sX2sn69PSyXqz7PDLkUtB5eFMXPV2ISvGORL1Hs5E7QdvbW4I8CDPB3qSFz546/UaS/w9mG4IoQWMRF56dZNrQZUuxSdUMdsvPHXKlTrd7LoWNkBoXQg7Kagn+pBnw/yok1++v/lypD91dO+7my8JrWukgg0yCCmpSsInLHWmU0DqHLfglJTSemZ2QxvrLrSuoeAgh/boAOqnUF/q7Ofvby7sqMw8dDYvo1VoXSMBbBAeVr2yyT23iP7lXUs23JFXQs/vUIOT0JoszeTxZJ66JuswXZf17VcfbjkttB6xgg1yk+d/u8mL8Ux+mPVMefB8uU5hgXBhxODlQtTBtawvyYbsz7/7ZEuu0HrEBDYIAHx8TL3m/f+ptzNjyRUGmB5EnWLydy5+783Xq4TWIgbGpEEUCiXIx6csnnHP+kdPldCLOzVCKxIXcinQKZMl+/73xdYfO6sy086fymgUWpNQjCmDTJup8IpZsO65ZofklQ1trJ/QekYCFAmQGinZW3Bo27vff7olU2g9tmZMGGTpio3Rk+9a+8qRfPoxDS20mpFLmC954fL/tv2Zasz+NCcrnRFajy0Y1QZZ/OSG1JDb1q7JLdItEFrLaMLTmaj21ea8cS5t23t5ueldQuuxJqPSIIuf3KCYkLJ28+lSnUJoLaMZN0fiup82Z1f+oW1/P5mbrhJajzUYNQZJTFZKo+eve6HDOfnZ0mtMhNB6xhLuTkRtEJvzunN7zns7t702qrpeo8Igm946vOSCKnFXXQsbKLSWsQwK6F07st+rSN++4cLpjOtC67EEI9ogy1ZunOIct+a9c1d1SUJrwdzC2Q5agyB30/sb574ptJbhMiINMjNB6RSkXLO9Tpr8Ap7cEy8h3uTFrnM7nvz2oy0nhNZiLpTQAobKvKXrF7rf/nZanTbgbuwNcdPSwXq1Oycvj5ml8HRiqrJqq8tH3JTsiDHIjNlK1xf/fun9nzsTd3aowVVoPRjT6ZIGzh4fu/SRST5UQfH5jFKh9QyFEdPFWvleR8bP5bpUoXVghodn5a7U/3y6JUtoHaYieoO8uOvw8quQuP1aK+sptBbM8HGyg9apdsd/85dX5/xLaC2mIFqDxMUrXe575dC7B89pHxZaC8byhPmRZxqO71idtmfL/4TWYgxRGiRkSmrEzKfSvq9qYsOE1oKxLiFEzh8+2zLvdaF1GEJ0Blnzl8NL89oS3u9Ug73QWjC2IT6M+vHYP+YvOZeX0Sy0loGIyiAPrzu0rZxIWiu0DoztGT+OKD778YIFpfmZV4TW0hdRGGR2otJxzqqD+47k04uE1oIRDhd7oukOn+MPrX7m7qNCa+lBcINExym8ZzyZdriolpkutBaM8FAkwAyn3OVvrp77odBaQOiJwvBpipApjx5Iv3qdjRRSB0Y8sCxAjTrg3jtuV6p/Tt8j+HyJYAYJmZIaMeXRtGN1LWyQUBow4qWJDbgrPklpfzF7j6DDwIIYJOX+9Y/4z3vni8Z21leI8jEjgzYyICVmlsKzKHfvQaE02DwGmffiwd2tTslP2rpczMjFrSP7nwf/Ov85IcombVlY0uL1j2FzYIZKi2Pyyt/v6fxWiLJt1sUKikqd4j/vnc/VWnCwVZmY0UNFAxMRM0vhYevulk0MMmlqanjUsrRjLR2sly3Kw4xOuqSB8fFJSruL2XuO2KpMqxskMkYRgMzR0MZOsHZZmNEPCtzvvEOp+jl9T7YtyrNqDBI7WzFu2uNpP9S34sUUMJajiE7asWrn4adsUZbVDJKcopQkPHMwraKBwZOAGItzpj3hw10f/HibtcuxmkFcZ63557mrugRrHR8zttExAEfqEv49cWrqJGuWYxWDLH/9h981OyQ/bY1jYzA93Ohi3Wc8mZYWM0vhZq0yLG6Qex/bcEehJvGPlj4uBsNHdRMbftuvD35lreNbdBQrMkbh76p8+3CXBhwteVwMxhjVTexEhULJXsjck27pY1vMICmpSiL2yYNHKxsZ/Jgsxua0QMDt0wKp48UXMkoseVyLdbHGp6zdWlili7PU8TCYoUJMXf3JlBkKiybAWsQg+RX09EoSPyqLEZamdtbnsU0/WPQ+HHYXKzRaMeln4pc5nRqws4wkDMZ8KhuZKVRj9mdN9eUWeQ/8sFsQxXNpXza0sVYbZsNghkKHGpyUz6V9YanjDcsgT/zfobUXq5kZlhKDwViCgiom/ul3OrJiZyuGvYaz2QaZFK0ILWOTNg9XAAZjDQqrdMk+iWvfGO5xzI5Bfrml8PuaZvw8OUa8qGWBcTHBVFbR+Ywyc49hVgvy4q4fnj5frks2t1AMxlbYxax+JzFZKTV3/yEbJGaWwr2YTtpuboEYjC2pbmLDwu5a+1tz9x+yQYKUa7c04ycDMSOIKjLp/6JiFX7m7Dskgzz+640RDXbJgqwugcGYS5cG7PyS15rV6xmSQTzi1/wJvzQTMxLpdE1+fMnyDTFD3c9kgzy7alNgbpFuwZCVYTAiIXr++meHuo/JBml3SXpmyIowGBGReZFeMtTJQ5MMMn2mwvOaLMnskQAMRgzc6GLdJ9+97tWh7GOSQSbfvW51hxov+IYZ+TTIk1bFzFKMM3X7QQ0SM0vh3mSf9PywlWEwIqBDDc5Rc9e9bOr2gxoket76VR34fYGYUUSjXfLzMxOUJvWIjBpkdqLSocEu6QWLKcNgRAC3Gso960xaeM64Qe5d91RLJ+thMWUYjEi4Lk96xZTtjBqkwT75dxZThMGIiLoWNui2h9Y/MNh2Bg2yYNn6BeXXmWCLK8NgRMLUeeuWD7aNQYNMm78ev+gGM6o5Xaqb9+TzG0OMbcNrkMee2xiRfZl+0GrKMBiR0OacvNLY97wG8Ula+09aZzVNGIxosBufMsfY93oGefqFjcFZl2ilVVVhMCKhpJ6JWfnSJh9D3+sZRDMu+Qmrq8JgRIRmXNLjhr7TM4jWI2WZ1RVhMCKCdk9ZYui7fgZ5ZMXGqPLrjFVfSILBiI3iOmbGsQLt3Xzf9TMI4ZX8iM1UYTAi4s//Ve1NTFbqLYPVzyCkT8r9NlWFwYiE6zdYL6fA1DsGft5rkBUvbvK9UodfuIkZu8h8k+8Z+FmvQU5coQfNS8FgRjOy8fo9qF6DzP3VBqu/UheDETN1Laz/47/e2C//sNcgZ8ro+YKowmBExOlSXb9uFmeQJc9siG5X4RdvYjD3PLohpe/vnEFK65h4wRRhMCKipL6/FziDTIhQTBZMEQYjImqamODZiUp5z++cQTwnpeAAHWMUJzsCEsIoWBQnhcRwCpztCaElWQWGBfAKTe1tRSRJKUqiuBa/Rg1jmEBPAl691w6mBkhAKgHQ6rg3G8Of/6uGsmuM0PIszuVqXSIAZKD/SwIjU6eW05Z7XzrGON6uBCgiJSAh+9fADMtC1iUaaprFtTq4gww4c8RNlPR+JpcA9/tv7wF46eMu0FnJIwEeBCRP5n/3Tek1HZy8Yp2Hlh58euP0HUe7F4OXFNcyKTJvq5SD4cHfnYSVd9uB3YDrjmrl6qYuqGmmhZLGS5AXCbHBEt7vovwlEDmBgvxK69yoob4UvDBPzvvdgTNaqxmkuFbXO5JFBkQq8MIMNoQgAFDjQZL6P8Qg3Xp7WXcswPcz2L7m4utGctr4oEgAdyfrxSLoyHznyZRzNRxqmtmA2YlKGfq/JCAiNba+FD9fOxJ4aaEdTPLhv1tX7+mCxnbLd8/KGxjQ0sDFHgNBrV5N8+iLQRCBkalTTuamn5VcbWBmCi0GYxohXiRE+fO/mFhm9msqjVPVyMBPhVq4K1oKfcMmZMWcy1ooqRudBilvYGIB4CzZcIM1eaVrzNhDQwP87YAa0s5oobGdAZUGoKmdhQOntfDmQTWIa0jBckyc2h168EdfGEwfmjtY+ON/VDAhhwQPJ4IzCGpZNOIaT7AoYdGKIMAGwZgKMkNZPQNl9UIrsQ21LQyXXYLnPzAYHpo72ECwRgtCEN3Df3zoGADWhE6rwWOwALSJMSFlYCgQlW/KxJZcCuDmQICbI8GlVdhLCS4NQUOz0KFmoaWD5boeXRrT9JjDwL/B2NCmhASQ9I3fh3CuhqqjtwgTz2VfHOUAXi4kuDoQ4CAjgKIA2rpYuH6DgYY2VjTdtpZ21hOsYZAADwKeul0OMp4jHzxLQ+alwc9A8mQKFsTqD8t0alj403/Ug96UMgrgpYVy7uYeSEElA/uyNcD3OmspBeDvQUBKhBRigykI8CTBxZ4AufTWPAO6KWgdCze6WKhuZCGvlIYjF7RQ28zyHnM4rLhLzunpwd/DcIP/8kI7UGlvCWhXsfD2YTW0dAxPAzLHLxOlEB2oP3qWX6mDz7K0gx4DnTsUu8ydLoXkCAmXuuIgJ4Eiuic7dDqAlk4GCqt03GDAqVKd4Ebp0oI0PknJN7o9PNpVAJPHkxDkpX9CdQxhkkEWxckgNZJf2qFzNJwqMT5vM8GDhEUzZXqtELqBC6rUvK1YuB8JS5JkkBIpAWc747NQMgm6wAT4ugHMmETBgwlS2JelgW9PakE1+P1iEuimiptEcTPVppAQ3v98oUD6o2MarqUbDiQBMCVAArdN4bse6DwZ/4PR/opICaycI+cqHL4ziyomXxnJTUqiyglVOMjcQjNlhsLb4gZB3Y7CKobXIGF+qMsCRms1LxcCpgUalpUSIYHTpTqjXbVZkyjeLlqHCuBUCd07NIkulpsTwWWoPpQg42aFhzpDizb3dCZh5Rw7roZ/66DaYiYZ6SBzPJAgheV32IGziS/xQz2PuTFS8HYlIbdI2BPZ0sEamJYdBujGPVHM30p4OVMwydt4jTg7VAIOdoa/j5tIgauRk+0gB5gexF9GfauuX/aplysBu5bac11CD+fhpWugWnDhDBncH2+lGbsRBjqXd0yVwPI7TTdHD8hYsSEUPJwss5Y8k2jrsoJBEGev6qC1U7+Kt5cDTOXpy/aAbrKkcIr71xCBHhSEGDFZsBcFkQZmm09e6d+3Ra0d6vIxPIEm6o5pdVwtArXNDBdEqrXAu20PqPb7VbIcvF1G57MSQwF1l56fJwdnI5Ud3JyRR+ca/fS9Y5BJUMssJO0qdpxV5kFudLJQUKmDpMn6h0fdn0/S+fdDAfGMicYloagpcbKEM+FAJBTAjBCKGyUZCK1DBunfsmlpgL2ZGi6FAzXrcHOkrbhWB+mFNBcs1rd25yKhC+buTEC4H8WZWBEp5c1PcnMk4PapUvgiZ5jDW2x3mgeKd3qY4E7qZQH3UNHAcIbuAVVQWoECXXSuliRKwcfV+A1e18Jw5/hqPQNahuVMFR1AQfh4ineQx9Z0acDNKjLUdHdtHR8m0YsFQv0kXBBfXMvojfrMCqW44b/BSAijYPdR0Ovro/gFBYR88Udtiw5K6vWrf2SIfdkazpg6huUMczSfhpZOVi/OQS1OSR0Dxwq0cLlGx/WtB+ZAobKnB5HwzQnod8MOFVT0G9+r+j038qfH7A22jpu+7IJrLbcEo3PbrhImEcTHjQBFlOFbq7qJgW9OaiHrohbqWtje80QR3V3k2BAJPHGbHMLHk0AK2BirtKyL1XyKamuVVs6Ne/fFXgbwUKIMdu1X9evuoBsrMVxfDrrQA0+SnxsFYX4UXKjofweG+nZ/zkdBJQPNBrJdr9QxsPsnNVyu1sHlGmbQ/KIuDcAXOVpICJPCjIn65aGaXi4lQKsb3g3argLo2/EwNufQ1sVyphYDqBXwNtB6XL/BwtZvVHCOpweATlebCiDjIg0l9TrYcL89TA82bRTPGmhokFutk3f1OgPl1/VPAoovbp8i1etferoQMDVA/2RcKKf15j0c7VArItEbMkTBudxAFwQZ1tA8Bfp8f54WLplgjh5QrXe6lL8PYy8jDE6WjgVQa2yo5v/6uIbXHAOpbmLh25NWnIU1AdQtt+plHFjD9yCXAERO6F90gDsJngNiB3TjfpdHQ32LftUZHaj/IA+fweDmH2pIy0BQ3zfAg4T4MIrrrqGYKcCTv+/fZWAUkiCs+0CP2EExHR8daoDcItMDI6FfA4i62FYNhc6U6WDxbNALuNCNjZrOowV0bz8/IVyiN3qFWqGsSzREBVDcHEPfVIroQAkXBPY8sIP6vUEGLszFah03cWYIdDOH+pDwQIKMW7FjnGP/slDXBnVh8it0kFNMw8liXXe54ujRiApUkXgaGMW7UqcbUQ9YsdbO5i2r18GNLoZ3uG6ST3etjLpPEpJ/7qKgUselT+RdoeGOKRR49DkOuoGjA6neEx7sRYJcwn9hLtXouIEDPlBXIG4iBSvulsPk8fwTjOgzN0cCkiIkXAB5W5QOPjiiBmIMd6MMYScl+ueE9aG2uft5kpGEVQ1S28JyKdK8BvGVgKczAZWNLAR6kRDg0f+sammA48U0V3ufKaPhSp20n0HQTZsUTsGRfC23TWwwBXY880pqLXA1Pt/8haMcuPSShxJlJo2eITOh+Gd2KAVhfvZwsQo/qjwQFANSBgKQlg7L56tZE4oE1qp1ILpxjxfz30TO9gAREygu0I4PpcBpwIRSSycDF8q79+1UA2/+1fQQ1B0iuC6cofkT1IJdqNBvPrrH6mXccKIxc2jo7uFS9IP+33OBUbkJYSIYrB9BjLSwzF4GKqtf4byS7uHegUEuwU0aSrgJuZQIqV7Afamagca2W9VN9mUalt8p7zdKhVqmKH+Km9gLNzC8e7YMdfP0P/d2JWDRLJnB7gAyxLECGnIu03DtRnfzg1qwAA8CYoIpiAuRcpkBmP6gFlvH1SL6dhjnRHDX2Vg2gpiQS4kbVjdIXQsDV6/puNZiIFH+JEz0JnnTT1Bw3rc1RjdpSb2u36IFqBVQRkm4FoBv5hVdpxMG1k5Cenxc+eu0NhULb+xXcROG/bsE3Vf2q1wtJIbT8LtFct5Z+7FMh5rlTMIHijud7QBaO22tyjwc5NBi9avbnUHLf5N6u1KwNFWmN3rV2snqLUbWpeafy5gWSMHtU/l93tzOQEElf3RuaPkcRGYhzWOOW2h1AJkXafguD6ftDqR7ATz+JiLQ0/T0fTHgZEc0Wd0gbPfr3XjHtFGQrIjSn2BAXabaAcOB6DjHi/QfpPFxIyEuhN8gJfUM9yATH8ae+ThfoRs0mGRvmlYsyEy87ygSuFb73plSLlt29iRKL9thuJwr568QpRLgKkRj2dg9oB7BFAPzWrbCxZ6ot0mUWVClg4YbDPiO6+9HggDezF0UN/A9U1FYrYNrrQwEevYfzTLE6VKdwXwoDW3YAY6DZKCKkUh/CsobbtUeBOhP00hI4IzxxO2y3pFF1B3KLaK5VUuMzRUNBXT9ujTdaUUDiQmWwG/my+GDoxou7WRg+gxx8/w/nCyHxfHCpru7OdrIIBotwIkSHdw3c/AGC7U0hp46RN+hixnoOfiJ09IAuZcNz9pWNBiOFG+PknLrPvEF9z2gix8VYNv4w1ir9kiKDGqaGKhsYsHHheBa1vTCW3+//GbtvTRV3u/GlUuBSyxUaeWw/VvVsBIse7hSp4OL1TTM4GnZUYU2L1YG8WFSboj+p3yam8uiGQB3RwKmBVGwcIbU4JyULSk4k3HdJgZBFzbvCg3zY6SDpjGjQLzGQB8WgeKZX8wCgzlXPZRd00Fdq+HjoFatrYvlfc8Fqo1X/8IOPjmmgco+6z+h1s7JjuAmJZckyyA+1LbDvI3t6O/h73ZM8qXgjUcdoEvDgp2M4FpsFLP15LGF+pLwuFLOm6JPEt35cbt/UkNV4/BbkU41wDcntFy2A18PAZXn4UzAgwkyWBgr5dYaYFlu1Ih7lNnY80C2wkEOqiPZ6TqbXeHiWgY61Wy/5xv4uFzDGJz1hpvL3t/oYsBLarx6KapljC7uUN/KctvE8WTjoppLGSWFIE8KjhZouecyUOPv50Zw5onyJwV5mKfSSKtHcHNLRK/hGYYEbxeSW1sXbgbIxlYgQBXO+HEkVDVaZvLz5BUdlNTxj1720D3xSnA/YmOcI1kHtlw4DsUODW0MuDkaPmGoC1VYpTOa1t3Y1v2En7HhVbT/xWrjx0G13MGzWi5dha9VQxdvog8JQV7y3mHL7lniW9vwpeJbk4vV3V0RiQnedJQTnP4eg+hMWG/Jku/56FCzsCdTA2sX25s1CIDkohZTqKcK3Z2gAmy5cBxqFfIGWY2kU9O9qIIxNCYcB93QJwzM4Pfl8Hkt92yCoWFJuNmaOMi7f/qaA3Vhsk1YocWSnCmjufR/U0CtRWwI1ZtVXFjFdD8EZmD75nYWrlrwbVHoBkfxxTs/qLh5pSHtCwC5xTTsyRAuccvPjSxC/5K2DIROFPMP9/ZQVENz+VuDgQJ1Y8Hk5RodN0E5GEjLj+e1sPGLLi5GGmwtJtRioLgF/R1r9naZ9FyDJWnrAm7BaNRdHay2R9/7upG9BkGt7utfqaC6UX9HlRbgs+zhLxE0EHS0/ae0sPlrFVyqNjyi2Hf71k4WvsrVwLZvVNBwQ7jErY/f3sy1IBK/cURFVWP3MovWBt24+7LVXCDGx/Ei48v59FB+nYG9mWqDL5LMuzL4PEZfLlUzsOELFaREUDBnmhQm+pLgJO++uVgGtWwMZ9ycyzRnCnSDoi6EvUwH/z6hX8u1drCg1vILuN7KwnenNHqBKLqhB8798IFitNV7O+G+WVIuVcfLlbil9ebKj6iMrMta+O9pbW9aR3deHA2vfcXC8rtk3ISdhCS4bu93J7XwzUkN8D0Aydxcpaa5Q18bOg+DgcrNukRzXefUCAncNlXCzcPYy0mQ3Fw4jtZ1r1J5ppTm1j3Lr+zuHlc1MbznF5FfYd18lfHuRHE5kvfqvzq+zrqke8CqpY0gelYB9HLpXlFRpWG5+YGGdlZ0OUSSm2n4ns4EN3Kl1bFcDXyt1fgSnhIKYMI4koup6lq6V4m0Fej8ujsS4OpIgKMMdWEIaOM0M9AuoonX4Gu7Ive9v+WS5GpBZgFQSdggN0G1cEMby/2IHRSwm6MVdS3LjYyIWZPu4Ju1ytuwLMnVwsxi9C9ZW5xRKLQYDEZMBHsRxbnZ6VzERIb7UplCC8JgxES4H5XR839y9z821zjJYYQkIGMw1ufLDzbn9/yfG+SNCrjlGAxmrBMVQPWu/ckZpLE0M1dQRRiMSJBJQFtblHmu53fOIFWXMgsEVYXBiIRAT7IwJyu9d4iNM0ioL5ktqCoMRiSE+pJ5fX/nDPLBW5vrfN2IasFUYTAi4b//2tIv3OjNxFLXZP1bEEUYjIiImyjZ3/f3XoO0V2bhkSzMmCbEmyz8519fb+z7Wa9BOiqzDkhIEFm2EQZjOzS1WWkDP+s1yOkT6arpwdRhm6vCYEQCXZf19cDP+iVdd2nARTY+ZaFNVWEwImCiD3nxq+3z1g38vP/jUtezvrClKAxGNBTsvJ/v434GuXA6oykmmDpqM1EYjAiICaaO7H138yW+7/RWUKAZkEt9UxbZRBkGIwKuHtv+Rl1x5im+7/SeSCeuZ+1ztiNUNlGGwQiMTAI6dM8b+l7PIGdPZrQ/kCDdYXVlGIwIiPKnMs6czGg19D3vmiYXD2/b6WxP3LCqMgxGBKhrsg4a+553FbfjOel0VKxifKckMN5qyjAYgaFIgLIDzz1SX1Nu8IFBg6tijevM+ZvVlGEwIkAZKdl7/lRGg7FtDBrk03c2l8RNpIw2PxjMSKbg8La3B9vG6Drarg5Ek8Y9ZalFVWEwIiByApm3b+u8TYNtZ3Th0R8/33ow2IvEywJhRh3FR7b/yZTtBn0Tg6Mc2gnvlMUWUYXBiIAJ7kTZob/Of9aUbQdduvrE/m2f+rgS5RZRhsGIAH9d7hZTtzVpbfcAJve1YSnCYESCtytRfvL7rZ+Yur1JBjn9360f4VYEMxoIZnNfz8lKN/m9FSa9Da6yohzcHIgGwjuFNyUYgxkJ+LsTJUXfP/dURYXpdb3Jr885vn/bHgc54DfnY0Ys5w9u252VmT6kZeWH9H4pl7acvw9ZFQYjAuxloJI0ZX841P2GZJCyY9tec3UgGodaCAYjNH50zraCMxn1Q91vSAY5l5fRGgw5g84+YjBiwtuFqCj+3/Y/mrOvWS8xXvpm+4XSemaqOftiMLZGdnnnQ+lfb9VbscQUzHrHbeeZHSvM2Q+DsTWzJlGHzTUHmDrMO5BL5zIqp81U+KukgTPMLRiDsTZ2UtCc/Wjh3Mb68hZzj2H2W9Jrs7f/ztOZqDJ3fwzG2oQQuWuLzmdcHc4xzGpBEHXV5epAT7JY657yyHAEYDDW4P7Z0g92rYjQWwhuqJhtEERpfmbRlBmKILUsMHa4QjAYS+Hanv3ROy9FLrfEsczuYvVw/fiOVbEh1BFLiMFghouvG1F67fiOFy11PLOGefl44I/tlTXNjL+ljofBmAOTv3P5if1bhzxjbohhtyA9hJI5v7fUsTAYc5joTeYTDVmfWvKYFmtBEPf89uA7jfbJKy15TAzGFJzs4EbZl/fEXrmQUWrJ41qsBUE0HN/xQqgvec6Sx8RgTGGm8/FnLW0OsHQLgpg8XREwacmBU80drLelj43B8OGvy9nx1Y55a61x7GEN8/LRWF9+IyqAOqFyS36SHVLmPQYzdOJDqaO7X416zFrHt2gXq4f9H2/JnG6fi2MRjFUJ8CAvpr8z36pPuVq8Bekh78ie04nJSocbZECytcrAjF08nIjagj0L7zDnGY+hYPEYZCB3vnBwb6drMk5HwVgMBzl0Xv5sYVLVpcyfrV2WVbpYfek6t+PRmROpdGuXgxkbSCiAO31O3G8Lc4AtWhDEzASlw5RlBzKKapk4W5SHGb2keh5fuuvlOZ/ZqjybGAQRM0vhGrUsLb3sGjPdVmViRhezXHKffnP13N22LNNqQfpA6mrK1bEh1I9N9smrbFUmZvSw5WH7e56/P/xLW5dr9RikL9w7R5xyn7ZlmZiRz0zn3GfujJYeEKJsm7UgPZw8sufsXdMkn7gHpyqa2lk/W5ePGTkQBEC8a+4Tb66e+5FgGoQqOC5e6Rj/TNoPZ8t0eJ4Eo4dMAroUj+O/2rpqzldC6rB5C9JDbXW5VtKY/endix6LKr3GRAmlAyM+nO2ItoUBJ+dtWHl3mtBaBGtB+rL494f+WidNsthTYJiRi7cLUXnukwXzygszRfFmM5sG6Yb4dte8l6Ltc18ShVsxgjHRmzxf9PnCBLGYA8RiEMR7G+b+bVHQibku9kSz0FowtueuaMmXRZ8vTLx4NqNGaC19EV2lHRqtCIl7Ku37iga8tOlYIVySu+aT1+buFFoHH4IF6YZoulbe4tCa/ZGLZ1CIRh44TWg9GOvh7kTUOVzZdd9Xbz67R2gthhBdC9KX3+z4YWWBOvFvXRqQCa0FYznsZdB1Z7T0472b524uPJtRK7QeY4jaIIiJU1PDl6z94Q+Zl+hHdIzQajDDZZIPmZ/z3vz7S/Mzi4XWYgqiN0gP+/M0T+34TmWx9Y4wtifYiyzyr3tj2hs7XlMLrcVURDOKNRj3zZLtThp3/HFXB8LslboxwpE8mfr+/KcLlCPJHDCSWpAepsxQ+Nz7yqF/HCugHxBaC2ZwxjkR9dF2uS/vfHnOPqG1mMOIM0gPdz+8fpFT3Jo361rYYKG1YPgZ15n9fnXW9jU/52U0Ca3FXEQ3zGsqpfmZRa4dOe9MmhjMdEkDEmkGJEJrwnQT6U+ekhft/MX+t1e8W19T3iW0nuEwYluQvkTGKCb8ct2hXYd/pvHiEAIyNYDKHdeV/faul+eIdl5jqIwKg/Twq2c3xkybv+6pjEJ6WUsnO05oPWOF+FDqcH3ujt/ve2+zTRZSsCWjyiA9xMUrnafOW7eqXpb0amsn6yq0ntHKzEnUkaqM7X/49uMt2UJrsRaj0iA9zExQOsUsWPdsnSzp1cY21ldoPaOFlAjJd2U/bdv+9e4tJ4XWYm1GtUF6SEpRUoxn8rLJd6/7bVENg/O7zMBeBir71uyPvdQ5f/r4H5uvCK3HVowJg/Rl8RMbEqPnr1uRXkgv09AjdxTPVgR7kSUu7dlv5X2/7eMzJ9NbhdZja8acQXqIna1wS7hv/TJ7/9SF58tpZYca7IXWJBYixpPn7FqyP1TXZqXt/vtmi79zYyQxZg3Slxdf2eTqFLdm39F8er7QWoRknCNx43eL7JbdGS39j9BaxAI2SB+WrtgYDV7JSwiflMUldWNjIQkHOXTFh0r2Z3y99YC6NuvfebnpI3piz9JggxjgmVWb/I8X0w/O/dWG286W0Xd1asBRaE2WIsSbLOqsyjqgrsk63HI188fc7HSd0JrECjaICSSnKsEnNDXRNSj19oDI1Mll15jpJfXM9JHwBi0Xe2ibGkBlNJVlZVdfzrwY5ktm/eMvrzcIrWukgA1iJrMTlXK/8NT4SzW6hGUrNoWUXtPFXL3ORKsEbGl83YjKEG/yXMXFzPzaoszLEePJ9A//vvmqUHpGA9ggFua5lzZ5VDcxUTXNTGREjMJv+iyla2sH69nUzo5v7mR9bnSynu0q1kNDg9SU4xEEgKMcOpztieuuDsR1d0ei1sOZrHr3b69fc3UgWjyciIrx7mRhyYWMkuM56bT1/8Kxxf8HAAD//2bSQ8UOS+Z1AAAAAElFTkSuQmCC;" vertex="1" parent="5HN7T7UEc5agFK8pBkJ4-12">
          <mxGeometry x="90" width="50" height="50" as="geometry" />
        </mxCell>
        <mxCell id="5HN7T7UEc5agFK8pBkJ4-13" value="did.json" style="shape=document;whiteSpace=wrap;html=1;boundedLbl=1;" vertex="1" parent="1">
          <mxGeometry x="160" y="495" width="70" height="50" as="geometry" />
        </mxCell>
        <mxCell id="5HN7T7UEc5agFK8pBkJ4-14" value="certificate" style="shape=document;whiteSpace=wrap;html=1;boundedLbl=1;" vertex="1" parent="1">
          <mxGeometry x="160" y="440" width="70" height="50" as="geometry" />
        </mxCell>
        <mxCell id="5HN7T7UEc5agFK8pBkJ4-16" value="" style="endArrow=classic;html=1;rounded=0;exitX=0.75;exitY=1;exitDx=0;exitDy=0;entryX=0.5;entryY=0;entryDx=0;entryDy=0;" edge="1" parent="1" source="5HN7T7UEc5agFK8pBkJ4-6" target="5HN7T7UEc5agFK8pBkJ4-2">
          <mxGeometry width="50" height="50" relative="1" as="geometry">
            <mxPoint x="-150" y="400" as="sourcePoint" />
            <mxPoint x="60" y="280" as="targetPoint" />
            <Array as="points">
              <mxPoint x="240" y="430" />
              <mxPoint x="415" y="430" />
            </Array>
          </mxGeometry>
        </mxCell>
        <mxCell id="5HN7T7UEc5agFK8pBkJ4-18" value="" style="endArrow=classic;html=1;rounded=0;exitX=0;exitY=0.5;exitDx=0;exitDy=0;entryX=1;entryY=0.5;entryDx=0;entryDy=0;" edge="1" parent="1" source="5HN7T7UEc5agFK8pBkJ4-2" target="5HN7T7UEc5agFK8pBkJ4-13">
          <mxGeometry width="50" height="50" relative="1" as="geometry">
            <mxPoint x="230" y="660" as="sourcePoint" />
            <mxPoint x="280" y="610" as="targetPoint" />
          </mxGeometry>
        </mxCell>
        <mxCell id="5HN7T7UEc5agFK8pBkJ4-19" value="Legal Representative" style="shape=umlActor;verticalLabelPosition=bottom;verticalAlign=top;html=1;outlineConnect=0;" vertex="1" parent="1">
          <mxGeometry x="-70" y="390" width="30" height="60" as="geometry" />
        </mxCell>
        <mxCell id="5HN7T7UEc5agFK8pBkJ4-22" value="User" style="shape=umlActor;verticalLabelPosition=bottom;verticalAlign=top;html=1;outlineConnect=0;" vertex="1" parent="1">
          <mxGeometry x="-60" y="260" width="30" height="60" as="geometry" />
        </mxCell>
        <mxCell id="5HN7T7UEc5agFK8pBkJ4-23" value="" style="endArrow=classic;html=1;rounded=0;entryX=0;entryY=0.75;entryDx=0;entryDy=0;" edge="1" parent="1" source="5HN7T7UEc5agFK8pBkJ4-19" target="5HN7T7UEc5agFK8pBkJ4-6">
          <mxGeometry width="50" height="50" relative="1" as="geometry">
            <mxPoint x="-60" y="440" as="sourcePoint" />
            <mxPoint x="-10" y="390" as="targetPoint" />
            <Array as="points">
              <mxPoint x="70" y="420" />
              <mxPoint x="70" y="375" />
            </Array>
          </mxGeometry>
        </mxCell>
        <mxCell id="5HN7T7UEc5agFK8pBkJ4-25" value="" style="endArrow=classic;html=1;rounded=0;entryX=0;entryY=0.25;entryDx=0;entryDy=0;" edge="1" parent="1" source="5HN7T7UEc5agFK8pBkJ4-22" target="5HN7T7UEc5agFK8pBkJ4-6">
          <mxGeometry width="50" height="50" relative="1" as="geometry">
            <mxPoint x="80" y="260" as="sourcePoint" />
            <mxPoint x="130" y="210" as="targetPoint" />
            <Array as="points">
              <mxPoint x="70" y="290" />
              <mxPoint x="70" y="345" />
            </Array>
          </mxGeometry>
        </mxCell>
        <mxCell id="5HN7T7UEc5agFK8pBkJ4-26" value="UserCredential" style="shape=document;whiteSpace=wrap;html=1;boundedLbl=1;" vertex="1" parent="1">
          <mxGeometry x="10" y="180" width="90" height="60" as="geometry" />
        </mxCell>
        <mxCell id="5HN7T7UEc5agFK8pBkJ4-27" value="" style="endArrow=none;dashed=1;html=1;dashPattern=1 3;strokeWidth=2;rounded=0;entryX=0.411;entryY=0.9;entryDx=0;entryDy=0;entryPerimeter=0;" edge="1" parent="1" target="5HN7T7UEc5agFK8pBkJ4-26">
          <mxGeometry width="50" height="50" relative="1" as="geometry">
            <mxPoint x="30" y="290" as="sourcePoint" />
            <mxPoint x="110" y="280" as="targetPoint" />
          </mxGeometry>
        </mxCell>
        <mxCell id="5HN7T7UEc5agFK8pBkJ4-28" value="SelfDescription" style="shape=document;whiteSpace=wrap;html=1;boundedLbl=1;" vertex="1" parent="1">
          <mxGeometry x="10" y="480" width="90" height="60" as="geometry" />
        </mxCell>
        <mxCell id="5HN7T7UEc5agFK8pBkJ4-29" value="" style="endArrow=none;dashed=1;html=1;dashPattern=1 3;strokeWidth=2;rounded=0;exitX=0.5;exitY=0;exitDx=0;exitDy=0;" edge="1" parent="1" source="5HN7T7UEc5agFK8pBkJ4-28">
          <mxGeometry width="50" height="50" relative="1" as="geometry">
            <mxPoint x="-200" y="590" as="sourcePoint" />
            <mxPoint x="20" y="420" as="targetPoint" />
          </mxGeometry>
        </mxCell>
      </root>
    </mxGraphModel>
  </diagram>
</mxfile>
